<ttFont>
<head>
    
    <tableVersion value="1.0" />
    <fontRevision value="1.00002" />
    <checkSumAdjustment value="0x0" />
    <magicNumber value="0x5f0f3cf5" />
    <flags value="00000000 00000000" />
    <unitsPerEm value="2048" />
    <created value="Thu Jan  1 00:00:00 1970" />
    <modified value="Thu Apr  2 17:20:02 1992" />
    <xMin value="-633" />
    <yMin value="-483" />
    <xMax value="2214" />
    <yMax value="1893" />
    <macStyle value="00000000 00000000" />
    <lowestRecPPEM value="6" />
    <fontDirectionHint value="1" />
    <indexToLocFormat value="1" />
    <glyphDataFormat value="0" />
  </head>
    <TTGlyph name="A" xMax="1421" xMin="-633" yMax="1610" yMin="-137">
      <contour>
        <pt on="1" x="438" y="1009" />
        <pt on="0" x="430" y="1075" />
        <pt on="0" x="505" y="1188" />
        <pt on="1" x="582" y="1211" />
        <pt on="0" x="657" y="1229" />
        <pt on="0" x="802" y="1172" />
        <pt on="1" x="825" y="1101" />
        <pt on="0" x="829" y="1090" />
        <pt on="0" x="866" y="1046" />
        <pt on="1" x="821" y="967" />
        <pt on="0" x="775" y="888" />
        <pt on="0" x="580" y="640" />
        <pt on="1" x="564" y="520" />
        <pt on="0" x="499" y="619" />
        <pt on="0" x="214" y="740" />
        <pt on="1" x="139" y="788" />
        <pt on="0" x="63" y="836" />
        <pt on="0" x="69" y="883" />
        <pt on="1" x="63" y="899" />
        <pt on="0" x="46" y="971" />
        <pt on="0" x="138" y="1094" />
        <pt on="1" x="213" y="1115" />
        <pt on="0" x="290" y="1133" />
        <pt on="0" x="411" y="1070" />
      </contour>
      <contour>
        <pt on="1" x="552" y="1459" />
        <pt on="0" x="602" y="1539" />
        <pt on="1" x="696" y="1502" />
        <pt on="0" x="739" y="1482" />
        <pt on="0" x="787" y="1401" />
        <pt on="1" x="772" y="1359" />
        <pt on="0" x="770" y="1353" />
        <pt on="0" x="772" y="1318" />
        <pt on="1" x="721" y="1297" />
        <pt on="0" x="669" y="1276" />
        <pt on="0" x="483" y="1229" />
        <pt on="1" x="432" y="1178" />
        <pt on="0" x="438" y="1249" />
        <pt on="0" x="345" y="1413" />
        <pt on="1" x="327" y="1464" />
        <pt on="0" x="308" y="1515" />
        <pt on="0" x="329" y="1535" />
        <pt on="1" x="332" y="1545" />
        <pt on="0" x="350" y="1586" />
        <pt on="0" x="440" y="1610" />
        <pt on="1" x="484" y="1593" />
        <pt on="0" x="576" y="1549" />
      </contour>
      <contour>
        <pt on="1" x="1033" y="427" />
        <pt on="1" x="1232" y="1054" />
        <pt on="0" x="1265" y="1161" />
        <pt on="1" x="1290" y="1261" />
        <pt on="0" x="1312" y="1351" />
        <pt on="1" x="1312" y="1381" />
        <pt on="0" x="1312" y="1399" />
        <pt on="1" x="1306" y="1408" />
        <pt on="0" x="1300" y="1418" />
        <pt on="1" x="1289" y="1418" />
        <pt on="0" x="1271" y="1418" />
        <pt on="1" x="1245" y="1392" />
        <pt on="0" x="1215" y="1362" />
        <pt on="1" x="1177" y="1304" />
        <pt on="1" x="814" y="757" />
        <pt on="0" x="783" y="710" />
        <pt on="0" x="725" y="627" />
        <pt on="1" x="701" y="591" />
        <pt on="0" x="675" y="555" />
        <pt on="0" x="630" y="493" />
        <pt on="1" x="612" y="468" />
        <pt on="0" x="669" y="446" />
        <pt on="1" x="771" y="437" />
        <pt on="0" x="879" y="427" />
        <pt on="1" x="1033" y="427" />
      </contour>
      <contour>
        <pt on="1" x="1021" y="392" />
        <pt on="0" x="924" y="393" />
        <pt on="1" x="830" y="400" />
        <pt on="0" x="749" y="405" />
        <pt on="1" x="679" y="417" />
        <pt on="0" x="745" y="343" />
        <pt on="1" x="801" y="254" />
        <pt on="0" x="858" y="163" />
        <pt on="1" x="909" y="46" />
      </contour>
      <contour>
        <pt on="1" x="-633" y="-106" />
        <pt on="1" x="-565" y="-31" />
        <pt on="0" x="-485" y="-56" />
        <pt on="1" x="-427" y="-66" />
        <pt on="0" x="-364" y="-78" />
        <pt on="1" x="-313" y="-78" />
        <pt on="0" x="-162" y="-78" />
        <pt on="0" x="162" y="103" />
        <pt on="0" x="461" y="367" />
        <pt on="0" x="711" y="663" />
        <pt on="1" x="788" y="777" />
        <pt on="1" x="1109" y="1256" />
        <pt on="0" x="1202" y="1396" />
        <pt on="1" x="1246" y="1434" />
        <pt on="0" x="1289" y="1471" />
        <pt on="1" x="1335" y="1471" />
        <pt on="0" x="1377" y="1471" />
        <pt on="1" x="1399" y="1440" />
        <pt on="0" x="1421" y="1410" />
        <pt on="1" x="1421" y="1347" />
        <pt on="0" x="1421" y="1194" />
        <pt on="1" x="1280" y="758" />
        <pt on="0" x="1244" y="650" />
        <pt on="1" x="1234" y="615" />
        <pt on="1" x="1175" y="431" />
        <pt on="0" x="1199" y="433" />
        <pt on="1" x="1230" y="433" />
        <pt on="0" x="1310" y="434" />
        <pt on="1" x="1338" y="437" />
        <pt on="1" x="1335" y="405" />
        <pt on="0" x="1256" y="398" />
        <pt on="1" x="1230" y="397" />
        <pt on="0" x="1198" y="395" />
        <pt on="1" x="1163" y="394" />
        <pt on="1" x="1033" y="1" />
        <pt on="1" x="894" y="1" />
        <pt on="0" x="824" y="176" />
        <pt on="1" x="750" y="285" />
        <pt on="0" x="675" y="395" />
        <pt on="1" x="591" y="443" />
        <pt on="0" x="407" y="226" />
        <pt on="0" x="-105" y="-137" />
        <pt on="1" x="-405" y="-137" />
        <pt on="0" x="-465" y="-137" />
        <pt on="1" x="-517" y="-130" />
        <pt on="0" x="-567" y="-123" />
        <pt on="1" x="-633" y="-107" />
      </contour>
    </TTGlyph>
    <TTGlyph name="AE" xMax="2214" xMin="-502" yMax="1485" yMin="-14">
      <contour>
        <pt on="1" x="993" y="393" />
        <pt on="0" x="982" y="394" />
        <pt on="1" x="961" y="394" />
        <pt on="0" x="730" y="401" />
        <pt on="1" x="647" y="416" />
        <pt on="0" x="702" y="357" />
        <pt on="0" x="808" y="191" />
        <pt on="1" x="881" y="45" />
      </contour>
      <contour>
        <pt on="1" x="580" y="467" />
        <pt on="0" x="638" y="445" />
        <pt on="0" x="834" y="426" />
        <pt on="1" x="1006" y="426" />
        <pt on="1" x="1202" y="1053" />
        <pt on="0" x="1237" y="1163" />
        <pt on="0" x="1278" y="1350" />
        <pt on="1" x="1278" y="1389" />
        <pt on="0" x="1278" y="1402" />
        <pt on="0" x="1267" y="1417" />
        <pt on="1" x="1257" y="1417" />
        <pt on="0" x="1239" y="1417" />
        <pt on="0" x="1186" y="1364" />
        <pt on="1" x="1145" y="1303" />
        <pt on="1" x="782" y="755" />
        <pt on="0" x="776" y="746" />
        <pt on="1" x="761" y="724" />
        <pt on="0" x="666" y="582" />
      </contour>
      <contour>
        <pt on="1" x="-502" y="23" />
        <pt on="1" x="-434" y="98" />
        <pt on="0" x="-358" y="75" />
        <pt on="0" x="-233" y="51" />
        <pt on="1" x="-182" y="51" />
        <pt on="0" x="47" y="51" />
        <pt on="0" x="509" y="408" />
        <pt on="1" x="756" y="776" />
        <pt on="1" x="1077" y="1255" />
        <pt on="0" x="1171" y="1395" />
        <pt on="0" x="1257" y="1470" />
        <pt on="1" x="1303" y="1470" />
        <pt on="0" x="1346" y="1470" />
        <pt on="0" x="1389" y="1409" />
        <pt on="1" x="1389" y="1348" />
        <pt on="0" x="1389" y="1252" />
        <pt on="0" x="1283" y="888" />
        <pt on="1" x="1176" y="612" />
        <pt on="0" x="1279" y="723" />
        <pt on="0" x="1532" y="901" />
        <pt on="1" x="1532" y="909" />
        <pt on="0" x="1532" y="921" />
        <pt on="1" x="1517" y="941" />
        <pt on="0" x="1510" y="950" />
        <pt on="1" x="1507" y="955" />
        <pt on="1" x="1475" y="1012" />
        <pt on="0" x="1457" y="1042" />
        <pt on="0" x="1444" y="1087" />
        <pt on="1" x="1444" y="1110" />
        <pt on="0" x="1444" y="1170" />
        <pt on="0" x="1527" y="1293" />
        <pt on="1" x="1606" y="1350" />
        <pt on="0" x="1697" y="1415" />
        <pt on="0" x="1905" y="1485" />
        <pt on="1" x="2011" y="1485" />
        <pt on="0" x="2115" y="1485" />
        <pt on="0" x="2214" y="1392" />
        <pt on="1" x="2214" y="1296" />
        <pt on="0" x="2214" y="1259" />
        <pt on="0" x="2183" y="1146" />
        <pt on="1" x="2152" y="1071" />
        <pt on="1" x="2034" y="1053" />
        <pt on="0" x="2101" y="1205" />
        <pt on="0" x="2146" y="1339" />
        <pt on="1" x="2146" y="1376" />
        <pt on="0" x="2146" y="1416" />
        <pt on="0" x="2089" y="1458" />
        <pt on="1" x="2034" y="1458" />
        <pt on="0" x="1977" y="1458" />
        <pt on="0" x="1839" y="1400" />
        <pt on="1" x="1767" y="1346" />
        <pt on="0" x="1663" y="1265" />
        <pt on="0" x="1534" y="1086" />
        <pt on="1" x="1534" y="1026" />
        <pt on="0" x="1534" y="965" />
        <pt on="0" x="1634" y="817" />
        <pt on="1" x="1634" y="807" />
        <pt on="0" x="1634" y="780" />
        <pt on="1" x="1531" y="726" />
        <pt on="0" x="1486" y="703" />
        <pt on="1" x="1460" y="688" />
        <pt on="0" x="1258" y="574" />
        <pt on="0" x="1071" y="364" />
        <pt on="1" x="1071" y="252" />
        <pt on="0" x="1071" y="150" />
        <pt on="0" x="1228" y="31" />
        <pt on="1" x="1362" y="31" />
        <pt on="0" x="1479" y="31" />
        <pt on="0" x="1778" y="129" />
        <pt on="1" x="1976" y="233" />
        <pt on="1" x="1952" y="90" />
        <pt on="0" x="1786" y="36" />
        <pt on="0" x="1535" y="-14" />
        <pt on="1" x="1432" y="-14" />
        <pt on="0" x="1271" y="-14" />
        <pt on="0" x="1079" y="71" />
        <pt on="1" x="1042" y="160" />
        <pt on="1" x="1001" y="0" />
        <pt on="1" x="862" y="0" />
        <pt on="0" x="793" y="174" />
        <pt on="0" x="642" y="395" />
        <pt on="1" x="559" y="442" />
        <pt on="0" x="360" y="207" />
        <pt on="0" x="-39" y="-8" />
        <pt on="1" x="-274" y="-8" />
        <pt on="0" x="-330" y="-8" />
        <pt on="0" x="-443" y="7" />
      </contour>
    </TTGlyph>
    <TTGlyph name="Aacute" xMax="1606" xMin="-633" yMax="1811" yMin="-137">
      <contour>
        <pt on="1" x="438" y="1009" />
        <pt on="0" x="430" y="1075" />
        <pt on="0" x="505" y="1188" />
        <pt on="1" x="582" y="1211" />
        <pt on="0" x="657" y="1229" />
        <pt on="0" x="802" y="1172" />
        <pt on="1" x="825" y="1101" />
        <pt on="0" x="829" y="1090" />
        <pt on="0" x="866" y="1046" />
        <pt on="1" x="821" y="967" />
        <pt on="0" x="775" y="888" />
        <pt on="0" x="580" y="640" />
        <pt on="1" x="564" y="520" />
        <pt on="0" x="499" y="619" />
        <pt on="0" x="214" y="740" />
        <pt on="1" x="139" y="788" />
        <pt on="0" x="63" y="836" />
        <pt on="0" x="69" y="883" />
        <pt on="1" x="63" y="899" />
        <pt on="0" x="46" y="971" />
        <pt on="0" x="138" y="1094" />
        <pt on="1" x="213" y="1115" />
        <pt on="0" x="290" y="1133" />
        <pt on="0" x="411" y="1070" />
      </contour>
      <contour>
        <pt on="1" x="552" y="1459" />
        <pt on="0" x="602" y="1539" />
        <pt on="1" x="696" y="1502" />
        <pt on="0" x="739" y="1482" />
        <pt on="0" x="787" y="1401" />
        <pt on="1" x="772" y="1359" />
        <pt on="0" x="770" y="1353" />
        <pt on="0" x="772" y="1318" />
        <pt on="1" x="721" y="1297" />
        <pt on="0" x="669" y="1276" />
        <pt on="0" x="483" y="1229" />
        <pt on="1" x="432" y="1178" />
        <pt on="0" x="438" y="1249" />
        <pt on="0" x="345" y="1413" />
        <pt on="1" x="327" y="1464" />
        <pt on="0" x="308" y="1515" />
        <pt on="0" x="329" y="1535" />
        <pt on="1" x="332" y="1545" />
        <pt on="0" x="350" y="1586" />
        <pt on="0" x="440" y="1610" />
        <pt on="1" x="484" y="1593" />
        <pt on="0" x="576" y="1549" />
      </contour>
      <contour>
        <pt on="1" x="1033" y="427" />
        <pt on="1" x="1232" y="1054" />
        <pt on="0" x="1265" y="1161" />
        <pt on="1" x="1290" y="1261" />
        <pt on="0" x="1312" y="1351" />
        <pt on="1" x="1312" y="1381" />
        <pt on="0" x="1312" y="1399" />
        <pt on="1" x="1306" y="1408" />
        <pt on="0" x="1300" y="1418" />
        <pt on="1" x="1289" y="1418" />
        <pt on="0" x="1271" y="1418" />
        <pt on="1" x="1245" y="1392" />
        <pt on="0" x="1215" y="1362" />
        <pt on="1" x="1177" y="1304" />
        <pt on="1" x="814" y="757" />
        <pt on="0" x="783" y="710" />
        <pt on="0" x="725" y="627" />
        <pt on="1" x="701" y="591" />
        <pt on="0" x="675" y="555" />
        <pt on="0" x="630" y="493" />
        <pt on="1" x="612" y="468" />
        <pt on="0" x="669" y="446" />
        <pt on="1" x="771" y="437" />
        <pt on="0" x="879" y="427" />
        <pt on="1" x="1033" y="427" />
      </contour>
      <contour>
        <pt on="1" x="1021" y="392" />
        <pt on="0" x="924" y="393" />
        <pt on="1" x="830" y="400" />
        <pt on="0" x="749" y="405" />
        <pt on="1" x="679" y="417" />
        <pt on="0" x="745" y="343" />
        <pt on="1" x="801" y="254" />
        <pt on="0" x="858" y="163" />
        <pt on="1" x="909" y="46" />
      </contour>
      <contour>
        <pt on="1" x="-633" y="-106" />
        <pt on="1" x="-565" y="-31" />
        <pt on="0" x="-485" y="-56" />
        <pt on="1" x="-427" y="-66" />
        <pt on="0" x="-364" y="-78" />
        <pt on="1" x="-313" y="-78" />
        <pt on="0" x="-162" y="-78" />
        <pt on="0" x="162" y="103" />
        <pt on="0" x="461" y="367" />
        <pt on="0" x="711" y="663" />
        <pt on="1" x="788" y="777" />
        <pt on="1" x="1109" y="1256" />
        <pt on="0" x="1202" y="1396" />
        <pt on="1" x="1246" y="1434" />
        <pt on="0" x="1289" y="1471" />
        <pt on="1" x="1335" y="1471" />
        <pt on="0" x="1377" y="1471" />
        <pt on="1" x="1399" y="1440" />
        <pt on="0" x="1421" y="1410" />
        <pt on="1" x="1421" y="1347" />
        <pt on="0" x="1421" y="1194" />
        <pt on="1" x="1280" y="758" />
        <pt on="0" x="1244" y="650" />
        <pt on="1" x="1234" y="615" />
        <pt on="1" x="1175" y="431" />
        <pt on="0" x="1199" y="433" />
        <pt on="1" x="1230" y="433" />
        <pt on="0" x="1310" y="434" />
        <pt on="1" x="1338" y="437" />
        <pt on="1" x="1335" y="405" />
        <pt on="0" x="1256" y="398" />
        <pt on="1" x="1230" y="397" />
        <pt on="0" x="1198" y="395" />
        <pt on="1" x="1163" y="394" />
        <pt on="1" x="1033" y="1" />
        <pt on="1" x="894" y="1" />
        <pt on="0" x="824" y="176" />
        <pt on="1" x="750" y="285" />
        <pt on="0" x="675" y="395" />
        <pt on="1" x="591" y="443" />
        <pt on="0" x="407" y="226" />
        <pt on="0" x="-105" y="-137" />
        <pt on="1" x="-405" y="-137" />
        <pt on="0" x="-465" y="-137" />
        <pt on="1" x="-517" y="-130" />
        <pt on="0" x="-567" y="-123" />
        <pt on="1" x="-633" y="-107" />
      </contour>
      <contour>
        <pt on="1" x="1364" y="1559" />
        <pt on="0" x="1357" y="1559" />
        <pt on="1" x="1353" y="1563" />
        <pt on="0" x="1350" y="1566" />
        <pt on="1" x="1350" y="1572" />
        <pt on="0" x="1350" y="1573" />
        <pt on="1" x="1402" y="1605" />
        <pt on="0" x="1455" y="1636" />
        <pt on="1" x="1478" y="1678" />
        <pt on="0" x="1492" y="1701" />
        <pt on="1" x="1504" y="1746" />
        <pt on="0" x="1525" y="1811" />
        <pt on="1" x="1561" y="1811" />
        <pt on="0" x="1580" y="1811" />
        <pt on="1" x="1593" y="1798" />
        <pt on="0" x="1606" y="1783" />
        <pt on="1" x="1606" y="1762" />
        <pt on="0" x="1606" y="1740" />
        <pt on="1" x="1587" y="1712" />
        <pt on="0" x="1565" y="1682" />
        <pt on="1" x="1527" y="1651" />
        <pt on="0" x="1482" y="1612" />
        <pt on="1" x="1432" y="1586" />
        <pt on="0" x="1381" y="1559" />
      </contour>
    </TTGlyph>
    <TTGlyph name="Acircumflex" xMax="1565" xMin="-633" yMax="1793" yMin="-137">
      <contour>
        <pt on="1" x="438" y="1009" />
        <pt on="0" x="430" y="1075" />
        <pt on="0" x="505" y="1188" />
        <pt on="1" x="582" y="1211" />
        <pt on="0" x="657" y="1229" />
        <pt on="0" x="802" y="1172" />
        <pt on="1" x="825" y="1101" />
        <pt on="0" x="829" y="1090" />
        <pt on="0" x="866" y="1046" />
        <pt on="1" x="821" y="967" />
        <pt on="0" x="775" y="888" />
        <pt on="0" x="580" y="640" />
        <pt on="1" x="564" y="520" />
        <pt on="0" x="499" y="619" />
        <pt on="0" x="214" y="740" />
        <pt on="1" x="139" y="788" />
        <pt on="0" x="63" y="836" />
        <pt on="0" x="69" y="883" />
        <pt on="1" x="63" y="899" />
        <pt on="0" x="46" y="971" />
        <pt on="0" x="138" y="1094" />
        <pt on="1" x="213" y="1115" />
        <pt on="0" x="290" y="1133" />
        <pt on="0" x="411" y="1070" />
      </contour>
      <contour>
        <pt on="1" x="552" y="1459" />
        <pt on="0" x="602" y="1539" />
        <pt on="1" x="696" y="1502" />
        <pt on="0" x="739" y="1482" />
        <pt on="0" x="787" y="1401" />
        <pt on="1" x="772" y="1359" />
        <pt on="0" x="770" y="1353" />
        <pt on="0" x="772" y="1318" />
        <pt on="1" x="721" y="1297" />
        <pt on="0" x="669" y="1276" />
        <pt on="0" x="483" y="1229" />
        <pt on="1" x="432" y="1178" />
        <pt on="0" x="438" y="1249" />
        <pt on="0" x="345" y="1413" />
        <pt on="1" x="327" y="1464" />
        <pt on="0" x="308" y="1515" />
        <pt on="0" x="329" y="1535" />
        <pt on="1" x="332" y="1545" />
        <pt on="0" x="350" y="1586" />
        <pt on="0" x="440" y="1610" />
        <pt on="1" x="484" y="1593" />
        <pt on="0" x="576" y="1549" />
      </contour>
      <contour>
        <pt on="1" x="1033" y="427" />
        <pt on="1" x="1232" y="1054" />
        <pt on="0" x="1265" y="1161" />
        <pt on="1" x="1290" y="1261" />
        <pt on="0" x="1312" y="1351" />
        <pt on="1" x="1312" y="1381" />
        <pt on="0" x="1312" y="1399" />
        <pt on="1" x="1306" y="1408" />
        <pt on="0" x="1300" y="1418" />
        <pt on="1" x="1289" y="1418" />
        <pt on="0" x="1271" y="1418" />
        <pt on="1" x="1245" y="1392" />
        <pt on="0" x="1215" y="1362" />
        <pt on="1" x="1177" y="1304" />
        <pt on="1" x="814" y="757" />
        <pt on="0" x="783" y="710" />
        <pt on="0" x="725" y="627" />
        <pt on="1" x="701" y="591" />
        <pt on="0" x="675" y="555" />
        <pt on="0" x="630" y="493" />
        <pt on="1" x="612" y="468" />
        <pt on="0" x="669" y="446" />
        <pt on="1" x="771" y="437" />
        <pt on="0" x="879" y="427" />
        <pt on="1" x="1033" y="427" />
      </contour>
      <contour>
        <pt on="1" x="1021" y="392" />
        <pt on="0" x="924" y="393" />
        <pt on="1" x="830" y="400" />
        <pt on="0" x="749" y="405" />
        <pt on="1" x="679" y="417" />
        <pt on="0" x="745" y="343" />
        <pt on="1" x="801" y="254" />
        <pt on="0" x="858" y="163" />
        <pt on="1" x="909" y="46" />
      </contour>
      <contour>
        <pt on="1" x="-633" y="-106" />
        <pt on="1" x="-565" y="-31" />
        <pt on="0" x="-485" y="-56" />
        <pt on="1" x="-427" y="-66" />
        <pt on="0" x="-364" y="-78" />
        <pt on="1" x="-313" y="-78" />
        <pt on="0" x="-162" y="-78" />
        <pt on="0" x="162" y="103" />
        <pt on="0" x="461" y="367" />
        <pt on="0" x="711" y="663" />
        <pt on="1" x="788" y="777" />
        <pt on="1" x="1109" y="1256" />
        <pt on="0" x="1202" y="1396" />
        <pt on="1" x="1246" y="1434" />
        <pt on="0" x="1289" y="1471" />
        <pt on="1" x="1335" y="1471" />
        <pt on="0" x="1377" y="1471" />
        <pt on="1" x="1399" y="1440" />
        <pt on="0" x="1421" y="1410" />
        <pt on="1" x="1421" y="1347" />
        <pt on="0" x="1421" y="1194" />
        <pt on="1" x="1280" y="758" />
        <pt on="0" x="1244" y="650" />
        <pt on="1" x="1234" y="615" />
        <pt on="1" x="1175" y="431" />
        <pt on="0" x="1199" y="433" />
        <pt on="1" x="1230" y="433" />
        <pt on="0" x="1310" y="434" />
        <pt on="1" x="1338" y="437" />
        <pt on="1" x="1335" y="405" />
        <pt on="0" x="1256" y="398" />
        <pt on="1" x="1230" y="397" />
        <pt on="0" x="1198" y="395" />
        <pt on="1" x="1163" y="394" />
        <pt on="1" x="1033" y="1" />
        <pt on="1" x="894" y="1" />
        <pt on="0" x="824" y="176" />
        <pt on="1" x="750" y="285" />
        <pt on="0" x="675" y="395" />
        <pt on="1" x="591" y="443" />
        <pt on="0" x="407" y="226" />
        <pt on="0" x="-105" y="-137" />
        <pt on="1" x="-405" y="-137" />
        <pt on="0" x="-465" y="-137" />
        <pt on="1" x="-517" y="-130" />
        <pt on="0" x="-567" y="-123" />
        <pt on="1" x="-633" y="-107" />
      </contour>
      <contour>
        <pt on="1" x="1432" y="1793" />
        <pt on="1" x="1462" y="1793" />
        <pt on="0" x="1485" y="1710" />
        <pt on="1" x="1525" y="1637" />
        <pt on="0" x="1565" y="1560" />
        <pt on="1" x="1565" y="1558" />
        <pt on="0" x="1564" y="1555" />
        <pt on="0" x="1563" y="1552" />
        <pt on="1" x="1563" y="1552" />
        <pt on="0" x="1562" y="1552" />
        <pt on="0" x="1557" y="1551" />
        <pt on="1" x="1554" y="1551" />
        <pt on="0" x="1541" y="1551" />
        <pt on="1" x="1505" y="1589" />
        <pt on="0" x="1468" y="1627" />
        <pt on="1" x="1432" y="1683" />
        <pt on="0" x="1366" y="1623" />
        <pt on="1" x="1308" y="1588" />
        <pt on="0" x="1248" y="1551" />
        <pt on="1" x="1224" y="1551" />
        <pt on="0" x="1219" y="1551" />
        <pt on="1" x="1215" y="1553" />
        <pt on="0" x="1212" y="1556" />
        <pt on="1" x="1212" y="1561" />
        <pt on="0" x="1212" y="1564" />
        <pt on="1" x="1290" y="1636" />
        <pt on="0" x="1370" y="1710" />
      </contour>
    </TTGlyph>
    <TTGlyph name="Adieresis" xMax="1541" xMin="-633" yMax="1681" yMin="-137">
      <contour>
        <pt on="1" x="438" y="1009" />
        <pt on="0" x="430" y="1075" />
        <pt on="0" x="505" y="1188" />
        <pt on="1" x="582" y="1211" />
        <pt on="0" x="657" y="1229" />
        <pt on="0" x="802" y="1172" />
        <pt on="1" x="825" y="1101" />
        <pt on="0" x="829" y="1090" />
        <pt on="0" x="866" y="1046" />
        <pt on="1" x="821" y="967" />
        <pt on="0" x="775" y="888" />
        <pt on="0" x="580" y="640" />
        <pt on="1" x="564" y="520" />
        <pt on="0" x="499" y="619" />
        <pt on="0" x="214" y="740" />
        <pt on="1" x="139" y="788" />
        <pt on="0" x="63" y="836" />
        <pt on="0" x="69" y="883" />
        <pt on="1" x="63" y="899" />
        <pt on="0" x="46" y="971" />
        <pt on="0" x="138" y="1094" />
        <pt on="1" x="213" y="1115" />
        <pt on="0" x="290" y="1133" />
        <pt on="0" x="411" y="1070" />
      </contour>
      <contour>
        <pt on="1" x="552" y="1459" />
        <pt on="0" x="602" y="1539" />
        <pt on="1" x="696" y="1502" />
        <pt on="0" x="739" y="1482" />
        <pt on="0" x="787" y="1401" />
        <pt on="1" x="772" y="1359" />
        <pt on="0" x="770" y="1353" />
        <pt on="0" x="772" y="1318" />
        <pt on="1" x="721" y="1297" />
        <pt on="0" x="669" y="1276" />
        <pt on="0" x="483" y="1229" />
        <pt on="1" x="432" y="1178" />
        <pt on="0" x="438" y="1249" />
        <pt on="0" x="345" y="1413" />
        <pt on="1" x="327" y="1464" />
        <pt on="0" x="308" y="1515" />
        <pt on="0" x="329" y="1535" />
        <pt on="1" x="332" y="1545" />
        <pt on="0" x="350" y="1586" />
        <pt on="0" x="440" y="1610" />
        <pt on="1" x="484" y="1593" />
        <pt on="0" x="576" y="1549" />
      </contour>
      <contour>
        <pt on="1" x="1033" y="427" />
        <pt on="1" x="1232" y="1054" />
        <pt on="0" x="1265" y="1161" />
        <pt on="1" x="1290" y="1261" />
        <pt on="0" x="1312" y="1351" />
        <pt on="1" x="1312" y="1381" />
        <pt on="0" x="1312" y="1399" />
        <pt on="1" x="1306" y="1408" />
        <pt on="0" x="1300" y="1418" />
        <pt on="1" x="1289" y="1418" />
        <pt on="0" x="1271" y="1418" />
        <pt on="1" x="1245" y="1392" />
        <pt on="0" x="1215" y="1362" />
        <pt on="1" x="1177" y="1304" />
        <pt on="1" x="814" y="757" />
        <pt on="0" x="783" y="710" />
        <pt on="0" x="725" y="627" />
        <pt on="1" x="701" y="591" />
        <pt on="0" x="675" y="555" />
        <pt on="0" x="630" y="493" />
        <pt on="1" x="612" y="468" />
        <pt on="0" x="669" y="446" />
        <pt on="1" x="771" y="437" />
        <pt on="0" x="879" y="427" />
        <pt on="1" x="1033" y="427" />
      </contour>
      <contour>
        <pt on="1" x="1021" y="392" />
        <pt on="0" x="924" y="393" />
        <pt on="1" x="830" y="400" />
        <pt on="0" x="749" y="405" />
        <pt on="1" x="679" y="417" />
        <pt on="0" x="745" y="343" />
        <pt on="1" x="801" y="254" />
        <pt on="0" x="858" y="163" />
        <pt on="1" x="909" y="46" />
      </contour>
      <contour>
        <pt on="1" x="-633" y="-106" />
        <pt on="1" x="-565" y="-31" />
        <pt on="0" x="-485" y="-56" />
        <pt on="1" x="-427" y="-66" />
        <pt on="0" x="-364" y="-78" />
        <pt on="1" x="-313" y="-78" />
        <pt on="0" x="-162" y="-78" />
        <pt on="0" x="162" y="103" />
        <pt on="0" x="461" y="367" />
        <pt on="0" x="711" y="663" />
        <pt on="1" x="788" y="777" />
        <pt on="1" x="1109" y="1256" />
        <pt on="0" x="1202" y="1396" />
        <pt on="1" x="1246" y="1434" />
        <pt on="0" x="1289" y="1471" />
        <pt on="1" x="1335" y="1471" />
        <pt on="0" x="1377" y="1471" />
        <pt on="1" x="1399" y="1440" />
        <pt on="0" x="1421" y="1410" />
        <pt on="1" x="1421" y="1347" />
        <pt on="0" x="1421" y="1194" />
        <pt on="1" x="1280" y="758" />
        <pt on="0" x="1244" y="650" />
        <pt on="1" x="1234" y="615" />
        <pt on="1" x="1175" y="431" />
        <pt on="0" x="1199" y="433" />
        <pt on="1" x="1230" y="433" />
        <pt on="0" x="1310" y="434" />
        <pt on="1" x="1338" y="437" />
        <pt on="1" x="1335" y="405" />
        <pt on="0" x="1256" y="398" />
        <pt on="1" x="1230" y="397" />
        <pt on="0" x="1198" y="395" />
        <pt on="1" x="1163" y="394" />
        <pt on="1" x="1033" y="1" />
        <pt on="1" x="894" y="1" />
        <pt on="0" x="824" y="176" />
        <pt on="1" x="750" y="285" />
        <pt on="0" x="675" y="395" />
        <pt on="1" x="591" y="443" />
        <pt on="0" x="407" y="226" />
        <pt on="0" x="-105" y="-137" />
        <pt on="1" x="-405" y="-137" />
        <pt on="0" x="-465" y="-137" />
        <pt on="1" x="-517" y="-130" />
        <pt on="0" x="-567" y="-123" />
        <pt on="1" x="-633" y="-107" />
      </contour>
      <contour>
        <pt on="1" x="1186" y="1624" />
        <pt on="0" x="1186" y="1648" />
        <pt on="1" x="1202" y="1664" />
        <pt on="0" x="1217" y="1681" />
        <pt on="1" x="1240" y="1681" />
        <pt on="0" x="1263" y="1681" />
        <pt on="1" x="1280" y="1664" />
        <pt on="0" x="1297" y="1647" />
        <pt on="1" x="1297" y="1624" />
        <pt on="0" x="1297" y="1602" />
        <pt on="1" x="1281" y="1586" />
        <pt on="0" x="1265" y="1570" />
        <pt on="1" x="1240" y="1570" />
        <pt on="0" x="1216" y="1570" />
        <pt on="1" x="1202" y="1586" />
        <pt on="0" x="1186" y="1600" />
      </contour>
      <contour>
        <pt on="1" x="1430" y="1625" />
        <pt on="0" x="1430" y="1646" />
        <pt on="1" x="1446" y="1664" />
        <pt on="0" x="1463" y="1681" />
        <pt on="1" x="1486" y="1681" />
        <pt on="0" x="1509" y="1681" />
        <pt on="1" x="1525" y="1665" />
        <pt on="0" x="1541" y="1649" />
        <pt on="1" x="1541" y="1625" />
        <pt on="0" x="1541" y="1600" />
        <pt on="1" x="1525" y="1586" />
        <pt on="0" x="1510" y="1570" />
        <pt on="1" x="1486" y="1570" />
        <pt on="0" x="1462" y="1570" />
        <pt on="1" x="1446" y="1586" />
        <pt on="0" x="1430" y="1602" />
      </contour>
    </TTGlyph>
    <TTGlyph name="Agrave" xMax="1438" xMin="-633" yMax="1799" yMin="-137">
      <contour>
        <pt on="1" x="438" y="1009" />
        <pt on="0" x="430" y="1075" />
        <pt on="0" x="505" y="1188" />
        <pt on="1" x="582" y="1211" />
        <pt on="0" x="657" y="1229" />
        <pt on="0" x="802" y="1172" />
        <pt on="1" x="825" y="1101" />
        <pt on="0" x="829" y="1090" />
        <pt on="0" x="866" y="1046" />
        <pt on="1" x="821" y="967" />
        <pt on="0" x="775" y="888" />
        <pt on="0" x="580" y="640" />
        <pt on="1" x="564" y="520" />
        <pt on="0" x="499" y="619" />
        <pt on="0" x="214" y="740" />
        <pt on="1" x="139" y="788" />
        <pt on="0" x="63" y="836" />
        <pt on="0" x="69" y="883" />
        <pt on="1" x="63" y="899" />
        <pt on="0" x="46" y="971" />
        <pt on="0" x="138" y="1094" />
        <pt on="1" x="213" y="1115" />
        <pt on="0" x="290" y="1133" />
        <pt on="0" x="411" y="1070" />
      </contour>
      <contour>
        <pt on="1" x="552" y="1459" />
        <pt on="0" x="602" y="1539" />
        <pt on="1" x="696" y="1502" />
        <pt on="0" x="739" y="1482" />
        <pt on="0" x="787" y="1401" />
        <pt on="1" x="772" y="1359" />
        <pt on="0" x="770" y="1353" />
        <pt on="0" x="772" y="1318" />
        <pt on="1" x="721" y="1297" />
        <pt on="0" x="669" y="1276" />
        <pt on="0" x="483" y="1229" />
        <pt on="1" x="432" y="1178" />
        <pt on="0" x="438" y="1249" />
        <pt on="0" x="345" y="1413" />
        <pt on="1" x="327" y="1464" />
        <pt on="0" x="308" y="1515" />
        <pt on="0" x="329" y="1535" />
        <pt on="1" x="332" y="1545" />
        <pt on="0" x="350" y="1586" />
        <pt on="0" x="440" y="1610" />
        <pt on="1" x="484" y="1593" />
        <pt on="0" x="576" y="1549" />
      </contour>
      <contour>
        <pt on="1" x="1033" y="427" />
        <pt on="1" x="1232" y="1054" />
        <pt on="0" x="1265" y="1161" />
        <pt on="1" x="1290" y="1261" />
        <pt on="0" x="1312" y="1351" />
        <pt on="1" x="1312" y="1381" />
        <pt on="0" x="1312" y="1399" />
        <pt on="1" x="1306" y="1408" />
        <pt on="0" x="1300" y="1418" />
        <pt on="1" x="1289" y="1418" />
        <pt on="0" x="1271" y="1418" />
        <pt on="1" x="1245" y="1392" />
        <pt on="0" x="1215" y="1362" />
        <pt on="1" x="1177" y="1304" />
        <pt on="1" x="814" y="757" />
        <pt on="0" x="783" y="710" />
        <pt on="0" x="725" y="627" />
        <pt on="1" x="701" y="591" />
        <pt on="0" x="675" y="555" />
        <pt on="0" x="630" y="493" />
        <pt on="1" x="612" y="468" />
        <pt on="0" x="669" y="446" />
        <pt on="1" x="771" y="437" />
        <pt on="0" x="879" y="427" />
        <pt on="1" x="1033" y="427" />
      </contour>
      <contour>
        <pt on="1" x="1021" y="392" />
        <pt on="0" x="924" y="393" />
        <pt on="1" x="830" y="400" />
        <pt on="0" x="749" y="405" />
        <pt on="1" x="679" y="417" />
        <pt on="0" x="745" y="343" />
        <pt on="1" x="801" y="254" />
        <pt on="0" x="858" y="163" />
        <pt on="1" x="909" y="46" />
      </contour>
      <contour>
        <pt on="1" x="-633" y="-106" />
        <pt on="1" x="-565" y="-31" />
        <pt on="0" x="-485" y="-56" />
        <pt on="1" x="-427" y="-66" />
        <pt on="0" x="-364" y="-78" />
        <pt on="1" x="-313" y="-78" />
        <pt on="0" x="-162" y="-78" />
        <pt on="0" x="162" y="103" />
        <pt on="0" x="461" y="367" />
        <pt on="0" x="711" y="663" />
        <pt on="1" x="788" y="777" />
        <pt on="1" x="1109" y="1256" />
        <pt on="0" x="1202" y="1396" />
        <pt on="1" x="1246" y="1434" />
        <pt on="0" x="1289" y="1471" />
        <pt on="1" x="1335" y="1471" />
        <pt on="0" x="1377" y="1471" />
        <pt on="1" x="1399" y="1440" />
        <pt on="0" x="1421" y="1410" />
        <pt on="1" x="1421" y="1347" />
        <pt on="0" x="1421" y="1194" />
        <pt on="1" x="1280" y="758" />
        <pt on="0" x="1244" y="650" />
        <pt on="1" x="1234" y="615" />
        <pt on="1" x="1175" y="431" />
        <pt on="0" x="1199" y="433" />
        <pt on="1" x="1230" y="433" />
        <pt on="0" x="1310" y="434" />
        <pt on="1" x="1338" y="437" />
        <pt on="1" x="1335" y="405" />
        <pt on="0" x="1256" y="398" />
        <pt on="1" x="1230" y="397" />
        <pt on="0" x="1198" y="395" />
        <pt on="1" x="1163" y="394" />
        <pt on="1" x="1033" y="1" />
        <pt on="1" x="894" y="1" />
        <pt on="0" x="824" y="176" />
        <pt on="1" x="750" y="285" />
        <pt on="0" x="675" y="395" />
        <pt on="1" x="591" y="443" />
        <pt on="0" x="407" y="226" />
        <pt on="0" x="-105" y="-137" />
        <pt on="1" x="-405" y="-137" />
        <pt on="0" x="-465" y="-137" />
        <pt on="1" x="-517" y="-130" />
        <pt on="0" x="-567" y="-123" />
        <pt on="1" x="-633" y="-107" />
      </contour>
      <contour>
        <pt on="1" x="1423" y="1543" />
        <pt on="0" x="1407" y="1543" />
        <pt on="1" x="1374" y="1565" />
        <pt on="0" x="1339" y="1588" />
        <pt on="1" x="1300" y="1624" />
        <pt on="0" x="1256" y="1663" />
        <pt on="1" x="1235" y="1695" />
        <pt on="0" x="1212" y="1728" />
        <pt on="1" x="1212" y="1749" />
        <pt on="0" x="1212" y="1773" />
        <pt on="1" x="1224" y="1785" />
        <pt on="0" x="1236" y="1799" />
        <pt on="1" x="1257" y="1799" />
        <pt on="0" x="1296" y="1799" />
        <pt on="1" x="1316" y="1718" />
        <pt on="0" x="1325" y="1679" />
        <pt on="1" x="1329" y="1667" />
        <pt on="0" x="1341" y="1627" />
        <pt on="1" x="1389" y="1593" />
        <pt on="0" x="1438" y="1557" />
        <pt on="1" x="1438" y="1553" />
        <pt on="0" x="1438" y="1550" />
        <pt on="1" x="1434" y="1546" />
        <pt on="0" x="1429" y="1543" />
      </contour>
    </TTGlyph>
    <TTGlyph name="Aring" xMax="1585" xMin="-502" yMax="1890" yMin="-8">
      <contour>
        <pt on="1" x="1274" y="1710" />
        <pt on="0" x="1274" y="1655" />
        <pt on="0" x="1348" y="1581" />
        <pt on="1" x="1405" y="1581" />
        <pt on="0" x="1461" y="1581" />
        <pt on="0" x="1536" y="1655" />
        <pt on="1" x="1536" y="1710" />
        <pt on="0" x="1536" y="1765" />
        <pt on="0" x="1460" y="1841" />
        <pt on="1" x="1405" y="1841" />
        <pt on="0" x="1350" y="1841" />
        <pt on="0" x="1274" y="1765" />
      </contour>
      <contour>
        <pt on="1" x="1225" y="1710" />
        <pt on="0" x="1225" y="1785" />
        <pt on="0" x="1330" y="1890" />
        <pt on="1" x="1405" y="1890" />
        <pt on="0" x="1480" y="1890" />
        <pt on="0" x="1585" y="1785" />
        <pt on="1" x="1585" y="1710" />
        <pt on="0" x="1585" y="1635" />
        <pt on="0" x="1480" y="1530" />
        <pt on="1" x="1405" y="1530" />
        <pt on="0" x="1330" y="1530" />
        <pt on="0" x="1225" y="1635" />
      </contour>
      <contour>
        <pt on="1" x="1001" y="426" />
        <pt on="1" x="1200" y="1053" />
        <pt on="0" x="1240" y="1180" />
        <pt on="0" x="1278" y="1344" />
        <pt on="1" x="1278" y="1389" />
        <pt on="0" x="1278" y="1402" />
        <pt on="0" x="1267" y="1417" />
        <pt on="1" x="1257" y="1417" />
        <pt on="0" x="1239" y="1417" />
        <pt on="0" x="1186" y="1364" />
        <pt on="1" x="1145" y="1303" />
        <pt on="1" x="782" y="755" />
        <pt on="0" x="780" y="752" />
        <pt on="1" x="774" y="742" />
        <pt on="0" x="688" y="611" />
        <pt on="1" x="580" y="467" />
        <pt on="0" x="641" y="445" />
        <pt on="0" x="838" y="426" />
      </contour>
      <contour>
        <pt on="1" x="989" y="391" />
        <pt on="0" x="937" y="393" />
        <pt on="0" x="818" y="399" />
        <pt on="1" x="811" y="399" />
        <pt on="0" x="794" y="399" />
        <pt on="0" x="704" y="408" />
        <pt on="1" x="647" y="416" />
        <pt on="0" x="708" y="352" />
        <pt on="0" x="822" y="168" />
        <pt on="1" x="877" y="47" />
      </contour>
      <contour>
        <pt on="1" x="-502" y="23" />
        <pt on="1" x="-434" y="98" />
        <pt on="0" x="-358" y="75" />
        <pt on="0" x="-233" y="51" />
        <pt on="1" x="-182" y="51" />
        <pt on="0" x="47" y="51" />
        <pt on="0" x="509" y="408" />
        <pt on="1" x="756" y="776" />
        <pt on="1" x="1077" y="1255" />
        <pt on="0" x="1171" y="1395" />
        <pt on="0" x="1257" y="1470" />
        <pt on="1" x="1303" y="1470" />
        <pt on="0" x="1345" y="1470" />
        <pt on="0" x="1389" y="1407" />
        <pt on="1" x="1389" y="1346" />
        <pt on="0" x="1389" y="1197" />
        <pt on="1" x="1224" y="684" />
        <pt on="1" x="1202" y="614" />
        <pt on="1" x="1143" y="430" />
        <pt on="0" x="1162" y="431" />
        <pt on="1" x="1198" y="432" />
        <pt on="0" x="1270" y="433" />
        <pt on="1" x="1306" y="436" />
        <pt on="1" x="1303" y="404" />
        <pt on="0" x="1234" y="398" />
        <pt on="0" x="1162" y="394" />
        <pt on="1" x="1131" y="393" />
        <pt on="1" x="1001" y="0" />
        <pt on="1" x="862" y="0" />
        <pt on="0" x="793" y="174" />
        <pt on="0" x="642" y="395" />
        <pt on="1" x="559" y="442" />
        <pt on="0" x="363" y="208" />
        <pt on="0" x="-38" y="-8" />
        <pt on="1" x="-274" y="-8" />
        <pt on="0" x="-330" y="-8" />
        <pt on="0" x="-443" y="7" />
      </contour>
    </TTGlyph>
    <TTGlyph name="B" xMax="1330" xMin="-151" yMax="1719" yMin="-12">
      <contour>
        <pt on="1" x="362" y="976" />
        <pt on="0" x="249" y="878" />
        <pt on="1" x="159" y="760" />
        <pt on="0" x="64" y="633" />
        <pt on="1" x="5" y="505" />
        <pt on="0" x="-56" y="372" />
        <pt on="1" x="-91" y="262" />
        <pt on="0" x="-123" y="152" />
        <pt on="1" x="-123" y="77" />
        <pt on="0" x="-123" y="67" />
        <pt on="1" x="-119" y="57" />
        <pt on="0" x="-113" y="50" />
        <pt on="1" x="-106" y="50" />
        <pt on="0" x="-51" y="50" />
        <pt on="1" x="84" y="314" />
        <pt on="0" x="221" y="579" />
        <pt on="1" x="362" y="976" />
      </contour>
      <contour>
        <pt on="1" x="143" y="7" />
        <pt on="1" x="268" y="128" />
        <pt on="0" x="363" y="105" />
        <pt on="1" x="441" y="95" />
        <pt on="0" x="517" y="83" />
        <pt on="1" x="573" y="83" />
        <pt on="0" x="720" y="83" />
        <pt on="1" x="807" y="143" />
        <pt on="0" x="894" y="203" />
        <pt on="1" x="894" y="302" />
        <pt on="0" x="894" y="355" />
        <pt on="1" x="863" y="402" />
        <pt on="0" x="831" y="446" />
        <pt on="1" x="769" y="482" />
        <pt on="1" x="644" y="552" />
        <pt on="0" x="617" y="566" />
        <pt on="1" x="601" y="588" />
        <pt on="0" x="585" y="610" />
        <pt on="1" x="585" y="628" />
        <pt on="0" x="585" y="669" />
        <pt on="1" x="710" y="743" />
        <pt on="0" x="834" y="816" />
        <pt on="1" x="913" y="880" />
        <pt on="0" x="1036" y="977" />
        <pt on="1" x="1101" y="1082" />
        <pt on="0" x="1165" y="1187" />
        <pt on="1" x="1165" y="1283" />
        <pt on="0" x="1165" y="1343" />
        <pt on="1" x="1130" y="1378" />
        <pt on="0" x="1096" y="1412" />
        <pt on="1" x="1033" y="1412" />
        <pt on="0" x="952" y="1412" />
        <pt on="1" x="829" y="1343" />
        <pt on="0" x="703" y="1270" />
        <pt on="1" x="571" y="1148" />
        <pt on="0" x="404" y="629" />
        <pt on="1" x="213" y="311" />
        <pt on="0" x="21" y="-12" />
        <pt on="1" x="-104" y="-12" />
        <pt on="0" x="-126" y="-12" />
        <pt on="1" x="-139" y="20" />
        <pt on="0" x="-151" y="53" />
        <pt on="1" x="-151" y="114" />
        <pt on="0" x="-151" y="313" />
        <pt on="1" x="-11" y="557" />
        <pt on="0" x="129" y="801" />
        <pt on="1" x="390" y="1050" />
        <pt on="1" x="501" y="1414" />
        <pt on="1" x="667" y="1465" />
        <pt on="1" x="589" y="1207" />
        <pt on="0" x="738" y="1336" />
        <pt on="1" x="873" y="1404" />
        <pt on="0" x="1008" y="1471" />
        <pt on="1" x="1122" y="1471" />
        <pt on="0" x="1218" y="1471" />
        <pt on="1" x="1274" y="1422" />
        <pt on="0" x="1330" y="1372" />
        <pt on="1" x="1330" y="1285" />
        <pt on="0" x="1330" y="1192" />
        <pt on="1" x="1271" y="1103" />
        <pt on="0" x="1211" y="1009" />
        <pt on="1" x="1101" y="929" />
        <pt on="0" x="983" y="839" />
        <pt on="1" x="847" y="774" />
        <pt on="0" x="710" y="706" />
        <pt on="1" x="710" y="691" />
        <pt on="0" x="710" y="674" />
        <pt on="1" x="763" y="650" />
        <pt on="0" x="815" y="626" />
        <pt on="1" x="851" y="605" />
        <pt on="0" x="928" y="556" />
        <pt on="1" x="960" y="507" />
        <pt on="0" x="993" y="456" />
        <pt on="1" x="993" y="386" />
        <pt on="0" x="993" y="210" />
        <pt on="1" x="810" y="105" />
        <pt on="0" x="629" y="0" />
        <pt on="1" x="313" y="0" />
        <pt on="0" x="253" y="0" />
        <pt on="1" x="225" y="1" />
        <pt on="0" x="203" y="1" />
        <pt on="0" x="162" y="5" />
        <pt on="1" x="143" y="7" />
      </contour>
      <contour>
        <pt on="1" x="565" y="405" />
        <pt on="0" x="613" y="485" />
        <pt on="1" x="709" y="449" />
        <pt on="0" x="751" y="429" />
        <pt on="0" x="800" y="348" />
        <pt on="1" x="785" y="306" />
        <pt on="0" x="782" y="299" />
        <pt on="0" x="763" y="255" />
        <pt on="1" x="733" y="243" />
        <pt on="0" x="661" y="213" />
        <pt on="0" x="496" y="175" />
        <pt on="1" x="444" y="124" />
        <pt on="0" x="450" y="195" />
        <pt on="0" x="366" y="338" />
        <pt on="1" x="340" y="410" />
        <pt on="0" x="328" y="440" />
        <pt on="0" x="341" y="481" />
        <pt on="1" x="344" y="491" />
        <pt on="0" x="362" y="532" />
        <pt on="0" x="452" y="557" />
        <pt on="1" x="496" y="539" />
        <pt on="0" x="587" y="497" />
      </contour>
      <contour>
        <pt on="1" x="343" y="1597" />
        <pt on="0" x="334" y="1683" />
        <pt on="1" x="424" y="1709" />
        <pt on="0" x="466" y="1719" />
        <pt on="0" x="547" y="1687" />
        <pt on="1" x="560" y="1648" />
        <pt on="0" x="562" y="1642" />
        <pt on="0" x="572" y="1599" />
        <pt on="1" x="557" y="1573" />
        <pt on="0" x="521" y="1510" />
        <pt on="0" x="423" y="1390" />
        <pt on="1" x="414" y="1324" />
        <pt on="0" x="378" y="1379" />
        <pt on="0" x="236" y="1436" />
        <pt on="1" x="177" y="1473" />
        <pt on="0" x="151" y="1488" />
        <pt on="0" x="137" y="1526" />
        <pt on="1" x="134" y="1535" />
        <pt on="0" x="125" y="1575" />
        <pt on="0" x="176" y="1644" />
        <pt on="1" x="218" y="1656" />
        <pt on="0" x="309" y="1676" />
      </contour>
    </TTGlyph>
    <TTGlyph name="C" xMax="1199" xMin="-53" yMax="1500" yMin="-18">
      <contour>
        <pt on="1" x="921" y="179" />
        <pt on="1" x="921" y="142" />
        <pt on="0" x="774" y="63" />
        <pt on="1" x="639" y="20" />
        <pt on="0" x="509" y="-18" />
        <pt on="1" x="403" y="-18" />
        <pt on="0" x="180" y="-18" />
        <pt on="1" x="65" y="89" />
        <pt on="0" x="-53" y="197" />
        <pt on="1" x="-53" y="398" />
        <pt on="0" x="-53" y="604" />
        <pt on="1" x="54" y="811" />
        <pt on="0" x="162" y="1016" />
        <pt on="1" x="364" y="1193" />
        <pt on="0" x="533" y="1341" />
        <pt on="1" x="707" y="1420" />
        <pt on="0" x="883" y="1500" />
        <pt on="1" x="1038" y="1500" />
        <pt on="0" x="1111" y="1500" />
        <pt on="1" x="1156" y="1466" />
        <pt on="0" x="1199" y="1430" />
        <pt on="1" x="1199" y="1369" />
        <pt on="0" x="1199" y="1239" />
        <pt on="1" x="1077" y="1123" />
        <pt on="0" x="957" y="1006" />
        <pt on="1" x="741" y="929" />
        <pt on="1" x="773" y="1060" />
        <pt on="0" x="951" y="1132" />
        <pt on="1" x="1048" y="1217" />
        <pt on="0" x="1148" y="1304" />
        <pt on="1" x="1148" y="1385" />
        <pt on="0" x="1148" y="1424" />
        <pt on="1" x="1118" y="1447" />
        <pt on="0" x="1090" y="1469" />
        <pt on="1" x="1036" y="1469" />
        <pt on="0" x="937" y="1469" />
        <pt on="1" x="822" y="1418" />
        <pt on="0" x="707" y="1367" />
        <pt on="1" x="597" y="1275" />
        <pt on="0" x="378" y="1090" />
        <pt on="1" x="243" y="847" />
        <pt on="0" x="108" y="602" />
        <pt on="1" x="108" y="404" />
        <pt on="0" x="108" y="231" />
        <pt on="1" x="200" y="135" />
        <pt on="0" x="292" y="38" />
        <pt on="1" x="458" y="38" />
        <pt on="0" x="544" y="38" />
        <pt on="1" x="659" y="72" />
        <pt on="0" x="766" y="103" />
      </contour>
      <contour>
        <pt on="1" x="636" y="578" />
        <pt on="0" x="677" y="630" />
        <pt on="0" x="810" y="659" />
        <pt on="1" x="880" y="622" />
        <pt on="0" x="947" y="582" />
        <pt on="0" x="1011" y="440" />
        <pt on="1" x="978" y="374" />
        <pt on="0" x="974" y="363" />
        <pt on="0" x="934" y="296" />
        <pt on="1" x="882" y="281" />
        <pt on="0" x="758" y="245" />
        <pt on="0" x="481" y="214" />
        <pt on="1" x="386" y="139" />
        <pt on="0" x="409" y="255" />
        <pt on="0" x="298" y="504" />
        <pt on="1" x="268" y="627" />
        <pt on="0" x="255" y="678" />
        <pt on="0" x="284" y="744" />
        <pt on="1" x="290" y="760" />
        <pt on="0" x="329" y="823" />
        <pt on="0" x="480" y="846" />
        <pt on="1" x="549" y="810" />
        <pt on="0" x="616" y="769" />
        <pt on="0" x="660" y="640" />
      </contour>
    </TTGlyph>
    <TTGlyph name="Ccedilla" xMax="1199" xMin="-53" yMax="1500" yMin="-326">
      <contour>
        <pt on="1" x="150" y="-281" />
        <pt on="1" x="160" y="-258" />
        <pt on="0" x="226" y="-280" />
        <pt on="1" x="245" y="-285" />
        <pt on="0" x="280" y="-293" />
        <pt on="1" x="305" y="-293" />
        <pt on="0" x="359" y="-293" />
        <pt on="1" x="389" y="-269" />
        <pt on="0" x="418" y="-244" />
        <pt on="1" x="418" y="-201" />
        <pt on="0" x="418" y="-181" />
        <pt on="1" x="400" y="-168" />
        <pt on="0" x="381" y="-154" />
        <pt on="1" x="355" y="-154" />
        <pt on="0" x="345" y="-154" />
        <pt on="1" x="318" y="-160" />
        <pt on="0" x="314" y="-162" />
        <pt on="1" x="312" y="-162" />
        <pt on="1" x="296" y="-152" />
        <pt on="1" x="361" y="-35" />
        <pt on="1" x="387" y="-35" />
        <pt on="1" x="337" y="-127" />
        <pt on="0" x="355" y="-123" />
        <pt on="1" x="363" y="-122" />
        <pt on="0" x="369" y="-122" />
        <pt on="0" x="381" y="-121" />
        <pt on="1" x="387" y="-121" />
        <pt on="0" x="437" y="-121" />
        <pt on="1" x="465" y="-144" />
        <pt on="0" x="493" y="-168" />
        <pt on="1" x="493" y="-211" />
        <pt on="0" x="493" y="-261" />
        <pt on="1" x="445" y="-294" />
        <pt on="0" x="396" y="-326" />
        <pt on="1" x="321" y="-326" />
        <pt on="0" x="287" y="-326" />
        <pt on="1" x="243" y="-315" />
        <pt on="0" x="197" y="-303" />
        <pt on="1" x="151" y="-281" />
      </contour>
      <contour>
        <pt on="1" x="921" y="179" />
        <pt on="1" x="921" y="142" />
        <pt on="0" x="774" y="63" />
        <pt on="1" x="639" y="20" />
        <pt on="0" x="509" y="-18" />
        <pt on="1" x="403" y="-18" />
        <pt on="0" x="180" y="-18" />
        <pt on="1" x="65" y="89" />
        <pt on="0" x="-53" y="197" />
        <pt on="1" x="-53" y="398" />
        <pt on="0" x="-53" y="604" />
        <pt on="1" x="54" y="811" />
        <pt on="0" x="162" y="1016" />
        <pt on="1" x="364" y="1193" />
        <pt on="0" x="533" y="1341" />
        <pt on="1" x="707" y="1420" />
        <pt on="0" x="883" y="1500" />
        <pt on="1" x="1038" y="1500" />
        <pt on="0" x="1111" y="1500" />
        <pt on="1" x="1156" y="1466" />
        <pt on="0" x="1199" y="1430" />
        <pt on="1" x="1199" y="1369" />
        <pt on="0" x="1199" y="1239" />
        <pt on="1" x="1077" y="1123" />
        <pt on="0" x="957" y="1006" />
        <pt on="1" x="741" y="929" />
        <pt on="1" x="773" y="1060" />
        <pt on="0" x="951" y="1132" />
        <pt on="1" x="1048" y="1217" />
        <pt on="0" x="1148" y="1304" />
        <pt on="1" x="1148" y="1385" />
        <pt on="0" x="1148" y="1424" />
        <pt on="1" x="1118" y="1447" />
        <pt on="0" x="1090" y="1469" />
        <pt on="1" x="1036" y="1469" />
        <pt on="0" x="937" y="1469" />
        <pt on="1" x="822" y="1418" />
        <pt on="0" x="707" y="1367" />
        <pt on="1" x="597" y="1275" />
        <pt on="0" x="378" y="1090" />
        <pt on="1" x="243" y="847" />
        <pt on="0" x="108" y="602" />
        <pt on="1" x="108" y="404" />
        <pt on="0" x="108" y="231" />
        <pt on="1" x="200" y="135" />
        <pt on="0" x="292" y="38" />
        <pt on="1" x="458" y="38" />
        <pt on="0" x="544" y="38" />
        <pt on="1" x="659" y="72" />
        <pt on="0" x="766" y="103" />
      </contour>
      <contour>
        <pt on="1" x="488" y="529" />
        <pt on="0" x="430" y="639" />
        <pt on="1" x="536" y="720" />
        <pt on="0" x="587" y="755" />
        <pt on="0" x="710" y="754" />
        <pt on="1" x="748" y="709" />
        <pt on="0" x="754" y="703" />
        <pt on="0" x="789" y="652" />
        <pt on="1" x="783" y="610" />
        <pt on="0" x="768" y="508" />
        <pt on="0" x="700" y="297" />
        <pt on="1" x="723" y="204" />
        <pt on="0" x="647" y="259" />
        <pt on="0" x="430" y="260" />
        <pt on="1" x="332" y="279" />
        <pt on="0" x="290" y="286" />
        <pt on="0" x="252" y="329" />
        <pt on="1" x="243" y="338" />
        <pt on="0" x="209" y="387" />
        <pt on="0" x="242" y="504" />
        <pt on="1" x="291" y="542" />
        <pt on="0" x="400" y="616" />
      </contour>
    </TTGlyph>
    <TTGlyph name="D" xMax="1679" xMin="-65" yMax="1480" yMin="-31">
      <contour>
        <pt on="1" x="642" y="187" />
        <pt on="0" x="836" y="125" />
        <pt on="1" x="935" y="104" />
        <pt on="0" x="1034" y="82" />
        <pt on="1" x="1101" y="82" />
        <pt on="0" x="1283" y="82" />
        <pt on="1" x="1387" y="191" />
        <pt on="0" x="1490" y="299" />
        <pt on="1" x="1490" y="493" />
        <pt on="0" x="1490" y="687" />
        <pt on="1" x="1389" y="867" />
        <pt on="0" x="1286" y="1044" />
        <pt on="1" x="1093" y="1187" />
        <pt on="1" x="1068" y="1105" />
        <pt on="0" x="949" y="705" />
        <pt on="1" x="856" y="509" />
        <pt on="0" x="763" y="314" />
        <pt on="1" x="642" y="187" />
      </contour>
      <contour>
        <pt on="1" x="460" y="101" />
        <pt on="0" x="387" y="126" />
        <pt on="1" x="314" y="141" />
        <pt on="0" x="240" y="155" />
        <pt on="1" x="182" y="155" />
        <pt on="0" x="95" y="155" />
        <pt on="1" x="40" y="133" />
        <pt on="0" x="-12" y="110" />
        <pt on="1" x="-12" y="75" />
        <pt on="0" x="-12" y="42" />
        <pt on="1" x="37" y="23" />
        <pt on="0" x="87" y="2" />
        <pt on="1" x="169" y="3" />
        <pt on="0" x="249" y="3" />
        <pt on="1" x="321" y="27" />
        <pt on="0" x="396" y="53" />
      </contour>
      <contour>
        <pt on="1" x="524" y="79" />
        <pt on="0" x="441" y="24" />
        <pt on="1" x="356" y="-3" />
        <pt on="0" x="270" y="-31" />
        <pt on="1" x="182" y="-31" />
        <pt on="0" x="66" y="-31" />
        <pt on="1" x="0" y="3" />
        <pt on="0" x="-65" y="37" />
        <pt on="1" x="-65" y="99" />
        <pt on="0" x="-65" y="167" />
        <pt on="1" x="22" y="213" />
        <pt on="0" x="110" y="259" />
        <pt on="1" x="249" y="259" />
        <pt on="0" x="320" y="259" />
        <pt on="1" x="402" y="248" />
        <pt on="0" x="480" y="237" />
        <pt on="1" x="562" y="215" />
        <pt on="0" x="655" y="342" />
        <pt on="1" x="752" y="562" />
        <pt on="0" x="851" y="784" />
        <pt on="1" x="935" y="1060" />
        <pt on="1" x="995" y="1254" />
        <pt on="0" x="823" y="1352" />
        <pt on="1" x="692" y="1400" />
        <pt on="0" x="555" y="1447" />
        <pt on="1" x="448" y="1447" />
        <pt on="0" x="350" y="1447" />
        <pt on="1" x="296" y="1407" />
        <pt on="0" x="239" y="1366" />
        <pt on="1" x="239" y="1301" />
        <pt on="0" x="239" y="1229" />
        <pt on="1" x="306" y="1140" />
        <pt on="0" x="369" y="1052" />
        <pt on="1" x="507" y="945" />
        <pt on="1" x="380" y="904" />
        <pt on="0" x="270" y="1002" />
        <pt on="1" x="214" y="1093" />
        <pt on="0" x="159" y="1181" />
        <pt on="1" x="159" y="1256" />
        <pt on="0" x="159" y="1361" />
        <pt on="1" x="246" y="1420" />
        <pt on="0" x="331" y="1480" />
        <pt on="1" x="487" y="1480" />
        <pt on="0" x="596" y="1480" />
        <pt on="1" x="728" y="1441" />
        <pt on="0" x="861" y="1402" />
        <pt on="1" x="1011" y="1328" />
        <pt on="1" x="1038" y="1410" />
        <pt on="1" x="1160" y="1443" />
        <pt on="1" x="1117" y="1273" />
        <pt on="0" x="1350" y="1128" />
        <pt on="1" x="1475" y="950" />
        <pt on="0" x="1599" y="772" />
        <pt on="1" x="1599" y="581" />
        <pt on="0" x="1599" y="328" />
        <pt on="1" x="1415" y="161" />
        <pt on="0" x="1231" y="-8" />
        <pt on="1" x="954" y="-8" />
        <pt on="0" x="870" y="-8" />
        <pt on="1" x="756" y="13" />
        <pt on="0" x="658" y="32" />
      </contour>
      <contour>
        <pt on="1" x="339" y="728" />
        <pt on="0" x="413" y="849" />
        <pt on="1" x="557" y="794" />
        <pt on="0" x="622" y="764" />
        <pt on="0" x="695" y="641" />
        <pt on="1" x="672" y="577" />
        <pt on="0" x="669" y="567" />
        <pt on="0" x="639" y="501" />
        <pt on="1" x="594" y="483" />
        <pt on="0" x="484" y="438" />
        <pt on="0" x="235" y="381" />
        <pt on="1" x="157" y="303" />
        <pt on="0" x="166" y="411" />
        <pt on="0" x="39" y="627" />
        <pt on="1" x="0" y="735" />
        <pt on="0" x="-16" y="780" />
        <pt on="0" x="1" y="843" />
        <pt on="1" x="6" y="858" />
        <pt on="0" x="34" y="920" />
        <pt on="0" x="170" y="957" />
        <pt on="1" x="236" y="930" />
        <pt on="0" x="302" y="900" />
        <pt on="0" x="354" y="787" />
      </contour>
      <contour>
        <pt on="1" x="1454" y="1357" />
        <pt on="0" x="1450" y="1441" />
        <pt on="1" x="1542" y="1461" />
        <pt on="0" x="1584" y="1467" />
        <pt on="0" x="1661" y="1429" />
        <pt on="1" x="1671" y="1390" />
        <pt on="0" x="1672" y="1384" />
        <pt on="0" x="1679" y="1341" />
        <pt on="1" x="1663" y="1317" />
        <pt on="0" x="1622" y="1257" />
        <pt on="0" x="1515" y="1147" />
        <pt on="1" x="1501" y="1082" />
        <pt on="0" x="1470" y="1139" />
        <pt on="0" x="1335" y="1206" />
        <pt on="1" x="1280" y="1248" />
        <pt on="0" x="1256" y="1266" />
        <pt on="0" x="1245" y="1303" />
        <pt on="1" x="1242" y="1312" />
        <pt on="0" x="1236" y="1353" />
        <pt on="0" x="1293" y="1416" />
        <pt on="1" x="1335" y="1425" />
        <pt on="0" x="1425" y="1437" />
      </contour>
    </TTGlyph>
    <TTGlyph name="E" xMax="1195" xMin="-57" yMax="1488" yMin="-10">
      <contour>
        <pt on="1" x="931" y="238" />
        <pt on="1" x="904" y="93" />
        <pt on="0" x="743" y="40" />
        <pt on="1" x="614" y="14" />
        <pt on="0" x="479" y="-10" />
        <pt on="1" x="386" y="-10" />
        <pt on="0" x="169" y="-10" />
        <pt on="1" x="57" y="77" />
        <pt on="0" x="-57" y="165" />
        <pt on="1" x="-57" y="329" />
        <pt on="0" x="-57" y="465" />
        <pt on="1" x="45" y="588" />
        <pt on="0" x="148" y="712" />
        <pt on="1" x="362" y="828" />
        <pt on="1" x="437" y="871" />
        <pt on="0" x="438" y="871" />
        <pt on="0" x="443" y="874" />
        <pt on="1" x="446" y="876" />
        <pt on="0" x="487" y="897" />
        <pt on="1" x="487" y="910" />
        <pt on="0" x="487" y="912" />
        <pt on="1" x="485" y="918" />
        <pt on="0" x="485" y="918" />
        <pt on="1" x="481" y="926" />
        <pt on="1" x="429" y="1015" />
        <pt on="0" x="411" y="1045" />
        <pt on="1" x="407" y="1063" />
        <pt on="0" x="399" y="1085" />
        <pt on="1" x="399" y="1105" />
        <pt on="0" x="399" y="1171" />
        <pt on="1" x="438" y="1233" />
        <pt on="0" x="481" y="1297" />
        <pt on="1" x="560" y="1353" />
        <pt on="0" x="654" y="1419" />
        <pt on="1" x="756" y="1453" />
        <pt on="0" x="862" y="1488" />
        <pt on="1" x="966" y="1488" />
        <pt on="0" x="1071" y="1488" />
        <pt on="1" x="1120" y="1442" />
        <pt on="0" x="1169" y="1394" />
        <pt on="1" x="1169" y="1299" />
        <pt on="0" x="1169" y="1262" />
        <pt on="1" x="1154" y="1205" />
        <pt on="0" x="1138" y="1152" />
        <pt on="1" x="1107" y="1074" />
        <pt on="1" x="988" y="1056" />
        <pt on="0" x="1059" y="1216" />
        <pt on="1" x="1079" y="1275" />
        <pt on="0" x="1101" y="1344" />
        <pt on="1" x="1101" y="1379" />
        <pt on="0" x="1101" y="1418" />
        <pt on="1" x="1073" y="1440" />
        <pt on="0" x="1044" y="1461" />
        <pt on="1" x="988" y="1461" />
        <pt on="0" x="933" y="1461" />
        <pt on="1" x="863" y="1432" />
        <pt on="0" x="795" y="1404" />
        <pt on="1" x="722" y="1349" />
        <pt on="0" x="618" y="1268" />
        <pt on="1" x="553" y="1178" />
        <pt on="0" x="489" y="1088" />
        <pt on="1" x="489" y="1029" />
        <pt on="0" x="489" y="968" />
        <pt on="1" x="539" y="894" />
        <pt on="0" x="589" y="819" />
        <pt on="1" x="589" y="810" />
        <pt on="0" x="589" y="783" />
        <pt on="1" x="503" y="739" />
        <pt on="0" x="444" y="707" />
        <pt on="1" x="417" y="691" />
        <pt on="0" x="225" y="576" />
        <pt on="1" x="129" y="464" />
        <pt on="0" x="32" y="351" />
        <pt on="1" x="32" y="247" />
        <pt on="0" x="32" y="145" />
        <pt on="1" x="107" y="91" />
        <pt on="0" x="182" y="34" />
        <pt on="1" x="317" y="34" />
        <pt on="0" x="431" y="34" />
        <pt on="1" x="583" y="84" />
        <pt on="0" x="728" y="130" />
      </contour>
      <contour>
        <pt on="1" x="785" y="995" />
        <pt on="0" x="762" y="1053" />
        <pt on="1" x="819" y="1088" />
        <pt on="0" x="889" y="1127" />
        <pt on="1" x="925" y="1072" />
        <pt on="0" x="928" y="1068" />
        <pt on="0" x="943" y="1041" />
        <pt on="1" x="938" y="1020" />
        <pt on="0" x="925" y="969" />
        <pt on="0" x="880" y="868" />
        <pt on="1" x="887" y="820" />
        <pt on="0" x="851" y="850" />
        <pt on="0" x="742" y="862" />
        <pt on="1" x="694" y="877" />
        <pt on="0" x="673" y="883" />
        <pt on="0" x="656" y="905" />
        <pt on="1" x="652" y="911" />
        <pt on="0" x="619" y="971" />
        <pt on="1" x="687" y="1011" />
        <pt on="0" x="746" y="1044" />
      </contour>
      <contour>
        <pt on="1" x="933" y="568" />
        <pt on="0" x="997" y="654" />
        <pt on="1" x="1100" y="604" />
        <pt on="0" x="1147" y="577" />
        <pt on="0" x="1195" y="482" />
        <pt on="1" x="1174" y="435" />
        <pt on="0" x="1171" y="427" />
        <pt on="0" x="1169" y="388" />
        <pt on="1" x="1109" y="369" />
        <pt on="0" x="1049" y="349" />
        <pt on="0" x="834" y="314" />
        <pt on="1" x="771" y="261" />
        <pt on="0" x="784" y="340" />
        <pt on="0" x="694" y="534" />
        <pt on="1" x="679" y="594" />
        <pt on="0" x="662" y="653" />
        <pt on="0" x="687" y="674" />
        <pt on="1" x="691" y="686" />
        <pt on="0" x="716" y="731" />
        <pt on="0" x="820" y="750" />
        <pt on="1" x="868" y="726" />
        <pt on="0" x="970" y="670" />
      </contour>
    </TTGlyph>
    <TTGlyph name="Eacute" xMax="1195" xMin="-57" yMax="1803" yMin="-10">
      <contour>
        <pt on="1" x="931" y="238" />
        <pt on="1" x="904" y="93" />
        <pt on="0" x="743" y="40" />
        <pt on="1" x="614" y="14" />
        <pt on="0" x="479" y="-10" />
        <pt on="1" x="386" y="-10" />
        <pt on="0" x="169" y="-10" />
        <pt on="1" x="57" y="77" />
        <pt on="0" x="-57" y="165" />
        <pt on="1" x="-57" y="329" />
        <pt on="0" x="-57" y="465" />
        <pt on="1" x="45" y="588" />
        <pt on="0" x="148" y="712" />
        <pt on="1" x="362" y="828" />
        <pt on="1" x="437" y="871" />
        <pt on="0" x="438" y="871" />
        <pt on="0" x="443" y="874" />
        <pt on="1" x="446" y="876" />
        <pt on="0" x="487" y="897" />
        <pt on="1" x="487" y="910" />
        <pt on="0" x="487" y="912" />
        <pt on="1" x="485" y="918" />
        <pt on="0" x="485" y="918" />
        <pt on="1" x="481" y="926" />
        <pt on="1" x="429" y="1015" />
        <pt on="0" x="411" y="1045" />
        <pt on="1" x="407" y="1063" />
        <pt on="0" x="399" y="1085" />
        <pt on="1" x="399" y="1105" />
        <pt on="0" x="399" y="1171" />
        <pt on="1" x="438" y="1233" />
        <pt on="0" x="481" y="1297" />
        <pt on="1" x="560" y="1353" />
        <pt on="0" x="654" y="1419" />
        <pt on="1" x="756" y="1453" />
        <pt on="0" x="862" y="1488" />
        <pt on="1" x="966" y="1488" />
        <pt on="0" x="1071" y="1488" />
        <pt on="1" x="1120" y="1442" />
        <pt on="0" x="1169" y="1394" />
        <pt on="1" x="1169" y="1299" />
        <pt on="0" x="1169" y="1262" />
        <pt on="1" x="1154" y="1205" />
        <pt on="0" x="1138" y="1152" />
        <pt on="1" x="1107" y="1074" />
        <pt on="1" x="988" y="1056" />
        <pt on="0" x="1059" y="1216" />
        <pt on="1" x="1079" y="1275" />
        <pt on="0" x="1101" y="1344" />
        <pt on="1" x="1101" y="1379" />
        <pt on="0" x="1101" y="1418" />
        <pt on="1" x="1073" y="1440" />
        <pt on="0" x="1044" y="1461" />
        <pt on="1" x="988" y="1461" />
        <pt on="0" x="933" y="1461" />
        <pt on="1" x="863" y="1432" />
        <pt on="0" x="795" y="1404" />
        <pt on="1" x="722" y="1349" />
        <pt on="0" x="618" y="1268" />
        <pt on="1" x="553" y="1178" />
        <pt on="0" x="489" y="1088" />
        <pt on="1" x="489" y="1029" />
        <pt on="0" x="489" y="968" />
        <pt on="1" x="539" y="894" />
        <pt on="0" x="589" y="819" />
        <pt on="1" x="589" y="810" />
        <pt on="0" x="589" y="783" />
        <pt on="1" x="503" y="739" />
        <pt on="0" x="444" y="707" />
        <pt on="1" x="417" y="691" />
        <pt on="0" x="225" y="576" />
        <pt on="1" x="129" y="464" />
        <pt on="0" x="32" y="351" />
        <pt on="1" x="32" y="247" />
        <pt on="0" x="32" y="145" />
        <pt on="1" x="107" y="91" />
        <pt on="0" x="182" y="34" />
        <pt on="1" x="317" y="34" />
        <pt on="0" x="431" y="34" />
        <pt on="1" x="583" y="84" />
        <pt on="0" x="728" y="130" />
      </contour>
      <contour>
        <pt on="1" x="785" y="995" />
        <pt on="0" x="762" y="1053" />
        <pt on="1" x="819" y="1088" />
        <pt on="0" x="889" y="1127" />
        <pt on="1" x="925" y="1072" />
        <pt on="0" x="928" y="1068" />
        <pt on="0" x="943" y="1041" />
        <pt on="1" x="938" y="1020" />
        <pt on="0" x="925" y="969" />
        <pt on="0" x="880" y="868" />
        <pt on="1" x="887" y="820" />
        <pt on="0" x="851" y="850" />
        <pt on="0" x="742" y="862" />
        <pt on="1" x="694" y="877" />
        <pt on="0" x="673" y="883" />
        <pt on="0" x="656" y="905" />
        <pt on="1" x="652" y="911" />
        <pt on="0" x="619" y="971" />
        <pt on="1" x="687" y="1011" />
        <pt on="0" x="746" y="1044" />
      </contour>
      <contour>
        <pt on="1" x="933" y="568" />
        <pt on="0" x="997" y="654" />
        <pt on="1" x="1100" y="604" />
        <pt on="0" x="1147" y="577" />
        <pt on="0" x="1195" y="482" />
        <pt on="1" x="1174" y="435" />
        <pt on="0" x="1171" y="427" />
        <pt on="0" x="1169" y="388" />
        <pt on="1" x="1109" y="369" />
        <pt on="0" x="1049" y="349" />
        <pt on="0" x="834" y="314" />
        <pt on="1" x="771" y="261" />
        <pt on="0" x="784" y="340" />
        <pt on="0" x="694" y="534" />
        <pt on="1" x="679" y="594" />
        <pt on="0" x="662" y="653" />
        <pt on="0" x="687" y="674" />
        <pt on="1" x="691" y="686" />
        <pt on="0" x="716" y="731" />
        <pt on="0" x="820" y="750" />
        <pt on="1" x="868" y="726" />
        <pt on="0" x="970" y="670" />
      </contour>
      <contour>
        <pt on="1" x="804" y="1551" />
        <pt on="0" x="799" y="1551" />
        <pt on="1" x="793" y="1554" />
        <pt on="0" x="790" y="1557" />
        <pt on="1" x="790" y="1563" />
        <pt on="0" x="790" y="1565" />
        <pt on="1" x="842" y="1597" />
        <pt on="0" x="896" y="1629" />
        <pt on="1" x="918" y="1670" />
        <pt on="0" x="931" y="1692" />
        <pt on="1" x="945" y="1738" />
        <pt on="0" x="964" y="1803" />
        <pt on="1" x="1001" y="1803" />
        <pt on="0" x="1020" y="1803" />
        <pt on="1" x="1033" y="1790" />
        <pt on="0" x="1046" y="1775" />
        <pt on="1" x="1046" y="1753" />
        <pt on="0" x="1046" y="1732" />
        <pt on="1" x="1027" y="1704" />
        <pt on="0" x="1006" y="1675" />
        <pt on="1" x="967" y="1642" />
        <pt on="0" x="921" y="1603" />
        <pt on="1" x="872" y="1578" />
        <pt on="0" x="821" y="1551" />
      </contour>
    </TTGlyph>
    <TTGlyph name="Ecircumflex" xMax="1195" xMin="-57" yMax="1809" yMin="-10">
      <contour>
        <pt on="1" x="931" y="238" />
        <pt on="1" x="904" y="93" />
        <pt on="0" x="743" y="40" />
        <pt on="1" x="614" y="14" />
        <pt on="0" x="479" y="-10" />
        <pt on="1" x="386" y="-10" />
        <pt on="0" x="169" y="-10" />
        <pt on="1" x="57" y="77" />
        <pt on="0" x="-57" y="165" />
        <pt on="1" x="-57" y="329" />
        <pt on="0" x="-57" y="465" />
        <pt on="1" x="45" y="588" />
        <pt on="0" x="148" y="712" />
        <pt on="1" x="362" y="828" />
        <pt on="1" x="437" y="871" />
        <pt on="0" x="438" y="871" />
        <pt on="0" x="443" y="874" />
        <pt on="1" x="446" y="876" />
        <pt on="0" x="487" y="897" />
        <pt on="1" x="487" y="910" />
        <pt on="0" x="487" y="912" />
        <pt on="1" x="485" y="918" />
        <pt on="0" x="485" y="918" />
        <pt on="1" x="481" y="926" />
        <pt on="1" x="429" y="1015" />
        <pt on="0" x="411" y="1045" />
        <pt on="1" x="407" y="1063" />
        <pt on="0" x="399" y="1085" />
        <pt on="1" x="399" y="1105" />
        <pt on="0" x="399" y="1171" />
        <pt on="1" x="438" y="1233" />
        <pt on="0" x="481" y="1297" />
        <pt on="1" x="560" y="1353" />
        <pt on="0" x="654" y="1419" />
        <pt on="1" x="756" y="1453" />
        <pt on="0" x="862" y="1488" />
        <pt on="1" x="966" y="1488" />
        <pt on="0" x="1071" y="1488" />
        <pt on="1" x="1120" y="1442" />
        <pt on="0" x="1169" y="1394" />
        <pt on="1" x="1169" y="1299" />
        <pt on="0" x="1169" y="1262" />
        <pt on="1" x="1154" y="1205" />
        <pt on="0" x="1138" y="1152" />
        <pt on="1" x="1107" y="1074" />
        <pt on="1" x="988" y="1056" />
        <pt on="0" x="1059" y="1216" />
        <pt on="1" x="1079" y="1275" />
        <pt on="0" x="1101" y="1344" />
        <pt on="1" x="1101" y="1379" />
        <pt on="0" x="1101" y="1418" />
        <pt on="1" x="1073" y="1440" />
        <pt on="0" x="1044" y="1461" />
        <pt on="1" x="988" y="1461" />
        <pt on="0" x="933" y="1461" />
        <pt on="1" x="863" y="1432" />
        <pt on="0" x="795" y="1404" />
        <pt on="1" x="722" y="1349" />
        <pt on="0" x="618" y="1268" />
        <pt on="1" x="553" y="1178" />
        <pt on="0" x="489" y="1088" />
        <pt on="1" x="489" y="1029" />
        <pt on="0" x="489" y="968" />
        <pt on="1" x="539" y="894" />
        <pt on="0" x="589" y="819" />
        <pt on="1" x="589" y="810" />
        <pt on="0" x="589" y="783" />
        <pt on="1" x="503" y="739" />
        <pt on="0" x="444" y="707" />
        <pt on="1" x="417" y="691" />
        <pt on="0" x="225" y="576" />
        <pt on="1" x="129" y="464" />
        <pt on="0" x="32" y="351" />
        <pt on="1" x="32" y="247" />
        <pt on="0" x="32" y="145" />
        <pt on="1" x="107" y="91" />
        <pt on="0" x="182" y="34" />
        <pt on="1" x="317" y="34" />
        <pt on="0" x="431" y="34" />
        <pt on="1" x="583" y="84" />
        <pt on="0" x="728" y="130" />
      </contour>
      <contour>
        <pt on="1" x="785" y="995" />
        <pt on="0" x="762" y="1053" />
        <pt on="1" x="819" y="1088" />
        <pt on="0" x="889" y="1127" />
        <pt on="1" x="925" y="1072" />
        <pt on="0" x="928" y="1068" />
        <pt on="0" x="943" y="1041" />
        <pt on="1" x="938" y="1020" />
        <pt on="0" x="925" y="969" />
        <pt on="0" x="880" y="868" />
        <pt on="1" x="887" y="820" />
        <pt on="0" x="851" y="850" />
        <pt on="0" x="742" y="862" />
        <pt on="1" x="694" y="877" />
        <pt on="0" x="673" y="883" />
        <pt on="0" x="656" y="905" />
        <pt on="1" x="652" y="911" />
        <pt on="0" x="619" y="971" />
        <pt on="1" x="687" y="1011" />
        <pt on="0" x="746" y="1044" />
      </contour>
      <contour>
        <pt on="1" x="933" y="568" />
        <pt on="0" x="997" y="654" />
        <pt on="1" x="1100" y="604" />
        <pt on="0" x="1147" y="577" />
        <pt on="0" x="1195" y="482" />
        <pt on="1" x="1174" y="435" />
        <pt on="0" x="1171" y="427" />
        <pt on="0" x="1169" y="388" />
        <pt on="1" x="1109" y="369" />
        <pt on="0" x="1049" y="349" />
        <pt on="0" x="834" y="314" />
        <pt on="1" x="771" y="261" />
        <pt on="0" x="784" y="340" />
        <pt on="0" x="694" y="534" />
        <pt on="1" x="679" y="594" />
        <pt on="0" x="662" y="653" />
        <pt on="0" x="687" y="674" />
        <pt on="1" x="691" y="686" />
        <pt on="0" x="716" y="731" />
        <pt on="0" x="820" y="750" />
        <pt on="1" x="868" y="726" />
        <pt on="0" x="970" y="670" />
      </contour>
      <contour>
        <pt on="1" x="1002" y="1809" />
        <pt on="1" x="1032" y="1809" />
        <pt on="0" x="1053" y="1734" />
        <pt on="1" x="1095" y="1654" />
        <pt on="0" x="1135" y="1578" />
        <pt on="1" x="1135" y="1574" />
        <pt on="0" x="1135" y="1569" />
        <pt on="1" x="1133" y="1569" />
        <pt on="0" x="1133" y="1569" />
        <pt on="0" x="1127" y="1567" />
        <pt on="1" x="1124" y="1567" />
        <pt on="0" x="1112" y="1567" />
        <pt on="1" x="1075" y="1606" />
        <pt on="0" x="1039" y="1643" />
        <pt on="1" x="1002" y="1699" />
        <pt on="0" x="937" y="1640" />
        <pt on="1" x="879" y="1605" />
        <pt on="0" x="816" y="1567" />
        <pt on="1" x="795" y="1567" />
        <pt on="0" x="787" y="1567" />
        <pt on="1" x="786" y="1570" />
        <pt on="0" x="783" y="1571" />
        <pt on="1" x="782" y="1578" />
        <pt on="0" x="782" y="1580" />
        <pt on="1" x="860" y="1652" />
        <pt on="0" x="938" y="1723" />
      </contour>
    </TTGlyph>
    <TTGlyph name="Edieresis" xMax="1195" xMin="-57" yMax="1681" yMin="-10">
      <contour>
        <pt on="1" x="931" y="238" />
        <pt on="1" x="904" y="93" />
        <pt on="0" x="743" y="40" />
        <pt on="1" x="614" y="14" />
        <pt on="0" x="479" y="-10" />
        <pt on="1" x="386" y="-10" />
        <pt on="0" x="169" y="-10" />
        <pt on="1" x="57" y="77" />
        <pt on="0" x="-57" y="165" />
        <pt on="1" x="-57" y="329" />
        <pt on="0" x="-57" y="465" />
        <pt on="1" x="45" y="588" />
        <pt on="0" x="148" y="712" />
        <pt on="1" x="362" y="828" />
        <pt on="1" x="437" y="871" />
        <pt on="0" x="438" y="871" />
        <pt on="0" x="443" y="874" />
        <pt on="1" x="446" y="876" />
        <pt on="0" x="487" y="897" />
        <pt on="1" x="487" y="910" />
        <pt on="0" x="487" y="912" />
        <pt on="1" x="485" y="918" />
        <pt on="0" x="485" y="918" />
        <pt on="1" x="481" y="926" />
        <pt on="1" x="429" y="1015" />
        <pt on="0" x="411" y="1045" />
        <pt on="1" x="407" y="1063" />
        <pt on="0" x="399" y="1085" />
        <pt on="1" x="399" y="1105" />
        <pt on="0" x="399" y="1171" />
        <pt on="1" x="438" y="1233" />
        <pt on="0" x="481" y="1297" />
        <pt on="1" x="560" y="1353" />
        <pt on="0" x="654" y="1419" />
        <pt on="1" x="756" y="1453" />
        <pt on="0" x="862" y="1488" />
        <pt on="1" x="966" y="1488" />
        <pt on="0" x="1071" y="1488" />
        <pt on="1" x="1120" y="1442" />
        <pt on="0" x="1169" y="1394" />
        <pt on="1" x="1169" y="1299" />
        <pt on="0" x="1169" y="1262" />
        <pt on="1" x="1154" y="1205" />
        <pt on="0" x="1138" y="1152" />
        <pt on="1" x="1107" y="1074" />
        <pt on="1" x="988" y="1056" />
        <pt on="0" x="1059" y="1216" />
        <pt on="1" x="1079" y="1275" />
        <pt on="0" x="1101" y="1344" />
        <pt on="1" x="1101" y="1379" />
        <pt on="0" x="1101" y="1418" />
        <pt on="1" x="1073" y="1440" />
        <pt on="0" x="1044" y="1461" />
        <pt on="1" x="988" y="1461" />
        <pt on="0" x="933" y="1461" />
        <pt on="1" x="863" y="1432" />
        <pt on="0" x="795" y="1404" />
        <pt on="1" x="722" y="1349" />
        <pt on="0" x="618" y="1268" />
        <pt on="1" x="553" y="1178" />
        <pt on="0" x="489" y="1088" />
        <pt on="1" x="489" y="1029" />
        <pt on="0" x="489" y="968" />
        <pt on="1" x="539" y="894" />
        <pt on="0" x="589" y="819" />
        <pt on="1" x="589" y="810" />
        <pt on="0" x="589" y="783" />
        <pt on="1" x="503" y="739" />
        <pt on="0" x="444" y="707" />
        <pt on="1" x="417" y="691" />
        <pt on="0" x="225" y="576" />
        <pt on="1" x="129" y="464" />
        <pt on="0" x="32" y="351" />
        <pt on="1" x="32" y="247" />
        <pt on="0" x="32" y="145" />
        <pt on="1" x="107" y="91" />
        <pt on="0" x="182" y="34" />
        <pt on="1" x="317" y="34" />
        <pt on="0" x="431" y="34" />
        <pt on="1" x="583" y="84" />
        <pt on="0" x="728" y="130" />
      </contour>
      <contour>
        <pt on="1" x="785" y="995" />
        <pt on="0" x="762" y="1053" />
        <pt on="1" x="819" y="1088" />
        <pt on="0" x="889" y="1127" />
        <pt on="1" x="925" y="1072" />
        <pt on="0" x="928" y="1068" />
        <pt on="0" x="943" y="1041" />
        <pt on="1" x="938" y="1020" />
        <pt on="0" x="925" y="969" />
        <pt on="0" x="880" y="868" />
        <pt on="1" x="887" y="820" />
        <pt on="0" x="851" y="850" />
        <pt on="0" x="742" y="862" />
        <pt on="1" x="694" y="877" />
        <pt on="0" x="673" y="883" />
        <pt on="0" x="656" y="905" />
        <pt on="1" x="652" y="911" />
        <pt on="0" x="619" y="971" />
        <pt on="1" x="687" y="1011" />
        <pt on="0" x="746" y="1044" />
      </contour>
      <contour>
        <pt on="1" x="933" y="568" />
        <pt on="0" x="997" y="654" />
        <pt on="1" x="1100" y="604" />
        <pt on="0" x="1147" y="577" />
        <pt on="0" x="1195" y="482" />
        <pt on="1" x="1174" y="435" />
        <pt on="0" x="1171" y="427" />
        <pt on="0" x="1169" y="388" />
        <pt on="1" x="1109" y="369" />
        <pt on="0" x="1049" y="349" />
        <pt on="0" x="834" y="314" />
        <pt on="1" x="771" y="261" />
        <pt on="0" x="784" y="340" />
        <pt on="0" x="694" y="534" />
        <pt on="1" x="679" y="594" />
        <pt on="0" x="662" y="653" />
        <pt on="0" x="687" y="674" />
        <pt on="1" x="691" y="686" />
        <pt on="0" x="716" y="731" />
        <pt on="0" x="820" y="750" />
        <pt on="1" x="868" y="726" />
        <pt on="0" x="970" y="670" />
      </contour>
      <contour>
        <pt on="1" x="785" y="1624" />
        <pt on="0" x="785" y="1648" />
        <pt on="1" x="801" y="1664" />
        <pt on="0" x="817" y="1680" />
        <pt on="1" x="840" y="1680" />
        <pt on="0" x="864" y="1680" />
        <pt on="1" x="879" y="1664" />
        <pt on="0" x="896" y="1647" />
        <pt on="1" x="896" y="1624" />
        <pt on="0" x="896" y="1601" />
        <pt on="1" x="880" y="1585" />
        <pt on="0" x="862" y="1569" />
        <pt on="1" x="840" y="1569" />
        <pt on="0" x="818" y="1569" />
        <pt on="1" x="801" y="1585" />
        <pt on="0" x="785" y="1601" />
      </contour>
      <contour>
        <pt on="1" x="1029" y="1624" />
        <pt on="0" x="1029" y="1647" />
        <pt on="1" x="1046" y="1664" />
        <pt on="0" x="1061" y="1681" />
        <pt on="1" x="1086" y="1681" />
        <pt on="0" x="1109" y="1681" />
        <pt on="1" x="1125" y="1665" />
        <pt on="0" x="1140" y="1648" />
        <pt on="1" x="1140" y="1624" />
        <pt on="0" x="1140" y="1601" />
        <pt on="1" x="1125" y="1586" />
        <pt on="0" x="1110" y="1570" />
        <pt on="1" x="1086" y="1570" />
        <pt on="0" x="1060" y="1570" />
        <pt on="1" x="1046" y="1586" />
        <pt on="0" x="1029" y="1601" />
      </contour>
    </TTGlyph>
    <TTGlyph name="Egrave" xMax="1195" xMin="-57" yMax="1803" yMin="-10">
      <contour>
        <pt on="1" x="931" y="238" />
        <pt on="1" x="904" y="93" />
        <pt on="0" x="743" y="40" />
        <pt on="1" x="614" y="14" />
        <pt on="0" x="479" y="-10" />
        <pt on="1" x="386" y="-10" />
        <pt on="0" x="169" y="-10" />
        <pt on="1" x="57" y="77" />
        <pt on="0" x="-57" y="165" />
        <pt on="1" x="-57" y="329" />
        <pt on="0" x="-57" y="465" />
        <pt on="1" x="45" y="588" />
        <pt on="0" x="148" y="712" />
        <pt on="1" x="362" y="828" />
        <pt on="1" x="437" y="871" />
        <pt on="0" x="438" y="871" />
        <pt on="0" x="443" y="874" />
        <pt on="1" x="446" y="876" />
        <pt on="0" x="487" y="897" />
        <pt on="1" x="487" y="910" />
        <pt on="0" x="487" y="912" />
        <pt on="1" x="485" y="918" />
        <pt on="0" x="485" y="918" />
        <pt on="1" x="481" y="926" />
        <pt on="1" x="429" y="1015" />
        <pt on="0" x="411" y="1045" />
        <pt on="1" x="407" y="1063" />
        <pt on="0" x="399" y="1085" />
        <pt on="1" x="399" y="1105" />
        <pt on="0" x="399" y="1171" />
        <pt on="1" x="438" y="1233" />
        <pt on="0" x="481" y="1297" />
        <pt on="1" x="560" y="1353" />
        <pt on="0" x="654" y="1419" />
        <pt on="1" x="756" y="1453" />
        <pt on="0" x="862" y="1488" />
        <pt on="1" x="966" y="1488" />
        <pt on="0" x="1071" y="1488" />
        <pt on="1" x="1120" y="1442" />
        <pt on="0" x="1169" y="1394" />
        <pt on="1" x="1169" y="1299" />
        <pt on="0" x="1169" y="1262" />
        <pt on="1" x="1154" y="1205" />
        <pt on="0" x="1138" y="1152" />
        <pt on="1" x="1107" y="1074" />
        <pt on="1" x="988" y="1056" />
        <pt on="0" x="1059" y="1216" />
        <pt on="1" x="1079" y="1275" />
        <pt on="0" x="1101" y="1344" />
        <pt on="1" x="1101" y="1379" />
        <pt on="0" x="1101" y="1418" />
        <pt on="1" x="1073" y="1440" />
        <pt on="0" x="1044" y="1461" />
        <pt on="1" x="988" y="1461" />
        <pt on="0" x="933" y="1461" />
        <pt on="1" x="863" y="1432" />
        <pt on="0" x="795" y="1404" />
        <pt on="1" x="722" y="1349" />
        <pt on="0" x="618" y="1268" />
        <pt on="1" x="553" y="1178" />
        <pt on="0" x="489" y="1088" />
        <pt on="1" x="489" y="1029" />
        <pt on="0" x="489" y="968" />
        <pt on="1" x="539" y="894" />
        <pt on="0" x="589" y="819" />
        <pt on="1" x="589" y="810" />
        <pt on="0" x="589" y="783" />
        <pt on="1" x="503" y="739" />
        <pt on="0" x="444" y="707" />
        <pt on="1" x="417" y="691" />
        <pt on="0" x="225" y="576" />
        <pt on="1" x="129" y="464" />
        <pt on="0" x="32" y="351" />
        <pt on="1" x="32" y="247" />
        <pt on="0" x="32" y="145" />
        <pt on="1" x="107" y="91" />
        <pt on="0" x="182" y="34" />
        <pt on="1" x="317" y="34" />
        <pt on="0" x="431" y="34" />
        <pt on="1" x="583" y="84" />
        <pt on="0" x="728" y="130" />
      </contour>
      <contour>
        <pt on="1" x="785" y="995" />
        <pt on="0" x="762" y="1053" />
        <pt on="1" x="819" y="1088" />
        <pt on="0" x="889" y="1127" />
        <pt on="1" x="925" y="1072" />
        <pt on="0" x="928" y="1068" />
        <pt on="0" x="943" y="1041" />
        <pt on="1" x="938" y="1020" />
        <pt on="0" x="925" y="969" />
        <pt on="0" x="880" y="868" />
        <pt on="1" x="887" y="820" />
        <pt on="0" x="851" y="850" />
        <pt on="0" x="742" y="862" />
        <pt on="1" x="694" y="877" />
        <pt on="0" x="673" y="883" />
        <pt on="0" x="656" y="905" />
        <pt on="1" x="652" y="911" />
        <pt on="0" x="619" y="971" />
        <pt on="1" x="687" y="1011" />
        <pt on="0" x="746" y="1044" />
      </contour>
      <contour>
        <pt on="1" x="933" y="568" />
        <pt on="0" x="997" y="654" />
        <pt on="1" x="1100" y="604" />
        <pt on="0" x="1147" y="577" />
        <pt on="0" x="1195" y="482" />
        <pt on="1" x="1174" y="435" />
        <pt on="0" x="1171" y="427" />
        <pt on="0" x="1169" y="388" />
        <pt on="1" x="1109" y="369" />
        <pt on="0" x="1049" y="349" />
        <pt on="0" x="834" y="314" />
        <pt on="1" x="771" y="261" />
        <pt on="0" x="784" y="340" />
        <pt on="0" x="694" y="534" />
        <pt on="1" x="679" y="594" />
        <pt on="0" x="662" y="653" />
        <pt on="0" x="687" y="674" />
        <pt on="1" x="691" y="686" />
        <pt on="0" x="716" y="731" />
        <pt on="0" x="820" y="750" />
        <pt on="1" x="868" y="726" />
        <pt on="0" x="970" y="670" />
      </contour>
      <contour>
        <pt on="1" x="1092" y="1547" />
        <pt on="0" x="1078" y="1547" />
        <pt on="1" x="1043" y="1570" />
        <pt on="0" x="1013" y="1588" />
        <pt on="1" x="968" y="1629" />
        <pt on="0" x="922" y="1670" />
        <pt on="1" x="903" y="1700" />
        <pt on="0" x="881" y="1730" />
        <pt on="1" x="881" y="1754" />
        <pt on="0" x="881" y="1776" />
        <pt on="1" x="893" y="1790" />
        <pt on="0" x="906" y="1803" />
        <pt on="1" x="925" y="1803" />
        <pt on="0" x="965" y="1803" />
        <pt on="1" x="985" y="1723" />
        <pt on="0" x="988" y="1706" />
        <pt on="0" x="994" y="1681" />
        <pt on="1" x="997" y="1672" />
        <pt on="0" x="1010" y="1632" />
        <pt on="1" x="1058" y="1597" />
        <pt on="0" x="1107" y="1560" />
        <pt on="1" x="1107" y="1558" />
        <pt on="0" x="1107" y="1554" />
        <pt on="1" x="1102" y="1551" />
        <pt on="0" x="1098" y="1547" />
      </contour>
    </TTGlyph>
    <TTGlyph name="Eth" xMax="1362" xMin="40" yMax="1427" yMin="0">
      <contour>
        <pt on="1" x="69" y="26" />
        <pt on="1" x="1333" y="26" />
        <pt on="1" x="1333" y="1402" />
        <pt on="1" x="69" y="1402" />
      </contour>
      <contour>
        <pt on="1" x="40" y="0" />
        <pt on="1" x="40" y="1427" />
        <pt on="1" x="1362" y="1427" />
        <pt on="1" x="1362" y="0" />
      </contour>
    </TTGlyph>
    <TTGlyph name="F" xMax="1956" xMin="-188" yMax="1459" yMin="-8">
      <contour>
        <pt on="1" x="-188" y="77" />
        <pt on="1" x="-125" y="161" />
        <pt on="0" x="-16" y="92" />
        <pt on="1" x="83" y="61" />
        <pt on="0" x="185" y="28" />
        <pt on="1" x="286" y="28" />
        <pt on="0" x="438" y="28" />
        <pt on="1" x="557" y="125" />
        <pt on="0" x="675" y="221" />
        <pt on="1" x="775" y="427" />
        <pt on="1" x="487" y="427" />
        <pt on="1" x="503" y="472" />
        <pt on="1" x="794" y="472" />
        <pt on="0" x="816" y="532" />
        <pt on="0" x="857" y="643" />
        <pt on="1" x="875" y="694" />
        <pt on="0" x="911" y="798" />
        <pt on="1" x="935" y="878" />
        <pt on="1" x="1070" y="1326" />
        <pt on="0" x="941" y="1337" />
        <pt on="1" x="851" y="1343" />
        <pt on="0" x="749" y="1349" />
        <pt on="1" x="657" y="1349" />
        <pt on="0" x="375" y="1349" />
        <pt on="1" x="225" y="1313" />
        <pt on="0" x="75" y="1275" />
        <pt on="1" x="75" y="1209" />
        <pt on="0" x="75" y="1144" />
        <pt on="1" x="192" y="1099" />
        <pt on="0" x="308" y="1051" />
        <pt on="1" x="511" y="1039" />
        <pt on="1" x="442" y="947" />
        <pt on="0" x="262" y="966" />
        <pt on="1" x="155" y="1036" />
        <pt on="0" x="48" y="1106" />
        <pt on="1" x="48" y="1197" />
        <pt on="0" x="48" y="1322" />
        <pt on="1" x="246" y="1391" />
        <pt on="0" x="443" y="1459" />
        <pt on="1" x="804" y="1459" />
        <pt on="0" x="856" y="1459" />
        <pt on="0" x="963" y="1457" />
        <pt on="1" x="1017" y="1457" />
        <pt on="0" x="1071" y="1454" />
        <pt on="0" x="1180" y="1450" />
        <pt on="1" x="1236" y="1447" />
        <pt on="0" x="1426" y="1438" />
        <pt on="0" x="1765" y="1414" />
        <pt on="1" x="1956" y="1400" />
        <pt on="0" x="1893" y="1379" />
        <pt on="0" x="1705" y="1368" />
        <pt on="1" x="1708" y="1317" />
        <pt on="0" x="1459" y="1336" />
        <pt on="1" x="1210" y="1332" />
        <pt on="0" x="1185" y="1224" />
        <pt on="0" x="1124" y="1008" />
        <pt on="1" x="1091" y="901" />
        <pt on="0" x="1058" y="793" />
        <pt on="0" x="981" y="579" />
        <pt on="1" x="939" y="472" />
        <pt on="1" x="1119" y="472" />
        <pt on="1" x="1105" y="427" />
        <pt on="1" x="919" y="427" />
        <pt on="0" x="817" y="211" />
        <pt on="1" x="652" y="102" />
        <pt on="0" x="487" y="-7" />
        <pt on="1" x="263" y="-8" />
        <pt on="0" x="162" y="-8" />
        <pt on="1" x="49" y="12" />
        <pt on="0" x="-62" y="33" />
        <pt on="1" x="-188" y="77" />
      </contour>
      <contour>
        <pt on="1" x="1435" y="1134" />
        <pt on="0" x="1473" y="1196" />
        <pt on="1" x="1547" y="1168" />
        <pt on="0" x="1631" y="1128" />
        <pt on="1" x="1606" y="1056" />
        <pt on="0" x="1604" y="1051" />
        <pt on="0" x="1590" y="1017" />
        <pt on="1" x="1566" y="1008" />
        <pt on="0" x="1509" y="984" />
        <pt on="0" x="1381" y="954" />
        <pt on="1" x="1341" y="915" />
        <pt on="0" x="1345" y="970" />
        <pt on="0" x="1280" y="1081" />
        <pt on="1" x="1260" y="1137" />
        <pt on="0" x="1251" y="1161" />
        <pt on="0" x="1261" y="1193" />
        <pt on="1" x="1263" y="1201" />
        <pt on="0" x="1295" y="1271" />
        <pt on="1" x="1382" y="1238" />
        <pt on="0" x="1453" y="1204" />
      </contour>
      <contour>
        <pt on="1" x="244" y="675" />
        <pt on="0" x="231" y="789" />
        <pt on="1" x="350" y="823" />
        <pt on="0" x="406" y="836" />
        <pt on="0" x="512" y="794" />
        <pt on="1" x="529" y="742" />
        <pt on="0" x="532" y="734" />
        <pt on="0" x="545" y="678" />
        <pt on="1" x="526" y="644" />
        <pt on="0" x="478" y="561" />
        <pt on="0" x="349" y="403" />
        <pt on="1" x="337" y="315" />
        <pt on="0" x="289" y="388" />
        <pt on="0" x="103" y="463" />
        <pt on="1" x="25" y="512" />
        <pt on="0" x="-7" y="533" />
        <pt on="0" x="-25" y="582" />
        <pt on="1" x="-31" y="594" />
        <pt on="0" x="-43" y="647" />
        <pt on="0" x="24" y="737" />
        <pt on="1" x="79" y="753" />
        <pt on="0" x="200" y="780" />
      </contour>
    </TTGlyph>
    <TTGlyph name="G" xMax="1232" xMin="-57" yMax="1476" yMin="-465">
      <contour>
        <pt on="1" x="-14" y="-414" />
        <pt on="1" x="1" y="-299" />
        <pt on="0" x="104" y="-365" />
        <pt on="1" x="186" y="-394" />
        <pt on="0" x="274" y="-426" />
        <pt on="1" x="354" y="-426" />
        <pt on="0" x="479" y="-426" />
        <pt on="1" x="562" y="-341" />
        <pt on="0" x="645" y="-254" />
        <pt on="1" x="702" y="-68" />
        <pt on="1" x="749" y="91" />
        <pt on="0" x="669" y="47" />
        <pt on="1" x="583" y="24" />
        <pt on="0" x="498" y="0" />
        <pt on="1" x="415" y="1" />
        <pt on="0" x="204" y="1" />
        <pt on="1" x="74" y="124" />
        <pt on="0" x="-57" y="247" />
        <pt on="1" x="-57" y="443" />
        <pt on="0" x="-57" y="622" />
        <pt on="1" x="55" y="824" />
        <pt on="0" x="167" y="1023" />
        <pt on="1" x="366" y="1189" />
        <pt on="0" x="523" y="1319" />
        <pt on="1" x="706" y="1398" />
        <pt on="0" x="890" y="1476" />
        <pt on="1" x="1029" y="1476" />
        <pt on="0" x="1126" y="1476" />
        <pt on="1" x="1180" y="1435" />
        <pt on="0" x="1232" y="1392" />
        <pt on="1" x="1232" y="1314" />
        <pt on="0" x="1232" y="1223" />
        <pt on="1" x="1155" y="1110" />
        <pt on="0" x="1078" y="996" />
        <pt on="1" x="945" y="894" />
        <pt on="1" x="851" y="957" />
        <pt on="0" x="1011" y="1081" />
        <pt on="1" x="1092" y="1181" />
        <pt on="0" x="1171" y="1277" />
        <pt on="1" x="1171" y="1355" />
        <pt on="0" x="1171" y="1396" />
        <pt on="1" x="1136" y="1421" />
        <pt on="0" x="1101" y="1445" />
        <pt on="1" x="1040" y="1445" />
        <pt on="0" x="939" y="1445" />
        <pt on="1" x="815" y="1388" />
        <pt on="0" x="689" y="1331" />
        <pt on="1" x="564" y="1230" />
        <pt on="0" x="342" y="1049" />
        <pt on="1" x="214" y="825" />
        <pt on="0" x="85" y="601" />
        <pt on="1" x="85" y="404" />
        <pt on="0" x="85" y="236" />
        <pt on="1" x="178" y="137" />
        <pt on="0" x="271" y="38" />
        <pt on="1" x="427" y="38" />
        <pt on="0" x="506" y="38" />
        <pt on="1" x="593" y="69" />
        <pt on="0" x="674" y="99" />
        <pt on="1" x="771" y="167" />
        <pt on="0" x="790" y="306" />
        <pt on="1" x="853" y="375" />
        <pt on="0" x="914" y="443" />
        <pt on="1" x="1021" y="443" />
        <pt on="1" x="1025" y="443" />
        <pt on="0" x="987" y="379" />
        <pt on="1" x="959" y="317" />
        <pt on="0" x="931" y="254" />
        <pt on="1" x="919" y="202" />
        <pt on="1" x="863" y="-6" />
        <pt on="0" x="804" y="-237" />
        <pt on="1" x="670" y="-351" />
        <pt on="0" x="536" y="-465" />
        <pt on="1" x="321" y="-465" />
        <pt on="0" x="253" y="-465" />
        <pt on="1" x="162" y="-452" />
        <pt on="0" x="79" y="-438" />
        <pt on="1" x="-14" y="-414" />
      </contour>
      <contour>
        <pt on="1" x="603" y="647" />
        <pt on="0" x="590" y="773" />
        <pt on="1" x="719" y="809" />
        <pt on="0" x="780" y="824" />
        <pt on="0" x="896" y="778" />
        <pt on="1" x="915" y="721" />
        <pt on="0" x="918" y="712" />
        <pt on="0" x="933" y="651" />
        <pt on="1" x="912" y="614" />
        <pt on="0" x="859" y="523" />
        <pt on="0" x="717" y="350" />
        <pt on="1" x="704" y="254" />
        <pt on="0" x="653" y="333" />
        <pt on="0" x="448" y="415" />
        <pt on="1" x="363" y="469" />
        <pt on="0" x="327" y="492" />
        <pt on="0" x="306" y="546" />
        <pt on="1" x="301" y="558" />
        <pt on="0" x="287" y="617" />
        <pt on="0" x="362" y="714" />
        <pt on="1" x="423" y="732" />
        <pt on="0" x="553" y="763" />
      </contour>
    </TTGlyph>
    <TTGlyph name="H" xMax="1789" xMin="-563" yMax="1860" yMin="-199">
      <contour>
        <pt on="1" x="1095" y="396" />
        <pt on="0" x="971" y="396" />
        <pt on="1" x="857" y="407" />
        <pt on="0" x="742" y="419" />
        <pt on="1" x="653" y="441" />
        <pt on="0" x="772" y="367" />
        <pt on="1" x="856" y="281" />
        <pt on="0" x="942" y="191" />
        <pt on="1" x="995" y="88" />
      </contour>
      <contour>
        <pt on="1" x="-563" y="-95" />
        <pt on="1" x="-485" y="-19" />
        <pt on="0" x="-384" y="-93" />
        <pt on="1" x="-293" y="-129" />
        <pt on="0" x="-200" y="-164" />
        <pt on="1" x="-108" y="-164" />
        <pt on="0" x="61" y="-164" />
        <pt on="1" x="200" y="-23" />
        <pt on="0" x="269" y="46" />
        <pt on="0" x="465" y="441" />
        <pt on="1" x="505" y="570" />
        <pt on="1" x="759" y="1390" />
        <pt on="1" x="919" y="1437" />
        <pt on="1" x="665" y="619" />
        <pt on="0" x="659" y="604" />
        <pt on="0" x="648" y="573" />
        <pt on="1" x="642" y="556" />
        <pt on="0" x="636" y="538" />
        <pt on="0" x="622" y="502" />
        <pt on="1" x="616" y="484" />
        <pt on="0" x="710" y="457" />
        <pt on="1" x="811" y="446" />
        <pt on="0" x="910" y="433" />
        <pt on="1" x="1029" y="433" />
        <pt on="0" x="1052" y="433" />
        <pt on="1" x="1069" y="434" />
        <pt on="0" x="1087" y="435" />
        <pt on="1" x="1109" y="435" />
        <pt on="1" x="1418" y="1426" />
        <pt on="0" x="1481" y="1586" />
        <pt on="0" x="1749" y="1716" />
        <pt on="1" x="1789" y="1641" />
        <pt on="0" x="1657" y="1661" />
        <pt on="1" x="1584" y="1482" />
        <pt on="1" x="1247" y="435" />
        <pt on="0" x="1271" y="436" />
        <pt on="1" x="1321" y="440" />
        <pt on="0" x="1374" y="444" />
        <pt on="1" x="1398" y="447" />
        <pt on="1" x="1388" y="407" />
        <pt on="0" x="1355" y="401" />
        <pt on="1" x="1326" y="399" />
        <pt on="0" x="1308" y="397" />
        <pt on="0" x="1262" y="393" />
        <pt on="1" x="1234" y="392" />
        <pt on="1" x="1111" y="1" />
        <pt on="1" x="997" y="1" />
        <pt on="0" x="946" y="130" />
        <pt on="1" x="847" y="238" />
        <pt on="0" x="745" y="348" />
        <pt on="1" x="597" y="437" />
        <pt on="0" x="544" y="327" />
        <pt on="0" x="326" y="-33" />
        <pt on="1" x="246" y="-88" />
        <pt on="0" x="85" y="-199" />
        <pt on="1" x="-125" y="-199" />
        <pt on="0" x="-234" y="-199" />
        <pt on="1" x="-346" y="-173" />
        <pt on="0" x="-449" y="-148" />
        <pt on="1" x="-563" y="-95" />
      </contour>
      <contour>
        <pt on="1" x="274" y="756" />
        <pt on="0" x="335" y="812" />
        <pt on="1" x="405" y="760" />
        <pt on="0" x="437" y="733" />
        <pt on="0" x="459" y="654" />
        <pt on="1" x="437" y="622" />
        <pt on="0" x="434" y="617" />
        <pt on="0" x="427" y="588" />
        <pt on="1" x="379" y="582" />
        <pt on="0" x="331" y="575" />
        <pt on="0" x="165" y="578" />
        <pt on="1" x="109" y="547" />
        <pt on="0" x="130" y="605" />
        <pt on="0" x="90" y="763" />
        <pt on="1" x="86" y="811" />
        <pt on="0" x="82" y="858" />
        <pt on="0" x="103" y="870" />
        <pt on="1" x="108" y="879" />
        <pt on="0" x="133" y="909" />
        <pt on="0" x="214" y="908" />
        <pt on="1" x="247" y="884" />
        <pt on="0" x="315" y="827" />
      </contour>
      <contour>
        <pt on="1" x="1344" y="1754" />
        <pt on="0" x="1345" y="1836" />
        <pt on="1" x="1433" y="1849" />
        <pt on="0" x="1534" y="1860" />
        <pt on="1" x="1550" y="1773" />
        <pt on="0" x="1549" y="1764" />
        <pt on="0" x="1561" y="1741" />
        <pt on="1" x="1534" y="1704" />
        <pt on="0" x="1505" y="1665" />
        <pt on="0" x="1389" y="1550" />
        <pt on="1" x="1377" y="1489" />
        <pt on="0" x="1345" y="1544" />
        <pt on="0" x="1201" y="1629" />
        <pt on="1" x="1164" y="1659" />
        <pt on="0" x="1125" y="1689" />
        <pt on="0" x="1136" y="1717" />
        <pt on="1" x="1136" y="1723" />
        <pt on="0" x="1133" y="1762" />
        <pt on="0" x="1192" y="1818" />
        <pt on="1" x="1234" y="1824" />
        <pt on="0" x="1321" y="1833" />
      </contour>
      <contour>
        <pt on="1" x="91" y="409" />
        <pt on="0" x="106" y="515" />
        <pt on="1" x="223" y="517" />
        <pt on="0" x="277" y="515" />
        <pt on="0" x="363" y="451" />
        <pt on="1" x="366" y="400" />
        <pt on="0" x="366" y="392" />
        <pt on="0" x="383" y="357" />
        <pt on="1" x="339" y="312" />
        <pt on="0" x="294" y="267" />
        <pt on="0" x="119" y="137" />
        <pt on="1" x="87" y="60" />
        <pt on="0" x="62" y="137" />
        <pt on="0" x="-105" y="269" />
        <pt on="1" x="-147" y="315" />
        <pt on="0" x="-189" y="360" />
        <pt on="0" x="-176" y="390" />
        <pt on="1" x="-178" y="402" />
        <pt on="0" x="-175" y="453" />
        <pt on="0" x="-92" y="518" />
        <pt on="1" x="-39" y="519" />
        <pt on="0" x="74" y="515" />
      </contour>
    </TTGlyph>
    <TTGlyph name="I" xMax="993" xMin="-286" yMax="1480" yMin="-6">
      <contour>
        <pt on="1" x="671" y="507" />
        <pt on="0" x="766" y="760" />
        <pt on="1" x="821" y="974" />
        <pt on="0" x="874" y="1189" />
        <pt on="1" x="874" y="1316" />
        <pt on="0" x="874" y="1387" />
        <pt on="1" x="858" y="1418" />
        <pt on="0" x="841" y="1449" />
        <pt on="1" x="806" y="1449" />
        <pt on="0" x="706" y="1449" />
        <pt on="1" x="615" y="1260" />
        <pt on="0" x="524" y="1068" />
        <pt on="1" x="524" y="824" />
        <pt on="0" x="524" y="716" />
        <pt on="1" x="560" y="638" />
        <pt on="0" x="594" y="560" />
        <pt on="1" x="671" y="507" />
      </contour>
      <contour>
        <pt on="1" x="-286" y="89" />
        <pt on="1" x="-211" y="177" />
        <pt on="0" x="-92" y="100" />
        <pt on="1" x="0" y="66" />
        <pt on="0" x="98" y="28" />
        <pt on="1" x="177" y="28" />
        <pt on="0" x="325" y="28" />
        <pt on="1" x="448" y="141" />
        <pt on="0" x="571" y="257" />
        <pt on="1" x="659" y="476" />
        <pt on="0" x="532" y="549" />
        <pt on="1" x="472" y="651" />
        <pt on="0" x="411" y="756" />
        <pt on="1" x="411" y="892" />
        <pt on="0" x="411" y="1026" />
        <pt on="1" x="459" y="1151" />
        <pt on="0" x="506" y="1273" />
        <pt on="1" x="597" y="1369" />
        <pt on="0" x="648" y="1421" />
        <pt on="1" x="703" y="1450" />
        <pt on="0" x="760" y="1480" />
        <pt on="1" x="810" y="1480" />
        <pt on="0" x="894" y="1480" />
        <pt on="1" x="944" y="1404" />
        <pt on="0" x="993" y="1328" />
        <pt on="1" x="993" y="1195" />
        <pt on="0" x="993" y="1051" />
        <pt on="1" x="944" y="866" />
        <pt on="0" x="893" y="677" />
        <pt on="1" x="800" y="460" />
        <pt on="0" x="816" y="455" />
        <pt on="1" x="857" y="449" />
        <pt on="0" x="899" y="445" />
        <pt on="1" x="919" y="445" />
        <pt on="1" x="911" y="413" />
        <pt on="0" x="891" y="413" />
        <pt on="1" x="851" y="417" />
        <pt on="0" x="832" y="418" />
        <pt on="1" x="788" y="429" />
        <pt on="0" x="682" y="208" />
        <pt on="1" x="526" y="101" />
        <pt on="0" x="371" y="-6" />
        <pt on="1" x="155" y="-6" />
        <pt on="0" x="39" y="-6" />
        <pt on="1" x="-64" y="17" />
        <pt on="0" x="-173" y="41" />
        <pt on="1" x="-286" y="89" />
      </contour>
      <contour>
        <pt on="1" x="159" y="472" />
        <pt on="0" x="146" y="579" />
        <pt on="1" x="258" y="611" />
        <pt on="0" x="310" y="623" />
        <pt on="0" x="410" y="584" />
        <pt on="1" x="426" y="535" />
        <pt on="0" x="429" y="528" />
        <pt on="0" x="441" y="475" />
        <pt on="1" x="423" y="443" />
        <pt on="0" x="378" y="365" />
        <pt on="0" x="257" y="217" />
        <pt on="1" x="246" y="135" />
        <pt on="0" x="201" y="203" />
        <pt on="0" x="26" y="273" />
        <pt on="1" x="-46" y="320" />
        <pt on="0" x="-76" y="339" />
        <pt on="0" x="-94" y="385" />
        <pt on="1" x="-99" y="396" />
        <pt on="0" x="-110" y="446" />
        <pt on="0" x="-47" y="530" />
        <pt on="1" x="4" y="545" />
        <pt on="0" x="116" y="572" />
      </contour>
    </TTGlyph>
    <TTGlyph name="Iacute" xMax="993" xMin="-286" yMax="1798" yMin="-6">
      <contour>
        <pt on="1" x="671" y="507" />
        <pt on="0" x="766" y="760" />
        <pt on="1" x="821" y="974" />
        <pt on="0" x="874" y="1189" />
        <pt on="1" x="874" y="1316" />
        <pt on="0" x="874" y="1387" />
        <pt on="1" x="858" y="1418" />
        <pt on="0" x="841" y="1449" />
        <pt on="1" x="806" y="1449" />
        <pt on="0" x="706" y="1449" />
        <pt on="1" x="615" y="1260" />
        <pt on="0" x="524" y="1068" />
        <pt on="1" x="524" y="824" />
        <pt on="0" x="524" y="716" />
        <pt on="1" x="560" y="638" />
        <pt on="0" x="594" y="560" />
        <pt on="1" x="671" y="507" />
      </contour>
      <contour>
        <pt on="1" x="-286" y="89" />
        <pt on="1" x="-211" y="177" />
        <pt on="0" x="-92" y="100" />
        <pt on="1" x="0" y="66" />
        <pt on="0" x="98" y="28" />
        <pt on="1" x="177" y="28" />
        <pt on="0" x="325" y="28" />
        <pt on="1" x="448" y="141" />
        <pt on="0" x="571" y="257" />
        <pt on="1" x="659" y="476" />
        <pt on="0" x="532" y="549" />
        <pt on="1" x="472" y="651" />
        <pt on="0" x="411" y="756" />
        <pt on="1" x="411" y="892" />
        <pt on="0" x="411" y="1026" />
        <pt on="1" x="459" y="1151" />
        <pt on="0" x="506" y="1273" />
        <pt on="1" x="597" y="1369" />
        <pt on="0" x="648" y="1421" />
        <pt on="1" x="703" y="1450" />
        <pt on="0" x="760" y="1480" />
        <pt on="1" x="810" y="1480" />
        <pt on="0" x="894" y="1480" />
        <pt on="1" x="944" y="1404" />
        <pt on="0" x="993" y="1328" />
        <pt on="1" x="993" y="1195" />
        <pt on="0" x="993" y="1051" />
        <pt on="1" x="944" y="866" />
        <pt on="0" x="893" y="677" />
        <pt on="1" x="800" y="460" />
        <pt on="0" x="816" y="455" />
        <pt on="1" x="857" y="449" />
        <pt on="0" x="899" y="445" />
        <pt on="1" x="919" y="445" />
        <pt on="1" x="911" y="413" />
        <pt on="0" x="891" y="413" />
        <pt on="1" x="851" y="417" />
        <pt on="0" x="832" y="418" />
        <pt on="1" x="788" y="429" />
        <pt on="0" x="682" y="208" />
        <pt on="1" x="526" y="101" />
        <pt on="0" x="371" y="-6" />
        <pt on="1" x="155" y="-6" />
        <pt on="0" x="39" y="-6" />
        <pt on="1" x="-64" y="17" />
        <pt on="0" x="-173" y="41" />
        <pt on="1" x="-286" y="89" />
      </contour>
      <contour>
        <pt on="1" x="159" y="472" />
        <pt on="0" x="146" y="579" />
        <pt on="1" x="258" y="611" />
        <pt on="0" x="310" y="623" />
        <pt on="0" x="410" y="584" />
        <pt on="1" x="426" y="535" />
        <pt on="0" x="429" y="528" />
        <pt on="0" x="441" y="475" />
        <pt on="1" x="423" y="443" />
        <pt on="0" x="378" y="365" />
        <pt on="0" x="257" y="217" />
        <pt on="1" x="246" y="135" />
        <pt on="0" x="201" y="203" />
        <pt on="0" x="26" y="273" />
        <pt on="1" x="-46" y="320" />
        <pt on="0" x="-76" y="339" />
        <pt on="0" x="-94" y="385" />
        <pt on="1" x="-99" y="396" />
        <pt on="0" x="-110" y="446" />
        <pt on="0" x="-47" y="530" />
        <pt on="1" x="4" y="545" />
        <pt on="0" x="116" y="572" />
      </contour>
      <contour>
        <pt on="1" x="710" y="1546" />
        <pt on="0" x="702" y="1547" />
        <pt on="1" x="700" y="1550" />
        <pt on="0" x="696" y="1552" />
        <pt on="1" x="696" y="1559" />
        <pt on="0" x="696" y="1560" />
        <pt on="1" x="748" y="1593" />
        <pt on="0" x="799" y="1622" />
        <pt on="1" x="825" y="1665" />
        <pt on="0" x="837" y="1690" />
        <pt on="1" x="851" y="1733" />
        <pt on="0" x="870" y="1798" />
        <pt on="1" x="907" y="1798" />
        <pt on="0" x="927" y="1798" />
        <pt on="1" x="939" y="1785" />
        <pt on="0" x="952" y="1770" />
        <pt on="1" x="952" y="1749" />
        <pt on="0" x="952" y="1727" />
        <pt on="1" x="933" y="1699" />
        <pt on="0" x="915" y="1674" />
        <pt on="1" x="874" y="1638" />
        <pt on="0" x="831" y="1601" />
        <pt on="1" x="778" y="1574" />
        <pt on="0" x="725" y="1546" />
      </contour>
    </TTGlyph>
    <TTGlyph name="Icircumflex" xMax="1017" xMin="-286" yMax="1793" yMin="-6">
      <contour>
        <pt on="1" x="671" y="507" />
        <pt on="0" x="766" y="760" />
        <pt on="1" x="821" y="974" />
        <pt on="0" x="874" y="1189" />
        <pt on="1" x="874" y="1316" />
        <pt on="0" x="874" y="1387" />
        <pt on="1" x="858" y="1418" />
        <pt on="0" x="841" y="1449" />
        <pt on="1" x="806" y="1449" />
        <pt on="0" x="706" y="1449" />
        <pt on="1" x="615" y="1260" />
        <pt on="0" x="524" y="1068" />
        <pt on="1" x="524" y="824" />
        <pt on="0" x="524" y="716" />
        <pt on="1" x="560" y="638" />
        <pt on="0" x="594" y="560" />
        <pt on="1" x="671" y="507" />
      </contour>
      <contour>
        <pt on="1" x="-286" y="89" />
        <pt on="1" x="-211" y="177" />
        <pt on="0" x="-92" y="100" />
        <pt on="1" x="0" y="66" />
        <pt on="0" x="98" y="28" />
        <pt on="1" x="177" y="28" />
        <pt on="0" x="325" y="28" />
        <pt on="1" x="448" y="141" />
        <pt on="0" x="571" y="257" />
        <pt on="1" x="659" y="476" />
        <pt on="0" x="532" y="549" />
        <pt on="1" x="472" y="651" />
        <pt on="0" x="411" y="756" />
        <pt on="1" x="411" y="892" />
        <pt on="0" x="411" y="1026" />
        <pt on="1" x="459" y="1151" />
        <pt on="0" x="506" y="1273" />
        <pt on="1" x="597" y="1369" />
        <pt on="0" x="648" y="1421" />
        <pt on="1" x="703" y="1450" />
        <pt on="0" x="760" y="1480" />
        <pt on="1" x="810" y="1480" />
        <pt on="0" x="894" y="1480" />
        <pt on="1" x="944" y="1404" />
        <pt on="0" x="993" y="1328" />
        <pt on="1" x="993" y="1195" />
        <pt on="0" x="993" y="1051" />
        <pt on="1" x="944" y="866" />
        <pt on="0" x="893" y="677" />
        <pt on="1" x="800" y="460" />
        <pt on="0" x="816" y="455" />
        <pt on="1" x="857" y="449" />
        <pt on="0" x="899" y="445" />
        <pt on="1" x="919" y="445" />
        <pt on="1" x="911" y="413" />
        <pt on="0" x="891" y="413" />
        <pt on="1" x="851" y="417" />
        <pt on="0" x="832" y="418" />
        <pt on="1" x="788" y="429" />
        <pt on="0" x="682" y="208" />
        <pt on="1" x="526" y="101" />
        <pt on="0" x="371" y="-6" />
        <pt on="1" x="155" y="-6" />
        <pt on="0" x="39" y="-6" />
        <pt on="1" x="-64" y="17" />
        <pt on="0" x="-173" y="41" />
        <pt on="1" x="-286" y="89" />
      </contour>
      <contour>
        <pt on="1" x="159" y="472" />
        <pt on="0" x="146" y="579" />
        <pt on="1" x="258" y="611" />
        <pt on="0" x="310" y="623" />
        <pt on="0" x="410" y="584" />
        <pt on="1" x="426" y="535" />
        <pt on="0" x="429" y="528" />
        <pt on="0" x="441" y="475" />
        <pt on="1" x="423" y="443" />
        <pt on="0" x="378" y="365" />
        <pt on="0" x="257" y="217" />
        <pt on="1" x="246" y="135" />
        <pt on="0" x="201" y="203" />
        <pt on="0" x="26" y="273" />
        <pt on="1" x="-46" y="320" />
        <pt on="0" x="-76" y="339" />
        <pt on="0" x="-94" y="385" />
        <pt on="1" x="-99" y="396" />
        <pt on="0" x="-110" y="446" />
        <pt on="0" x="-47" y="530" />
        <pt on="1" x="4" y="545" />
        <pt on="0" x="116" y="572" />
      </contour>
      <contour>
        <pt on="1" x="884" y="1793" />
        <pt on="1" x="914" y="1793" />
        <pt on="0" x="937" y="1710" />
        <pt on="1" x="977" y="1637" />
        <pt on="0" x="1017" y="1562" />
        <pt on="1" x="1017" y="1558" />
        <pt on="0" x="1015" y="1552" />
        <pt on="1" x="1015" y="1552" />
        <pt on="0" x="1014" y="1552" />
        <pt on="0" x="1009" y="1551" />
        <pt on="1" x="1006" y="1551" />
        <pt on="0" x="995" y="1551" />
        <pt on="1" x="957" y="1589" />
        <pt on="0" x="920" y="1627" />
        <pt on="1" x="884" y="1683" />
        <pt on="0" x="823" y="1627" />
        <pt on="1" x="761" y="1588" />
        <pt on="0" x="700" y="1551" />
        <pt on="1" x="677" y="1551" />
        <pt on="0" x="671" y="1551" />
        <pt on="1" x="667" y="1553" />
        <pt on="0" x="666" y="1555" />
        <pt on="1" x="664" y="1561" />
        <pt on="0" x="664" y="1564" />
        <pt on="1" x="742" y="1636" />
        <pt on="0" x="823" y="1710" />
      </contour>
    </TTGlyph>
    <TTGlyph name="Idieresis" xMax="1022" xMin="-286" yMax="1664" yMin="-6">
      <contour>
        <pt on="1" x="671" y="507" />
        <pt on="0" x="766" y="760" />
        <pt on="1" x="821" y="974" />
        <pt on="0" x="874" y="1189" />
        <pt on="1" x="874" y="1316" />
        <pt on="0" x="874" y="1387" />
        <pt on="1" x="858" y="1418" />
        <pt on="0" x="841" y="1449" />
        <pt on="1" x="806" y="1449" />
        <pt on="0" x="706" y="1449" />
        <pt on="1" x="615" y="1260" />
        <pt on="0" x="524" y="1068" />
        <pt on="1" x="524" y="824" />
        <pt on="0" x="524" y="716" />
        <pt on="1" x="560" y="638" />
        <pt on="0" x="594" y="560" />
        <pt on="1" x="671" y="507" />
      </contour>
      <contour>
        <pt on="1" x="-286" y="89" />
        <pt on="1" x="-211" y="177" />
        <pt on="0" x="-92" y="100" />
        <pt on="1" x="0" y="66" />
        <pt on="0" x="98" y="28" />
        <pt on="1" x="177" y="28" />
        <pt on="0" x="325" y="28" />
        <pt on="1" x="448" y="141" />
        <pt on="0" x="571" y="257" />
        <pt on="1" x="659" y="476" />
        <pt on="0" x="532" y="549" />
        <pt on="1" x="472" y="651" />
        <pt on="0" x="411" y="756" />
        <pt on="1" x="411" y="892" />
        <pt on="0" x="411" y="1026" />
        <pt on="1" x="459" y="1151" />
        <pt on="0" x="506" y="1273" />
        <pt on="1" x="597" y="1369" />
        <pt on="0" x="648" y="1421" />
        <pt on="1" x="703" y="1450" />
        <pt on="0" x="760" y="1480" />
        <pt on="1" x="810" y="1480" />
        <pt on="0" x="894" y="1480" />
        <pt on="1" x="944" y="1404" />
        <pt on="0" x="993" y="1328" />
        <pt on="1" x="993" y="1195" />
        <pt on="0" x="993" y="1051" />
        <pt on="1" x="944" y="866" />
        <pt on="0" x="893" y="677" />
        <pt on="1" x="800" y="460" />
        <pt on="0" x="816" y="455" />
        <pt on="1" x="857" y="449" />
        <pt on="0" x="899" y="445" />
        <pt on="1" x="919" y="445" />
        <pt on="1" x="911" y="413" />
        <pt on="0" x="891" y="413" />
        <pt on="1" x="851" y="417" />
        <pt on="0" x="832" y="418" />
        <pt on="1" x="788" y="429" />
        <pt on="0" x="682" y="208" />
        <pt on="1" x="526" y="101" />
        <pt on="0" x="371" y="-6" />
        <pt on="1" x="155" y="-6" />
        <pt on="0" x="39" y="-6" />
        <pt on="1" x="-64" y="17" />
        <pt on="0" x="-173" y="41" />
        <pt on="1" x="-286" y="89" />
      </contour>
      <contour>
        <pt on="1" x="159" y="472" />
        <pt on="0" x="146" y="579" />
        <pt on="1" x="258" y="611" />
        <pt on="0" x="310" y="623" />
        <pt on="0" x="410" y="584" />
        <pt on="1" x="426" y="535" />
        <pt on="0" x="429" y="528" />
        <pt on="0" x="441" y="475" />
        <pt on="1" x="423" y="443" />
        <pt on="0" x="378" y="365" />
        <pt on="0" x="257" y="217" />
        <pt on="1" x="246" y="135" />
        <pt on="0" x="201" y="203" />
        <pt on="0" x="26" y="273" />
        <pt on="1" x="-46" y="320" />
        <pt on="0" x="-76" y="339" />
        <pt on="0" x="-94" y="385" />
        <pt on="1" x="-99" y="396" />
        <pt on="0" x="-110" y="446" />
        <pt on="0" x="-47" y="530" />
        <pt on="1" x="4" y="545" />
        <pt on="0" x="116" y="572" />
      </contour>
      <contour>
        <pt on="1" x="666" y="1608" />
        <pt on="0" x="666" y="1631" />
        <pt on="1" x="682" y="1647" />
        <pt on="0" x="699" y="1664" />
        <pt on="1" x="721" y="1664" />
        <pt on="0" x="743" y="1664" />
        <pt on="1" x="761" y="1648" />
        <pt on="0" x="777" y="1632" />
        <pt on="1" x="777" y="1608" />
        <pt on="0" x="777" y="1585" />
        <pt on="1" x="761" y="1569" />
        <pt on="0" x="745" y="1553" />
        <pt on="1" x="721" y="1553" />
        <pt on="0" x="699" y="1553" />
        <pt on="1" x="682" y="1569" />
        <pt on="0" x="666" y="1586" />
      </contour>
      <contour>
        <pt on="1" x="911" y="1608" />
        <pt on="0" x="911" y="1632" />
        <pt on="1" x="927" y="1648" />
        <pt on="0" x="943" y="1664" />
        <pt on="1" x="967" y="1664" />
        <pt on="0" x="991" y="1664" />
        <pt on="1" x="1006" y="1648" />
        <pt on="0" x="1022" y="1632" />
        <pt on="1" x="1022" y="1608" />
        <pt on="0" x="1022" y="1586" />
        <pt on="1" x="1006" y="1569" />
        <pt on="0" x="990" y="1553" />
        <pt on="1" x="967" y="1553" />
        <pt on="0" x="944" y="1553" />
        <pt on="1" x="927" y="1569" />
        <pt on="0" x="911" y="1585" />
      </contour>
    </TTGlyph>
    <TTGlyph name="Igrave" xMax="1013" xMin="-286" yMax="1791" yMin="-6">
      <contour>
        <pt on="1" x="671" y="507" />
        <pt on="0" x="766" y="760" />
        <pt on="1" x="821" y="974" />
        <pt on="0" x="874" y="1189" />
        <pt on="1" x="874" y="1316" />
        <pt on="0" x="874" y="1387" />
        <pt on="1" x="858" y="1418" />
        <pt on="0" x="841" y="1449" />
        <pt on="1" x="806" y="1449" />
        <pt on="0" x="706" y="1449" />
        <pt on="1" x="615" y="1260" />
        <pt on="0" x="524" y="1068" />
        <pt on="1" x="524" y="824" />
        <pt on="0" x="524" y="716" />
        <pt on="1" x="560" y="638" />
        <pt on="0" x="594" y="560" />
        <pt on="1" x="671" y="507" />
      </contour>
      <contour>
        <pt on="1" x="-286" y="89" />
        <pt on="1" x="-211" y="177" />
        <pt on="0" x="-92" y="100" />
        <pt on="1" x="0" y="66" />
        <pt on="0" x="98" y="28" />
        <pt on="1" x="177" y="28" />
        <pt on="0" x="325" y="28" />
        <pt on="1" x="448" y="141" />
        <pt on="0" x="571" y="257" />
        <pt on="1" x="659" y="476" />
        <pt on="0" x="532" y="549" />
        <pt on="1" x="472" y="651" />
        <pt on="0" x="411" y="756" />
        <pt on="1" x="411" y="892" />
        <pt on="0" x="411" y="1026" />
        <pt on="1" x="459" y="1151" />
        <pt on="0" x="506" y="1273" />
        <pt on="1" x="597" y="1369" />
        <pt on="0" x="648" y="1421" />
        <pt on="1" x="703" y="1450" />
        <pt on="0" x="760" y="1480" />
        <pt on="1" x="810" y="1480" />
        <pt on="0" x="894" y="1480" />
        <pt on="1" x="944" y="1404" />
        <pt on="0" x="993" y="1328" />
        <pt on="1" x="993" y="1195" />
        <pt on="0" x="993" y="1051" />
        <pt on="1" x="944" y="866" />
        <pt on="0" x="893" y="677" />
        <pt on="1" x="800" y="460" />
        <pt on="0" x="816" y="455" />
        <pt on="1" x="857" y="449" />
        <pt on="0" x="899" y="445" />
        <pt on="1" x="919" y="445" />
        <pt on="1" x="911" y="413" />
        <pt on="0" x="891" y="413" />
        <pt on="1" x="851" y="417" />
        <pt on="0" x="832" y="418" />
        <pt on="1" x="788" y="429" />
        <pt on="0" x="682" y="208" />
        <pt on="1" x="526" y="101" />
        <pt on="0" x="371" y="-6" />
        <pt on="1" x="155" y="-6" />
        <pt on="0" x="39" y="-6" />
        <pt on="1" x="-64" y="17" />
        <pt on="0" x="-173" y="41" />
        <pt on="1" x="-286" y="89" />
      </contour>
      <contour>
        <pt on="1" x="159" y="472" />
        <pt on="0" x="146" y="579" />
        <pt on="1" x="258" y="611" />
        <pt on="0" x="310" y="623" />
        <pt on="0" x="410" y="584" />
        <pt on="1" x="426" y="535" />
        <pt on="0" x="429" y="528" />
        <pt on="0" x="441" y="475" />
        <pt on="1" x="423" y="443" />
        <pt on="0" x="378" y="365" />
        <pt on="0" x="257" y="217" />
        <pt on="1" x="246" y="135" />
        <pt on="0" x="201" y="203" />
        <pt on="0" x="26" y="273" />
        <pt on="1" x="-46" y="320" />
        <pt on="0" x="-76" y="339" />
        <pt on="0" x="-94" y="385" />
        <pt on="1" x="-99" y="396" />
        <pt on="0" x="-110" y="446" />
        <pt on="0" x="-47" y="530" />
        <pt on="1" x="4" y="545" />
        <pt on="0" x="116" y="572" />
      </contour>
      <contour>
        <pt on="1" x="998" y="1535" />
        <pt on="0" x="982" y="1535" />
        <pt on="1" x="949" y="1558" />
        <pt on="0" x="923" y="1574" />
        <pt on="1" x="874" y="1616" />
        <pt on="0" x="831" y="1655" />
        <pt on="1" x="809" y="1687" />
        <pt on="0" x="787" y="1719" />
        <pt on="1" x="787" y="1741" />
        <pt on="0" x="787" y="1765" />
        <pt on="1" x="799" y="1777" />
        <pt on="0" x="811" y="1791" />
        <pt on="1" x="831" y="1791" />
        <pt on="0" x="871" y="1791" />
        <pt on="1" x="891" y="1710" />
        <pt on="0" x="894" y="1694" />
        <pt on="0" x="900" y="1668" />
        <pt on="1" x="903" y="1659" />
        <pt on="0" x="916" y="1618" />
        <pt on="1" x="964" y="1585" />
        <pt on="0" x="1013" y="1548" />
        <pt on="1" x="1013" y="1545" />
        <pt on="0" x="1013" y="1541" />
        <pt on="1" x="1008" y="1538" />
        <pt on="0" x="1003" y="1535" />
      </contour>
    </TTGlyph>
    <TTGlyph name="J" xMax="855" xMin="-235" yMax="1801" yMin="-469">
      <contour>
        <pt on="1" x="517" y="359" />
        <pt on="0" x="201" y="303" />
        <pt on="1" x="0" y="121" />
        <pt on="0" x="-203" y="-60" />
        <pt on="1" x="-203" y="-274" />
        <pt on="0" x="-203" y="-336" />
        <pt on="1" x="-164" y="-377" />
        <pt on="0" x="-126" y="-418" />
        <pt on="1" x="-69" y="-418" />
        <pt on="0" x="54" y="-418" />
        <pt on="1" x="210" y="-213" />
        <pt on="0" x="365" y="-7" />
        <pt on="1" x="517" y="359" />
      </contour>
      <contour>
        <pt on="1" x="462" y="622" />
        <pt on="0" x="418" y="721" />
        <pt on="1" x="400" y="805" />
        <pt on="0" x="380" y="891" />
        <pt on="1" x="380" y="970" />
        <pt on="0" x="380" y="1072" />
        <pt on="1" x="415" y="1181" />
        <pt on="0" x="450" y="1289" />
        <pt on="1" x="509" y="1371" />
        <pt on="0" x="550" y="1427" />
        <pt on="1" x="590" y="1454" />
        <pt on="0" x="631" y="1480" />
        <pt on="1" x="677" y="1480" />
        <pt on="0" x="754" y="1480" />
        <pt on="1" x="805" y="1393" />
        <pt on="0" x="855" y="1303" />
        <pt on="1" x="855" y="1166" />
        <pt on="0" x="855" y="1054" />
        <pt on="1" x="828" y="910" />
        <pt on="0" x="799" y="765" />
        <pt on="1" x="747" y="609" />
        <pt on="1" x="694" y="450" />
        <pt on="0" x="708" y="451" />
        <pt on="0" x="739" y="455" />
        <pt on="1" x="756" y="457" />
        <pt on="0" x="796" y="460" />
        <pt on="1" x="822" y="462" />
        <pt on="1" x="806" y="398" />
        <pt on="0" x="798" y="398" />
        <pt on="1" x="790" y="397" />
        <pt on="0" x="701" y="387" />
        <pt on="1" x="675" y="382" />
        <pt on="0" x="534" y="-10" />
        <pt on="1" x="337" y="-239" />
        <pt on="0" x="140" y="-469" />
        <pt on="1" x="-45" y="-469" />
        <pt on="0" x="-135" y="-469" />
        <pt on="1" x="-185" y="-416" />
        <pt on="0" x="-235" y="-362" />
        <pt on="1" x="-235" y="-266" />
        <pt on="0" x="-235" y="-42" />
        <pt on="1" x="-16" y="157" />
        <pt on="0" x="200" y="355" />
        <pt on="1" x="546" y="425" />
        <pt on="0" x="653" y="763" />
        <pt on="1" x="694" y="951" />
        <pt on="0" x="740" y="1154" />
        <pt on="1" x="740" y="1273" />
        <pt on="0" x="740" y="1355" />
        <pt on="1" x="717" y="1405" />
        <pt on="0" x="693" y="1451" />
        <pt on="1" x="653" y="1451" />
        <pt on="0" x="583" y="1451" />
        <pt on="1" x="522" y="1320" />
        <pt on="0" x="460" y="1188" />
        <pt on="1" x="460" y="1017" />
        <pt on="0" x="460" y="942" />
        <pt on="1" x="479" y="862" />
        <pt on="0" x="498" y="785" />
        <pt on="1" x="536" y="706" />
      </contour>
      <contour>
        <pt on="1" x="508" y="1682" />
        <pt on="0" x="534" y="1773" />
        <pt on="1" x="636" y="1761" />
        <pt on="0" x="682" y="1752" />
        <pt on="0" x="749" y="1687" />
        <pt on="1" x="746" y="1642" />
        <pt on="0" x="746" y="1635" />
        <pt on="0" x="737" y="1588" />
        <pt on="1" x="712" y="1568" />
        <pt on="0" x="649" y="1520" />
        <pt on="0" x="499" y="1443" />
        <pt on="1" x="462" y="1380" />
        <pt on="0" x="450" y="1450" />
        <pt on="0" x="332" y="1567" />
        <pt on="1" x="289" y="1630" />
        <pt on="0" x="270" y="1656" />
        <pt on="0" x="272" y="1699" />
        <pt on="1" x="272" y="1710" />
        <pt on="0" x="280" y="1754" />
        <pt on="0" x="360" y="1801" />
        <pt on="1" x="408" y="1795" />
        <pt on="0" x="506" y="1777" />
      </contour>
    </TTGlyph>
    <TTGlyph name="K" xMax="1724" xMin="-524" yMax="1478" yMin="-199">
      <contour>
        <pt on="1" x="1246" y="-2" />
        <pt on="1" x="855" y="574" />
        <pt on="1" x="1574" y="1463" />
        <pt on="1" x="1724" y="1463" />
        <pt on="1" x="964" y="673" />
        <pt on="1" x="1351" y="107" />
      </contour>
      <contour>
        <pt on="1" x="-524" y="-142" />
        <pt on="1" x="-430" y="-43" />
        <pt on="0" x="-320" y="-98" />
        <pt on="1" x="-223" y="-127" />
        <pt on="0" x="-122" y="-156" />
        <pt on="1" x="-38" y="-156" />
        <pt on="0" x="208" y="-156" />
        <pt on="1" x="387" y="71" />
        <pt on="0" x="475" y="185" />
        <pt on="0" x="715" y="737" />
        <pt on="1" x="775" y="974" />
        <pt on="1" x="886" y="1416" />
        <pt on="1" x="1066" y="1478" />
        <pt on="1" x="890" y="832" />
        <pt on="0" x="840" y="649" />
        <pt on="0" x="605" y="145" />
        <pt on="1" x="466" y="23" />
        <pt on="0" x="337" y="-87" />
        <pt on="1" x="184" y="-142" />
        <pt on="0" x="22" y="-199" />
        <pt on="1" x="-153" y="-199" />
        <pt on="0" x="-245" y="-199" />
        <pt on="1" x="-339" y="-185" />
        <pt on="0" x="-425" y="-172" />
        <pt on="1" x="-524" y="-142" />
      </contour>
      <contour>
        <pt on="1" x="361" y="771" />
        <pt on="0" x="343" y="838" />
        <pt on="1" x="409" y="868" />
        <pt on="0" x="488" y="900" />
        <pt on="1" x="521" y="838" />
        <pt on="0" x="523" y="833" />
        <pt on="0" x="536" y="801" />
        <pt on="1" x="528" y="780" />
        <pt on="0" x="507" y="727" />
        <pt on="0" x="447" y="623" />
        <pt on="1" x="449" y="570" />
        <pt on="0" x="414" y="608" />
        <pt on="0" x="298" y="635" />
        <pt on="1" x="248" y="656" />
        <pt on="0" x="227" y="665" />
        <pt on="0" x="211" y="692" />
        <pt on="1" x="207" y="699" />
        <pt on="0" x="180" y="766" />
        <pt on="1" x="257" y="802" />
        <pt on="0" x="324" y="828" />
      </contour>
      <contour>
        <pt on="1" x="125" y="397" />
        <pt on="0" x="112" y="515" />
        <pt on="1" x="236" y="552" />
        <pt on="0" x="294" y="566" />
        <pt on="0" x="406" y="521" />
        <pt on="1" x="424" y="467" />
        <pt on="0" x="427" y="459" />
        <pt on="0" x="441" y="401" />
        <pt on="1" x="420" y="365" />
        <pt on="0" x="370" y="278" />
        <pt on="0" x="234" y="112" />
        <pt on="1" x="222" y="20" />
        <pt on="0" x="172" y="96" />
        <pt on="0" x="-22" y="175" />
        <pt on="1" x="-104" y="226" />
        <pt on="0" x="-138" y="248" />
        <pt on="0" x="-157" y="300" />
        <pt on="1" x="-163" y="312" />
        <pt on="0" x="-175" y="368" />
        <pt on="0" x="-104" y="461" />
        <pt on="1" x="-47" y="478" />
        <pt on="0" x="77" y="507" />
      </contour>
    </TTGlyph>
    <TTGlyph name="L" xMax="1361" xMin="-246" yMax="1480" yMin="-25">
      <contour>
        <pt on="1" x="388" y="146" />
        <pt on="0" x="267" y="197" />
        <pt on="1" x="176" y="222" />
        <pt on="0" x="80" y="249" />
        <pt on="1" x="16" y="249" />
        <pt on="0" x="-74" y="249" />
        <pt on="1" x="-133" y="215" />
        <pt on="0" x="-190" y="179" />
        <pt on="1" x="-190" y="126" />
        <pt on="0" x="-190" y="69" />
        <pt on="1" x="-135" y="39" />
        <pt on="0" x="-78" y="7" />
        <pt on="1" x="18" y="7" />
        <pt on="0" x="111" y="7" />
        <pt on="1" x="204" y="43" />
        <pt on="0" x="296" y="77" />
        <pt on="1" x="388" y="146" />
      </contour>
      <contour>
        <pt on="1" x="1263" y="106" />
        <pt on="1" x="1215" y="-2" />
        <pt on="0" x="1016" y="-13" />
        <pt on="0" x="658" y="40" />
        <pt on="1" x="464" y="120" />
        <pt on="0" x="351" y="46" />
        <pt on="1" x="245" y="11" />
        <pt on="0" x="134" y="-25" />
        <pt on="1" x="24" y="-25" />
        <pt on="0" x="-101" y="-25" />
        <pt on="1" x="-174" y="19" />
        <pt on="0" x="-246" y="64" />
        <pt on="1" x="-246" y="142" />
        <pt on="0" x="-246" y="225" />
        <pt on="1" x="-159" y="283" />
        <pt on="0" x="-71" y="341" />
        <pt on="1" x="59" y="341" />
        <pt on="0" x="133" y="341" />
        <pt on="1" x="237" y="315" />
        <pt on="0" x="331" y="291" />
        <pt on="1" x="470" y="237" />
        <pt on="0" x="508" y="293" />
        <pt on="1" x="540" y="360" />
        <pt on="0" x="565" y="418" />
        <pt on="1" x="587" y="495" />
        <pt on="1" x="661" y="767" />
        <pt on="0" x="755" y="1115" />
        <pt on="1" x="889" y="1298" />
        <pt on="0" x="1022" y="1480" />
        <pt on="1" x="1185" y="1480" />
        <pt on="0" x="1267" y="1480" />
        <pt on="1" x="1315" y="1420" />
        <pt on="0" x="1361" y="1360" />
        <pt on="1" x="1361" y="1250" />
        <pt on="0" x="1361" y="1194" />
        <pt on="1" x="1343" y="1119" />
        <pt on="0" x="1327" y="1050" />
        <pt on="1" x="1285" y="943" />
        <pt on="1" x="1152" y="921" />
        <pt on="0" x="1209" y="1048" />
        <pt on="1" x="1238" y="1149" />
        <pt on="0" x="1268" y="1249" />
        <pt on="1" x="1268" y="1318" />
        <pt on="0" x="1268" y="1386" />
        <pt on="1" x="1247" y="1419" />
        <pt on="0" x="1226" y="1449" />
        <pt on="1" x="1175" y="1449" />
        <pt on="0" x="1098" y="1449" />
        <pt on="1" x="1019" y="1321" />
        <pt on="0" x="939" y="1195" />
        <pt on="1" x="863" y="953" />
        <pt on="1" x="794" y="736" />
        <pt on="0" x="792" y="728" />
        <pt on="1" x="783" y="701" />
        <pt on="0" x="693" y="411" />
        <pt on="1" x="546" y="210" />
        <pt on="0" x="724" y="134" />
        <pt on="0" x="1082" y="106" />
      </contour>
      <contour>
        <pt on="1" x="434" y="1100" />
        <pt on="0" x="478" y="1172" />
        <pt on="1" x="563" y="1139" />
        <pt on="0" x="602" y="1121" />
        <pt on="0" x="645" y="1048" />
        <pt on="1" x="632" y="1010" />
        <pt on="0" x="630" y="1004" />
        <pt on="0" x="613" y="965" />
        <pt on="1" x="586" y="954" />
        <pt on="0" x="520" y="927" />
        <pt on="0" x="372" y="893" />
        <pt on="1" x="326" y="847" />
        <pt on="0" x="331" y="911" />
        <pt on="0" x="255" y="1039" />
        <pt on="1" x="232" y="1104" />
        <pt on="0" x="222" y="1131" />
        <pt on="0" x="233" y="1168" />
        <pt on="1" x="236" y="1177" />
        <pt on="0" x="253" y="1214" />
        <pt on="0" x="333" y="1235" />
        <pt on="1" x="373" y="1220" />
        <pt on="0" x="454" y="1182" />
      </contour>
      <contour>
        <pt on="1" x="299" y="671" />
        <pt on="0" x="268" y="772" />
        <pt on="1" x="371" y="822" />
        <pt on="0" x="419" y="843" />
        <pt on="0" x="522" y="822" />
        <pt on="1" x="546" y="778" />
        <pt on="0" x="550" y="772" />
        <pt on="0" x="572" y="723" />
        <pt on="1" x="560" y="689" />
        <pt on="0" x="530" y="606" />
        <pt on="0" x="438" y="441" />
        <pt on="1" x="442" y="360" />
        <pt on="0" x="387" y="418" />
        <pt on="0" x="205" y="455" />
        <pt on="1" x="127" y="487" />
        <pt on="0" x="93" y="500" />
        <pt on="0" x="68" y="542" />
        <pt on="1" x="62" y="552" />
        <pt on="0" x="42" y="598" />
        <pt on="0" x="89" y="690" />
        <pt on="1" x="137" y="714" />
        <pt on="0" x="241" y="758" />
      </contour>
    </TTGlyph>
    <TTGlyph name="M" xMax="1857" xMin="7" yMax="1796" yMin="-397">
      <contour>
        <pt on="1" x="132" y="1" />
        <pt on="0" x="311" y="576" />
        <pt on="1" x="394" y="905" />
        <pt on="0" x="474" y="1223" />
        <pt on="1" x="474" y="1353" />
        <pt on="0" x="474" y="1393" />
        <pt on="1" x="461" y="1414" />
        <pt on="0" x="449" y="1435" />
        <pt on="1" x="425" y="1435" />
        <pt on="0" x="373" y="1435" />
        <pt on="1" x="298" y="1307" />
        <pt on="0" x="221" y="1175" />
        <pt on="1" x="104" y="890" />
        <pt on="1" x="7" y="976" />
        <pt on="0" x="139" y="1252" />
        <pt on="1" x="237" y="1360" />
        <pt on="0" x="333" y="1467" />
        <pt on="1" x="440" y="1467" />
        <pt on="0" x="509" y="1467" />
        <pt on="1" x="547" y="1405" />
        <pt on="0" x="585" y="1342" />
        <pt on="1" x="585" y="1228" />
        <pt on="0" x="585" y="1121" />
        <pt on="1" x="527" y="893" />
        <pt on="0" x="467" y="661" />
        <pt on="1" x="311" y="169" />
        <pt on="0" x="598" y="859" />
        <pt on="1" x="787" y="1169" />
        <pt on="0" x="974" y="1474" />
        <pt on="1" x="1109" y="1474" />
        <pt on="0" x="1179" y="1474" />
        <pt on="1" x="1215" y="1428" />
        <pt on="0" x="1253" y="1382" />
        <pt on="1" x="1253" y="1297" />
        <pt on="0" x="1253" y="1230" />
        <pt on="1" x="1222" y="1117" />
        <pt on="0" x="1207" y="1059" />
        <pt on="0" x="1140" y="858" />
        <pt on="1" x="1091" y="716" />
        <pt on="1" x="1062" y="633" />
        <pt on="0" x="923" y="229" />
        <pt on="1" x="923" y="177" />
        <pt on="0" x="923" y="171" />
        <pt on="0" x="924" y="165" />
        <pt on="1" x="924" y="165" />
        <pt on="0" x="926" y="163" />
        <pt on="1" x="929" y="163" />
        <pt on="0" x="965" y="163" />
        <pt on="1" x="1151" y="602" />
        <pt on="0" x="1173" y="654" />
        <pt on="0" x="1209" y="737" />
        <pt on="1" x="1222" y="767" />
        <pt on="0" x="1386" y="1150" />
        <pt on="1" x="1502" y="1310" />
        <pt on="0" x="1619" y="1474" />
        <pt on="1" x="1728" y="1474" />
        <pt on="0" x="1789" y="1474" />
        <pt on="1" x="1823" y="1424" />
        <pt on="0" x="1857" y="1371" />
        <pt on="1" x="1857" y="1279" />
        <pt on="0" x="1857" y="1200" />
        <pt on="0" x="1778" y="874" />
        <pt on="1" x="1709" y="637" />
        <pt on="0" x="1674" y="518" />
        <pt on="0" x="1587" y="218" />
        <pt on="0" x="1503" y="-75" />
        <pt on="0" x="1433" y="-326" />
        <pt on="1" x="1416" y="-397" />
        <pt on="1" x="1289" y="-330" />
        <pt on="0" x="1311" y="-244" />
        <pt on="0" x="1388" y="29" />
        <pt on="0" x="1477" y="337" />
        <pt on="0" x="1567" y="643" />
        <pt on="1" x="1603" y="761" />
        <pt on="0" x="1673" y="995" />
        <pt on="0" x="1754" y="1295" />
        <pt on="1" x="1754" y="1351" />
        <pt on="0" x="1754" y="1391" />
        <pt on="1" x="1741" y="1413" />
        <pt on="0" x="1727" y="1435" />
        <pt on="1" x="1701" y="1435" />
        <pt on="0" x="1623" y="1435" />
        <pt on="1" x="1511" y="1265" />
        <pt on="0" x="1397" y="1089" />
        <pt on="1" x="1249" y="746" />
        <pt on="1" x="1234" y="712" />
        <pt on="0" x="925" y="-2" />
        <pt on="1" x="829" y="-2" />
        <pt on="0" x="808" y="-2" />
        <pt on="1" x="798" y="14" />
        <pt on="0" x="788" y="30" />
        <pt on="1" x="788" y="64" />
        <pt on="0" x="788" y="142" />
        <pt on="1" x="823" y="284" />
        <pt on="0" x="857" y="420" />
        <pt on="1" x="978" y="783" />
        <pt on="0" x="1075" y="1071" />
        <pt on="1" x="1107" y="1191" />
        <pt on="0" x="1140" y="1311" />
        <pt on="1" x="1140" y="1371" />
        <pt on="0" x="1140" y="1403" />
        <pt on="1" x="1127" y="1419" />
        <pt on="0" x="1115" y="1435" />
        <pt on="1" x="1089" y="1435" />
        <pt on="0" x="975" y="1435" />
        <pt on="1" x="769" y="1071" />
        <pt on="0" x="564" y="713" />
        <pt on="1" x="274" y="1" />
      </contour>
      <contour>
        <pt on="1" x="786" y="1651" />
        <pt on="0" x="830" y="1735" />
        <pt on="1" x="926" y="1704" />
        <pt on="0" x="970" y="1686" />
        <pt on="0" x="1023" y="1608" />
        <pt on="1" x="1011" y="1565" />
        <pt on="0" x="1009" y="1559" />
        <pt on="0" x="1013" y="1524" />
        <pt on="1" x="963" y="1500" />
        <pt on="0" x="913" y="1476" />
        <pt on="0" x="731" y="1418" />
        <pt on="1" x="682" y="1364" />
        <pt on="0" x="683" y="1435" />
        <pt on="0" x="582" y="1592" />
        <pt on="1" x="561" y="1642" />
        <pt on="0" x="539" y="1691" />
        <pt on="0" x="557" y="1713" />
        <pt on="1" x="560" y="1724" />
        <pt on="0" x="576" y="1766" />
        <pt on="0" x="664" y="1796" />
        <pt on="1" x="709" y="1781" />
        <pt on="0" x="803" y="1744" />
      </contour>
    </TTGlyph>
    <TTGlyph name="N" xMax="1772" xMin="1" yMax="1766" yMin="-315">
      <contour>
        <pt on="1" x="98" y="1" />
        <pt on="1" x="364" y="865" />
        <pt on="0" x="447" y="1132" />
        <pt on="1" x="471" y="1234" />
        <pt on="0" x="497" y="1344" />
        <pt on="1" x="497" y="1400" />
        <pt on="0" x="497" y="1412" />
        <pt on="1" x="486" y="1423" />
        <pt on="0" x="474" y="1433" />
        <pt on="1" x="458" y="1433" />
        <pt on="0" x="395" y="1433" />
        <pt on="1" x="301" y="1284" />
        <pt on="0" x="204" y="1130" />
        <pt on="1" x="81" y="841" />
        <pt on="1" x="1" y="955" />
        <pt on="0" x="123" y="1199" />
        <pt on="1" x="249" y="1332" />
        <pt on="0" x="374" y="1465" />
        <pt on="1" x="483" y="1465" />
        <pt on="0" x="532" y="1465" />
        <pt on="1" x="561" y="1426" />
        <pt on="0" x="589" y="1385" />
        <pt on="1" x="589" y="1318" />
        <pt on="0" x="589" y="1215" />
        <pt on="1" x="538" y="1005" />
        <pt on="0" x="490" y="809" />
        <pt on="1" x="397" y="529" />
        <pt on="1" x="272" y="163" />
        <pt on="0" x="590" y="893" />
        <pt on="1" x="794" y="1185" />
        <pt on="0" x="996" y="1478" />
        <pt on="1" x="1171" y="1478" />
        <pt on="0" x="1240" y="1478" />
        <pt on="1" x="1279" y="1438" />
        <pt on="0" x="1318" y="1397" />
        <pt on="1" x="1318" y="1328" />
        <pt on="0" x="1318" y="1309" />
        <pt on="0" x="1308" y="1255" />
        <pt on="1" x="1304" y="1225" />
        <pt on="0" x="1299" y="1194" />
        <pt on="0" x="1274" y="1108" />
        <pt on="1" x="1263" y="1068" />
        <pt on="1" x="868" y="-315" />
        <pt on="1" x="732" y="-242" />
        <pt on="1" x="1119" y="1043" />
        <pt on="0" x="1136" y="1100" />
        <pt on="0" x="1164" y="1196" />
        <pt on="1" x="1173" y="1235" />
        <pt on="0" x="1191" y="1318" />
        <pt on="1" x="1191" y="1353" />
        <pt on="0" x="1191" y="1393" />
        <pt on="1" x="1175" y="1414" />
        <pt on="0" x="1158" y="1435" />
        <pt on="1" x="1130" y="1435" />
        <pt on="0" x="985" y="1435" />
        <pt on="1" x="759" y="1068" />
        <pt on="0" x="528" y="695" />
        <pt on="1" x="243" y="1" />
      </contour>
      <contour>
        <pt on="1" x="1537" y="1615" />
        <pt on="0" x="1587" y="1695" />
        <pt on="1" x="1681" y="1658" />
        <pt on="0" x="1724" y="1638" />
        <pt on="0" x="1772" y="1557" />
        <pt on="1" x="1757" y="1515" />
        <pt on="0" x="1755" y="1509" />
        <pt on="0" x="1757" y="1474" />
        <pt on="1" x="1706" y="1453" />
        <pt on="0" x="1654" y="1432" />
        <pt on="0" x="1468" y="1385" />
        <pt on="1" x="1417" y="1334" />
        <pt on="0" x="1423" y="1405" />
        <pt on="0" x="1330" y="1569" />
        <pt on="1" x="1312" y="1620" />
        <pt on="0" x="1294" y="1671" />
        <pt on="0" x="1314" y="1691" />
        <pt on="1" x="1317" y="1701" />
        <pt on="0" x="1335" y="1742" />
        <pt on="0" x="1425" y="1766" />
        <pt on="1" x="1469" y="1749" />
        <pt on="0" x="1561" y="1705" />
      </contour>
    </TTGlyph>
    <TTGlyph name="Ntilde" xMax="1772" xMin="1" yMax="1793" yMin="-315">
      <contour>
        <pt on="1" x="98" y="1" />
        <pt on="1" x="364" y="865" />
        <pt on="0" x="447" y="1132" />
        <pt on="1" x="471" y="1234" />
        <pt on="0" x="497" y="1344" />
        <pt on="1" x="497" y="1400" />
        <pt on="0" x="497" y="1412" />
        <pt on="1" x="486" y="1423" />
        <pt on="0" x="474" y="1433" />
        <pt on="1" x="458" y="1433" />
        <pt on="0" x="395" y="1433" />
        <pt on="1" x="301" y="1284" />
        <pt on="0" x="204" y="1130" />
        <pt on="1" x="81" y="841" />
        <pt on="1" x="1" y="955" />
        <pt on="0" x="123" y="1199" />
        <pt on="1" x="249" y="1332" />
        <pt on="0" x="374" y="1465" />
        <pt on="1" x="483" y="1465" />
        <pt on="0" x="532" y="1465" />
        <pt on="1" x="561" y="1426" />
        <pt on="0" x="589" y="1385" />
        <pt on="1" x="589" y="1318" />
        <pt on="0" x="589" y="1215" />
        <pt on="1" x="538" y="1005" />
        <pt on="0" x="490" y="809" />
        <pt on="1" x="397" y="529" />
        <pt on="1" x="272" y="163" />
        <pt on="0" x="590" y="893" />
        <pt on="1" x="794" y="1185" />
        <pt on="0" x="996" y="1478" />
        <pt on="1" x="1171" y="1478" />
        <pt on="0" x="1240" y="1478" />
        <pt on="1" x="1279" y="1438" />
        <pt on="0" x="1318" y="1397" />
        <pt on="1" x="1318" y="1328" />
        <pt on="0" x="1318" y="1309" />
        <pt on="0" x="1308" y="1255" />
        <pt on="1" x="1304" y="1225" />
        <pt on="0" x="1299" y="1194" />
        <pt on="0" x="1274" y="1108" />
        <pt on="1" x="1263" y="1068" />
        <pt on="1" x="868" y="-315" />
        <pt on="1" x="732" y="-242" />
        <pt on="1" x="1119" y="1043" />
        <pt on="0" x="1136" y="1100" />
        <pt on="0" x="1164" y="1196" />
        <pt on="1" x="1173" y="1235" />
        <pt on="0" x="1191" y="1318" />
        <pt on="1" x="1191" y="1353" />
        <pt on="0" x="1191" y="1393" />
        <pt on="1" x="1175" y="1414" />
        <pt on="0" x="1158" y="1435" />
        <pt on="1" x="1130" y="1435" />
        <pt on="0" x="985" y="1435" />
        <pt on="1" x="759" y="1068" />
        <pt on="0" x="528" y="695" />
        <pt on="1" x="243" y="1" />
      </contour>
      <contour>
        <pt on="1" x="1537" y="1615" />
        <pt on="0" x="1587" y="1695" />
        <pt on="1" x="1681" y="1658" />
        <pt on="0" x="1724" y="1638" />
        <pt on="0" x="1772" y="1557" />
        <pt on="1" x="1757" y="1515" />
        <pt on="0" x="1755" y="1509" />
        <pt on="0" x="1757" y="1474" />
        <pt on="1" x="1706" y="1453" />
        <pt on="0" x="1654" y="1432" />
        <pt on="0" x="1468" y="1385" />
        <pt on="1" x="1417" y="1334" />
        <pt on="0" x="1423" y="1405" />
        <pt on="0" x="1330" y="1569" />
        <pt on="1" x="1312" y="1620" />
        <pt on="0" x="1294" y="1671" />
        <pt on="0" x="1314" y="1691" />
        <pt on="1" x="1317" y="1701" />
        <pt on="0" x="1335" y="1742" />
        <pt on="0" x="1425" y="1766" />
        <pt on="1" x="1469" y="1749" />
        <pt on="0" x="1561" y="1705" />
      </contour>
      <contour>
        <pt on="1" x="1170" y="1793" />
        <pt on="0" x="1155" y="1726" />
        <pt on="1" x="1124" y="1694" />
        <pt on="0" x="1094" y="1662" />
        <pt on="1" x="1045" y="1662" />
        <pt on="0" x="1040" y="1662" />
        <pt on="0" x="1028" y="1663" />
        <pt on="1" x="1022" y="1663" />
        <pt on="0" x="990" y="1670" />
        <pt on="1" x="984" y="1672" />
        <pt on="1" x="894" y="1695" />
        <pt on="0" x="893" y="1695" />
        <pt on="0" x="889" y="1695" />
        <pt on="1" x="887" y="1695" />
        <pt on="0" x="855" y="1703" />
        <pt on="1" x="844" y="1703" />
        <pt on="0" x="816" y="1703" />
        <pt on="1" x="796" y="1687" />
        <pt on="0" x="777" y="1671" />
        <pt on="1" x="767" y="1639" />
        <pt on="1" x="744" y="1639" />
        <pt on="0" x="760" y="1705" />
        <pt on="1" x="789" y="1737" />
        <pt on="0" x="818" y="1768" />
        <pt on="1" x="865" y="1768" />
        <pt on="0" x="871" y="1768" />
        <pt on="1" x="893" y="1766" />
        <pt on="0" x="906" y="1764" />
        <pt on="1" x="933" y="1758" />
        <pt on="1" x="1031" y="1734" />
        <pt on="0" x="1036" y="1731" />
        <pt on="1" x="1046" y="1730" />
        <pt on="0" x="1058" y="1727" />
        <pt on="1" x="1066" y="1727" />
        <pt on="0" x="1095" y="1727" />
        <pt on="1" x="1116" y="1743" />
        <pt on="0" x="1136" y="1760" />
        <pt on="1" x="1145" y="1792" />
      </contour>
    </TTGlyph>
    <TTGlyph name="O" xMax="1372" xMin="-26" yMax="1465" yMin="-6">
      <contour>
        <pt on="1" x="1211" y="992" />
        <pt on="0" x="1211" y="1193" />
        <pt on="1" x="1112" y="1313" />
        <pt on="0" x="1013" y="1433" />
        <pt on="1" x="846" y="1433" />
        <pt on="0" x="742" y="1433" />
        <pt on="1" x="643" y="1388" />
        <pt on="0" x="543" y="1342" />
        <pt on="1" x="454" y="1254" />
        <pt on="0" x="302" y="1105" />
        <pt on="1" x="214" y="894" />
        <pt on="0" x="124" y="682" />
        <pt on="1" x="124" y="472" />
        <pt on="0" x="124" y="280" />
        <pt on="1" x="230" y="156" />
        <pt on="0" x="336" y="34" />
        <pt on="1" x="504" y="34" />
        <pt on="0" x="634" y="34" />
        <pt on="1" x="769" y="125" />
        <pt on="0" x="904" y="215" />
        <pt on="1" x="1014" y="378" />
        <pt on="0" x="1106" y="514" />
        <pt on="1" x="1160" y="677" />
        <pt on="0" x="1211" y="837" />
      </contour>
      <contour>
        <pt on="1" x="-26" y="552" />
        <pt on="0" x="-26" y="741" />
        <pt on="1" x="60" y="924" />
        <pt on="0" x="148" y="1109" />
        <pt on="1" x="302" y="1248" />
        <pt on="0" x="423" y="1355" />
        <pt on="1" x="560" y="1409" />
        <pt on="0" x="700" y="1465" />
        <pt on="1" x="848" y="1465" />
        <pt on="0" x="1086" y="1465" />
        <pt on="1" x="1229" y="1316" />
        <pt on="0" x="1372" y="1166" />
        <pt on="1" x="1372" y="923" />
        <pt on="0" x="1372" y="758" />
        <pt on="1" x="1302" y="592" />
        <pt on="0" x="1229" y="423" />
        <pt on="1" x="1102" y="286" />
        <pt on="0" x="963" y="137" />
        <pt on="1" x="814" y="66" />
        <pt on="0" x="661" y="-6" />
        <pt on="1" x="493" y="-6" />
        <pt on="0" x="247" y="-6" />
        <pt on="1" x="111" y="141" />
        <pt on="0" x="-25" y="286" />
        <pt on="1" x="-26" y="552" />
      </contour>
      <contour>
        <pt on="1" x="642" y="866" />
        <pt on="0" x="635" y="932" />
        <pt on="0" x="710" y="1045" />
        <pt on="1" x="786" y="1067" />
        <pt on="0" x="862" y="1085" />
        <pt on="0" x="1006" y="1028" />
        <pt on="1" x="1030" y="957" />
        <pt on="0" x="1033" y="947" />
        <pt on="0" x="1052" y="870" />
        <pt on="1" x="1025" y="824" />
        <pt on="0" x="960" y="711" />
        <pt on="0" x="784" y="497" />
        <pt on="1" x="768" y="377" />
        <pt on="0" x="704" y="476" />
        <pt on="0" x="450" y="577" />
        <pt on="1" x="344" y="645" />
        <pt on="0" x="299" y="673" />
        <pt on="0" x="273" y="740" />
        <pt on="1" x="267" y="755" />
        <pt on="0" x="250" y="828" />
        <pt on="0" x="343" y="950" />
        <pt on="1" x="418" y="972" />
        <pt on="0" x="495" y="989" />
        <pt on="0" x="615" y="927" />
      </contour>
    </TTGlyph>
    <TTGlyph name="OE" xMax="2206" xMin="-59" yMax="1485" yMin="-12">
      <contour>
        <pt on="1" x="471" y="33" />
        <pt on="0" x="598" y="33" />
        <pt on="0" x="871" y="212" />
        <pt on="1" x="977" y="367" />
        <pt on="0" x="1068" y="499" />
        <pt on="0" x="1176" y="830" />
        <pt on="1" x="1176" y="973" />
        <pt on="0" x="1176" y="1195" />
        <pt on="0" x="989" y="1432" />
        <pt on="1" x="815" y="1432" />
        <pt on="0" x="709" y="1432" />
        <pt on="0" x="510" y="1341" />
        <pt on="1" x="422" y="1253" />
        <pt on="0" x="270" y="1103" />
        <pt on="0" x="94" y="685" />
        <pt on="1" x="94" y="473" />
        <pt on="0" x="94" y="270" />
        <pt on="0" x="298" y="33" />
      </contour>
      <contour>
        <pt on="1" x="1255" y="698" />
        <pt on="0" x="1334" y="774" />
        <pt on="0" x="1524" y="898" />
        <pt on="1" x="1524" y="907" />
        <pt on="0" x="1524" y="919" />
        <pt on="1" x="1509" y="942" />
        <pt on="0" x="1504" y="950" />
        <pt on="1" x="1501" y="955" />
        <pt on="1" x="1466" y="1012" />
        <pt on="0" x="1450" y="1038" />
        <pt on="0" x="1434" y="1092" />
        <pt on="1" x="1434" y="1118" />
        <pt on="0" x="1434" y="1170" />
        <pt on="0" x="1521" y="1294" />
        <pt on="1" x="1595" y="1348" />
        <pt on="0" x="1687" y="1414" />
        <pt on="0" x="1898" y="1485" />
        <pt on="1" x="2003" y="1485" />
        <pt on="0" x="2107" y="1485" />
        <pt on="0" x="2206" y="1392" />
        <pt on="1" x="2206" y="1296" />
        <pt on="0" x="2206" y="1259" />
        <pt on="0" x="2174" y="1143" />
        <pt on="1" x="2144" y="1069" />
        <pt on="1" x="2025" y="1053" />
        <pt on="0" x="2093" y="1205" />
        <pt on="0" x="2138" y="1339" />
        <pt on="1" x="2138" y="1376" />
        <pt on="0" x="2138" y="1416" />
        <pt on="0" x="2081" y="1458" />
        <pt on="1" x="2025" y="1458" />
        <pt on="0" x="1970" y="1458" />
        <pt on="0" x="1833" y="1399" />
        <pt on="1" x="1759" y="1343" />
        <pt on="0" x="1655" y="1263" />
        <pt on="0" x="1526" y="1084" />
        <pt on="1" x="1526" y="1024" />
        <pt on="0" x="1526" y="963" />
        <pt on="0" x="1626" y="816" />
        <pt on="1" x="1626" y="807" />
        <pt on="0" x="1626" y="778" />
        <pt on="1" x="1542" y="737" />
        <pt on="0" x="1485" y="709" />
        <pt on="1" x="1450" y="688" />
        <pt on="0" x="1251" y="574" />
        <pt on="0" x="1061" y="364" />
        <pt on="1" x="1061" y="258" />
        <pt on="0" x="1061" y="152" />
        <pt on="0" x="1218" y="29" />
        <pt on="1" x="1354" y="29" />
        <pt on="0" x="1470" y="29" />
        <pt on="0" x="1770" y="127" />
        <pt on="1" x="1968" y="231" />
        <pt on="1" x="1942" y="90" />
        <pt on="0" x="1781" y="38" />
        <pt on="0" x="1528" y="-12" />
        <pt on="1" x="1423" y="-12" />
        <pt on="0" x="1247" y="-12" />
        <pt on="0" x="1043" y="93" />
        <pt on="1" x="1001" y="205" />
        <pt on="0" x="863" y="95" />
        <pt on="0" x="602" y="-12" />
        <pt on="1" x="473" y="-12" />
        <pt on="0" x="234" y="-12" />
        <pt on="0" x="-59" y="298" />
        <pt on="1" x="-59" y="551" />
        <pt on="0" x="-59" y="738" />
        <pt on="0" x="115" y="1107" />
        <pt on="1" x="270" y="1247" />
        <pt on="0" x="386" y="1353" />
        <pt on="0" x="666" y="1464" />
        <pt on="1" x="813" y="1464" />
        <pt on="0" x="1035" y="1464" />
        <pt on="0" x="1311" y="1199" />
        <pt on="1" x="1311" y="985" />
        <pt on="0" x="1311" y="936" />
        <pt on="0" x="1289" y="819" />
      </contour>
    </TTGlyph>
    <TTGlyph name="Oacute" xMax="1372" xMin="-26" yMax="1802" yMin="-6">
      <contour>
        <pt on="1" x="1211" y="992" />
        <pt on="0" x="1211" y="1193" />
        <pt on="1" x="1112" y="1313" />
        <pt on="0" x="1013" y="1433" />
        <pt on="1" x="846" y="1433" />
        <pt on="0" x="742" y="1433" />
        <pt on="1" x="643" y="1388" />
        <pt on="0" x="543" y="1342" />
        <pt on="1" x="454" y="1254" />
        <pt on="0" x="302" y="1105" />
        <pt on="1" x="214" y="894" />
        <pt on="0" x="124" y="682" />
        <pt on="1" x="124" y="472" />
        <pt on="0" x="124" y="280" />
        <pt on="1" x="230" y="156" />
        <pt on="0" x="336" y="34" />
        <pt on="1" x="504" y="34" />
        <pt on="0" x="634" y="34" />
        <pt on="1" x="769" y="125" />
        <pt on="0" x="904" y="215" />
        <pt on="1" x="1014" y="378" />
        <pt on="0" x="1106" y="514" />
        <pt on="1" x="1160" y="677" />
        <pt on="0" x="1211" y="837" />
      </contour>
      <contour>
        <pt on="1" x="-26" y="552" />
        <pt on="0" x="-26" y="741" />
        <pt on="1" x="60" y="924" />
        <pt on="0" x="148" y="1109" />
        <pt on="1" x="302" y="1248" />
        <pt on="0" x="423" y="1355" />
        <pt on="1" x="560" y="1409" />
        <pt on="0" x="700" y="1465" />
        <pt on="1" x="848" y="1465" />
        <pt on="0" x="1086" y="1465" />
        <pt on="1" x="1229" y="1316" />
        <pt on="0" x="1372" y="1166" />
        <pt on="1" x="1372" y="923" />
        <pt on="0" x="1372" y="758" />
        <pt on="1" x="1302" y="592" />
        <pt on="0" x="1229" y="423" />
        <pt on="1" x="1102" y="286" />
        <pt on="0" x="963" y="137" />
        <pt on="1" x="814" y="66" />
        <pt on="0" x="661" y="-6" />
        <pt on="1" x="493" y="-6" />
        <pt on="0" x="247" y="-6" />
        <pt on="1" x="111" y="141" />
        <pt on="0" x="-25" y="286" />
        <pt on="1" x="-26" y="552" />
      </contour>
      <contour>
        <pt on="1" x="642" y="866" />
        <pt on="0" x="635" y="932" />
        <pt on="0" x="710" y="1045" />
        <pt on="1" x="786" y="1067" />
        <pt on="0" x="862" y="1085" />
        <pt on="0" x="1006" y="1028" />
        <pt on="1" x="1030" y="957" />
        <pt on="0" x="1033" y="947" />
        <pt on="0" x="1052" y="870" />
        <pt on="1" x="1025" y="824" />
        <pt on="0" x="960" y="711" />
        <pt on="0" x="784" y="497" />
        <pt on="1" x="768" y="377" />
        <pt on="0" x="704" y="476" />
        <pt on="0" x="450" y="577" />
        <pt on="1" x="344" y="645" />
        <pt on="0" x="299" y="673" />
        <pt on="0" x="273" y="740" />
        <pt on="1" x="267" y="755" />
        <pt on="0" x="250" y="828" />
        <pt on="0" x="343" y="950" />
        <pt on="1" x="418" y="972" />
        <pt on="0" x="495" y="989" />
        <pt on="0" x="615" y="927" />
      </contour>
      <contour>
        <pt on="1" x="926" y="1551" />
        <pt on="0" x="922" y="1551" />
        <pt on="1" x="916" y="1554" />
        <pt on="0" x="912" y="1558" />
        <pt on="1" x="912" y="1563" />
        <pt on="0" x="912" y="1565" />
        <pt on="1" x="965" y="1597" />
        <pt on="0" x="1016" y="1628" />
        <pt on="1" x="1041" y="1669" />
        <pt on="0" x="1055" y="1694" />
        <pt on="1" x="1067" y="1737" />
        <pt on="0" x="1086" y="1802" />
        <pt on="1" x="1123" y="1802" />
        <pt on="0" x="1143" y="1802" />
        <pt on="1" x="1156" y="1789" />
        <pt on="0" x="1168" y="1777" />
        <pt on="1" x="1168" y="1753" />
        <pt on="0" x="1168" y="1730" />
        <pt on="1" x="1150" y="1703" />
        <pt on="0" x="1131" y="1677" />
        <pt on="1" x="1090" y="1642" />
        <pt on="0" x="1044" y="1603" />
        <pt on="1" x="995" y="1578" />
        <pt on="0" x="942" y="1551" />
      </contour>
    </TTGlyph>
    <TTGlyph name="Ocircumflex" xMax="1372" xMin="-26" yMax="1776" yMin="-6">
      <contour>
        <pt on="1" x="1211" y="992" />
        <pt on="0" x="1211" y="1193" />
        <pt on="1" x="1112" y="1313" />
        <pt on="0" x="1013" y="1433" />
        <pt on="1" x="846" y="1433" />
        <pt on="0" x="742" y="1433" />
        <pt on="1" x="643" y="1388" />
        <pt on="0" x="543" y="1342" />
        <pt on="1" x="454" y="1254" />
        <pt on="0" x="302" y="1105" />
        <pt on="1" x="214" y="894" />
        <pt on="0" x="124" y="682" />
        <pt on="1" x="124" y="472" />
        <pt on="0" x="124" y="280" />
        <pt on="1" x="230" y="156" />
        <pt on="0" x="336" y="34" />
        <pt on="1" x="504" y="34" />
        <pt on="0" x="634" y="34" />
        <pt on="1" x="769" y="125" />
        <pt on="0" x="904" y="215" />
        <pt on="1" x="1014" y="378" />
        <pt on="0" x="1106" y="514" />
        <pt on="1" x="1160" y="677" />
        <pt on="0" x="1211" y="837" />
      </contour>
      <contour>
        <pt on="1" x="-26" y="552" />
        <pt on="0" x="-26" y="741" />
        <pt on="1" x="60" y="924" />
        <pt on="0" x="148" y="1109" />
        <pt on="1" x="302" y="1248" />
        <pt on="0" x="423" y="1355" />
        <pt on="1" x="560" y="1409" />
        <pt on="0" x="700" y="1465" />
        <pt on="1" x="848" y="1465" />
        <pt on="0" x="1086" y="1465" />
        <pt on="1" x="1229" y="1316" />
        <pt on="0" x="1372" y="1166" />
        <pt on="1" x="1372" y="923" />
        <pt on="0" x="1372" y="758" />
        <pt on="1" x="1302" y="592" />
        <pt on="0" x="1229" y="423" />
        <pt on="1" x="1102" y="286" />
        <pt on="0" x="963" y="137" />
        <pt on="1" x="814" y="66" />
        <pt on="0" x="661" y="-6" />
        <pt on="1" x="493" y="-6" />
        <pt on="0" x="247" y="-6" />
        <pt on="1" x="111" y="141" />
        <pt on="0" x="-25" y="286" />
        <pt on="1" x="-26" y="552" />
      </contour>
      <contour>
        <pt on="1" x="642" y="866" />
        <pt on="0" x="635" y="932" />
        <pt on="0" x="710" y="1045" />
        <pt on="1" x="786" y="1067" />
        <pt on="0" x="862" y="1085" />
        <pt on="0" x="1006" y="1028" />
        <pt on="1" x="1030" y="957" />
        <pt on="0" x="1033" y="947" />
        <pt on="0" x="1052" y="870" />
        <pt on="1" x="1025" y="824" />
        <pt on="0" x="960" y="711" />
        <pt on="0" x="784" y="497" />
        <pt on="1" x="768" y="377" />
        <pt on="0" x="704" y="476" />
        <pt on="0" x="450" y="577" />
        <pt on="1" x="344" y="645" />
        <pt on="0" x="299" y="673" />
        <pt on="0" x="273" y="740" />
        <pt on="1" x="267" y="755" />
        <pt on="0" x="250" y="828" />
        <pt on="0" x="343" y="950" />
        <pt on="1" x="418" y="972" />
        <pt on="0" x="495" y="989" />
        <pt on="0" x="615" y="927" />
      </contour>
      <contour>
        <pt on="1" x="929" y="1776" />
        <pt on="1" x="959" y="1776" />
        <pt on="0" x="981" y="1695" />
        <pt on="1" x="1022" y="1621" />
        <pt on="0" x="1062" y="1545" />
        <pt on="1" x="1062" y="1541" />
        <pt on="0" x="1061" y="1538" />
        <pt on="0" x="1060" y="1536" />
        <pt on="1" x="1060" y="1536" />
        <pt on="0" x="1061" y="1536" />
        <pt on="1" x="1051" y="1534" />
        <pt on="0" x="1038" y="1534" />
        <pt on="1" x="1002" y="1573" />
        <pt on="0" x="969" y="1606" />
        <pt on="1" x="929" y="1666" />
        <pt on="0" x="867" y="1610" />
        <pt on="1" x="806" y="1572" />
        <pt on="0" x="743" y="1534" />
        <pt on="1" x="722" y="1534" />
        <pt on="0" x="715" y="1534" />
        <pt on="1" x="712" y="1537" />
        <pt on="0" x="709" y="1540" />
        <pt on="1" x="709" y="1545" />
        <pt on="0" x="709" y="1548" />
        <pt on="1" x="787" y="1619" />
        <pt on="0" x="864" y="1690" />
      </contour>
    </TTGlyph>
    <TTGlyph name="Odieresis" xMax="1372" xMin="-26" yMax="1664" yMin="-6">
      <contour>
        <pt on="1" x="1211" y="992" />
        <pt on="0" x="1211" y="1193" />
        <pt on="1" x="1112" y="1313" />
        <pt on="0" x="1013" y="1433" />
        <pt on="1" x="846" y="1433" />
        <pt on="0" x="742" y="1433" />
        <pt on="1" x="643" y="1388" />
        <pt on="0" x="543" y="1342" />
        <pt on="1" x="454" y="1254" />
        <pt on="0" x="302" y="1105" />
        <pt on="1" x="214" y="894" />
        <pt on="0" x="124" y="682" />
        <pt on="1" x="124" y="472" />
        <pt on="0" x="124" y="280" />
        <pt on="1" x="230" y="156" />
        <pt on="0" x="336" y="34" />
        <pt on="1" x="504" y="34" />
        <pt on="0" x="634" y="34" />
        <pt on="1" x="769" y="125" />
        <pt on="0" x="904" y="215" />
        <pt on="1" x="1014" y="378" />
        <pt on="0" x="1106" y="514" />
        <pt on="1" x="1160" y="677" />
        <pt on="0" x="1211" y="837" />
      </contour>
      <contour>
        <pt on="1" x="-26" y="552" />
        <pt on="0" x="-26" y="741" />
        <pt on="1" x="60" y="924" />
        <pt on="0" x="148" y="1109" />
        <pt on="1" x="302" y="1248" />
        <pt on="0" x="423" y="1355" />
        <pt on="1" x="560" y="1409" />
        <pt on="0" x="700" y="1465" />
        <pt on="1" x="848" y="1465" />
        <pt on="0" x="1086" y="1465" />
        <pt on="1" x="1229" y="1316" />
        <pt on="0" x="1372" y="1166" />
        <pt on="1" x="1372" y="923" />
        <pt on="0" x="1372" y="758" />
        <pt on="1" x="1302" y="592" />
        <pt on="0" x="1229" y="423" />
        <pt on="1" x="1102" y="286" />
        <pt on="0" x="963" y="137" />
        <pt on="1" x="814" y="66" />
        <pt on="0" x="661" y="-6" />
        <pt on="1" x="493" y="-6" />
        <pt on="0" x="247" y="-6" />
        <pt on="1" x="111" y="141" />
        <pt on="0" x="-25" y="286" />
        <pt on="1" x="-26" y="552" />
      </contour>
      <contour>
        <pt on="1" x="642" y="866" />
        <pt on="0" x="635" y="932" />
        <pt on="0" x="710" y="1045" />
        <pt on="1" x="786" y="1067" />
        <pt on="0" x="862" y="1085" />
        <pt on="0" x="1006" y="1028" />
        <pt on="1" x="1030" y="957" />
        <pt on="0" x="1033" y="947" />
        <pt on="0" x="1052" y="870" />
        <pt on="1" x="1025" y="824" />
        <pt on="0" x="960" y="711" />
        <pt on="0" x="784" y="497" />
        <pt on="1" x="768" y="377" />
        <pt on="0" x="704" y="476" />
        <pt on="0" x="450" y="577" />
        <pt on="1" x="344" y="645" />
        <pt on="0" x="299" y="673" />
        <pt on="0" x="273" y="740" />
        <pt on="1" x="267" y="755" />
        <pt on="0" x="250" y="828" />
        <pt on="0" x="343" y="950" />
        <pt on="1" x="418" y="972" />
        <pt on="0" x="495" y="989" />
        <pt on="0" x="615" y="927" />
      </contour>
      <contour>
        <pt on="1" x="740" y="1608" />
        <pt on="0" x="740" y="1632" />
        <pt on="1" x="756" y="1647" />
        <pt on="0" x="773" y="1664" />
        <pt on="1" x="795" y="1664" />
        <pt on="0" x="818" y="1664" />
        <pt on="1" x="834" y="1648" />
        <pt on="0" x="851" y="1631" />
        <pt on="1" x="851" y="1608" />
        <pt on="0" x="851" y="1585" />
        <pt on="1" x="835" y="1569" />
        <pt on="0" x="817" y="1553" />
        <pt on="1" x="795" y="1553" />
        <pt on="0" x="773" y="1553" />
        <pt on="1" x="756" y="1569" />
        <pt on="0" x="740" y="1585" />
      </contour>
      <contour>
        <pt on="1" x="984" y="1608" />
        <pt on="0" x="984" y="1631" />
        <pt on="1" x="1001" y="1648" />
        <pt on="0" x="1015" y="1664" />
        <pt on="1" x="1041" y="1664" />
        <pt on="0" x="1064" y="1664" />
        <pt on="1" x="1080" y="1648" />
        <pt on="0" x="1095" y="1633" />
        <pt on="1" x="1095" y="1608" />
        <pt on="0" x="1095" y="1585" />
        <pt on="1" x="1080" y="1569" />
        <pt on="0" x="1062" y="1553" />
        <pt on="1" x="1041" y="1553" />
        <pt on="0" x="1017" y="1553" />
        <pt on="1" x="1001" y="1569" />
        <pt on="0" x="984" y="1586" />
      </contour>
    </TTGlyph>
    <TTGlyph name="Ograve" xMax="1372" xMin="-26" yMax="1778" yMin="-6">
      <contour>
        <pt on="1" x="1211" y="992" />
        <pt on="0" x="1211" y="1193" />
        <pt on="1" x="1112" y="1313" />
        <pt on="0" x="1013" y="1433" />
        <pt on="1" x="846" y="1433" />
        <pt on="0" x="742" y="1433" />
        <pt on="1" x="643" y="1388" />
        <pt on="0" x="543" y="1342" />
        <pt on="1" x="454" y="1254" />
        <pt on="0" x="302" y="1105" />
        <pt on="1" x="214" y="894" />
        <pt on="0" x="124" y="682" />
        <pt on="1" x="124" y="472" />
        <pt on="0" x="124" y="280" />
        <pt on="1" x="230" y="156" />
        <pt on="0" x="336" y="34" />
        <pt on="1" x="504" y="34" />
        <pt on="0" x="634" y="34" />
        <pt on="1" x="769" y="125" />
        <pt on="0" x="904" y="215" />
        <pt on="1" x="1014" y="378" />
        <pt on="0" x="1106" y="514" />
        <pt on="1" x="1160" y="677" />
        <pt on="0" x="1211" y="837" />
      </contour>
      <contour>
        <pt on="1" x="-26" y="552" />
        <pt on="0" x="-26" y="741" />
        <pt on="1" x="60" y="924" />
        <pt on="0" x="148" y="1109" />
        <pt on="1" x="302" y="1248" />
        <pt on="0" x="423" y="1355" />
        <pt on="1" x="560" y="1409" />
        <pt on="0" x="700" y="1465" />
        <pt on="1" x="848" y="1465" />
        <pt on="0" x="1086" y="1465" />
        <pt on="1" x="1229" y="1316" />
        <pt on="0" x="1372" y="1166" />
        <pt on="1" x="1372" y="923" />
        <pt on="0" x="1372" y="758" />
        <pt on="1" x="1302" y="592" />
        <pt on="0" x="1229" y="423" />
        <pt on="1" x="1102" y="286" />
        <pt on="0" x="963" y="137" />
        <pt on="1" x="814" y="66" />
        <pt on="0" x="661" y="-6" />
        <pt on="1" x="493" y="-6" />
        <pt on="0" x="247" y="-6" />
        <pt on="1" x="111" y="141" />
        <pt on="0" x="-25" y="286" />
        <pt on="1" x="-26" y="552" />
      </contour>
      <contour>
        <pt on="1" x="642" y="866" />
        <pt on="0" x="635" y="932" />
        <pt on="0" x="710" y="1045" />
        <pt on="1" x="786" y="1067" />
        <pt on="0" x="862" y="1085" />
        <pt on="0" x="1006" y="1028" />
        <pt on="1" x="1030" y="957" />
        <pt on="0" x="1033" y="947" />
        <pt on="0" x="1052" y="870" />
        <pt on="1" x="1025" y="824" />
        <pt on="0" x="960" y="711" />
        <pt on="0" x="784" y="497" />
        <pt on="1" x="768" y="377" />
        <pt on="0" x="704" y="476" />
        <pt on="0" x="450" y="577" />
        <pt on="1" x="344" y="645" />
        <pt on="0" x="299" y="673" />
        <pt on="0" x="273" y="740" />
        <pt on="1" x="267" y="755" />
        <pt on="0" x="250" y="828" />
        <pt on="0" x="343" y="950" />
        <pt on="1" x="418" y="972" />
        <pt on="0" x="495" y="989" />
        <pt on="0" x="615" y="927" />
      </contour>
      <contour>
        <pt on="1" x="1190" y="1522" />
        <pt on="0" x="1176" y="1522" />
        <pt on="1" x="1141" y="1545" />
        <pt on="0" x="1108" y="1566" />
        <pt on="1" x="1066" y="1604" />
        <pt on="0" x="1023" y="1643" />
        <pt on="1" x="1001" y="1675" />
        <pt on="0" x="979" y="1708" />
        <pt on="1" x="979" y="1729" />
        <pt on="0" x="979" y="1751" />
        <pt on="1" x="991" y="1765" />
        <pt on="0" x="1002" y="1778" />
        <pt on="1" x="1023" y="1778" />
        <pt on="0" x="1063" y="1778" />
        <pt on="1" x="1083" y="1698" />
        <pt on="0" x="1086" y="1681" />
        <pt on="0" x="1092" y="1656" />
        <pt on="1" x="1095" y="1647" />
        <pt on="0" x="1108" y="1607" />
        <pt on="1" x="1156" y="1572" />
        <pt on="0" x="1205" y="1535" />
        <pt on="1" x="1205" y="1533" />
        <pt on="0" x="1205" y="1529" />
        <pt on="1" x="1200" y="1526" />
        <pt on="0" x="1196" y="1522" />
      </contour>
    </TTGlyph>
    <TTGlyph name="Oslash" xMax="1362" xMin="40" yMax="1427" yMin="0">
      <contour>
        <pt on="1" x="69" y="26" />
        <pt on="1" x="1333" y="26" />
        <pt on="1" x="1333" y="1402" />
        <pt on="1" x="69" y="1402" />
      </contour>
      <contour>
        <pt on="1" x="40" y="0" />
        <pt on="1" x="40" y="1427" />
        <pt on="1" x="1362" y="1427" />
        <pt on="1" x="1362" y="0" />
      </contour>
    </TTGlyph>
    <TTGlyph name="Otilde" xMax="1372" xMin="-26" yMax="1664" yMin="-6">
      <contour>
        <pt on="1" x="1211" y="992" />
        <pt on="0" x="1211" y="1193" />
        <pt on="1" x="1112" y="1313" />
        <pt on="0" x="1013" y="1433" />
        <pt on="1" x="846" y="1433" />
        <pt on="0" x="742" y="1433" />
        <pt on="1" x="643" y="1388" />
        <pt on="0" x="543" y="1342" />
        <pt on="1" x="454" y="1254" />
        <pt on="0" x="302" y="1105" />
        <pt on="1" x="214" y="894" />
        <pt on="0" x="124" y="682" />
        <pt on="1" x="124" y="472" />
        <pt on="0" x="124" y="280" />
        <pt on="1" x="230" y="156" />
        <pt on="0" x="336" y="34" />
        <pt on="1" x="504" y="34" />
        <pt on="0" x="634" y="34" />
        <pt on="1" x="769" y="125" />
        <pt on="0" x="904" y="215" />
        <pt on="1" x="1014" y="378" />
        <pt on="0" x="1106" y="514" />
        <pt on="1" x="1160" y="677" />
        <pt on="0" x="1211" y="837" />
      </contour>
      <contour>
        <pt on="1" x="-26" y="552" />
        <pt on="0" x="-26" y="741" />
        <pt on="1" x="60" y="924" />
        <pt on="0" x="148" y="1109" />
        <pt on="1" x="302" y="1248" />
        <pt on="0" x="423" y="1355" />
        <pt on="1" x="560" y="1409" />
        <pt on="0" x="700" y="1465" />
        <pt on="1" x="848" y="1465" />
        <pt on="0" x="1086" y="1465" />
        <pt on="1" x="1229" y="1316" />
        <pt on="0" x="1372" y="1166" />
        <pt on="1" x="1372" y="923" />
        <pt on="0" x="1372" y="758" />
        <pt on="1" x="1302" y="592" />
        <pt on="0" x="1229" y="423" />
        <pt on="1" x="1102" y="286" />
        <pt on="0" x="963" y="137" />
        <pt on="1" x="814" y="66" />
        <pt on="0" x="661" y="-6" />
        <pt on="1" x="493" y="-6" />
        <pt on="0" x="247" y="-6" />
        <pt on="1" x="111" y="141" />
        <pt on="0" x="-25" y="286" />
        <pt on="1" x="-26" y="552" />
      </contour>
      <contour>
        <pt on="1" x="642" y="866" />
        <pt on="0" x="635" y="932" />
        <pt on="0" x="710" y="1045" />
        <pt on="1" x="786" y="1067" />
        <pt on="0" x="862" y="1085" />
        <pt on="0" x="1006" y="1028" />
        <pt on="1" x="1030" y="957" />
        <pt on="0" x="1033" y="947" />
        <pt on="0" x="1052" y="870" />
        <pt on="1" x="1025" y="824" />
        <pt on="0" x="960" y="711" />
        <pt on="0" x="784" y="497" />
        <pt on="1" x="768" y="377" />
        <pt on="0" x="704" y="476" />
        <pt on="0" x="450" y="577" />
        <pt on="1" x="344" y="645" />
        <pt on="0" x="299" y="673" />
        <pt on="0" x="273" y="740" />
        <pt on="1" x="267" y="755" />
        <pt on="0" x="250" y="828" />
        <pt on="0" x="343" y="950" />
        <pt on="1" x="418" y="972" />
        <pt on="0" x="495" y="989" />
        <pt on="0" x="615" y="927" />
      </contour>
      <contour>
        <pt on="1" x="740" y="1608" />
        <pt on="0" x="740" y="1632" />
        <pt on="1" x="756" y="1647" />
        <pt on="0" x="773" y="1664" />
        <pt on="1" x="795" y="1664" />
        <pt on="0" x="818" y="1664" />
        <pt on="1" x="834" y="1648" />
        <pt on="0" x="851" y="1631" />
        <pt on="1" x="851" y="1608" />
        <pt on="0" x="851" y="1585" />
        <pt on="1" x="835" y="1569" />
        <pt on="0" x="817" y="1553" />
        <pt on="1" x="795" y="1553" />
        <pt on="0" x="773" y="1553" />
        <pt on="1" x="756" y="1569" />
        <pt on="0" x="740" y="1585" />
      </contour>
      <contour>
        <pt on="1" x="984" y="1608" />
        <pt on="0" x="984" y="1631" />
        <pt on="1" x="1001" y="1648" />
        <pt on="0" x="1015" y="1664" />
        <pt on="1" x="1041" y="1664" />
        <pt on="0" x="1064" y="1664" />
        <pt on="1" x="1080" y="1648" />
        <pt on="0" x="1095" y="1633" />
        <pt on="1" x="1095" y="1608" />
        <pt on="0" x="1095" y="1585" />
        <pt on="1" x="1080" y="1569" />
        <pt on="0" x="1062" y="1553" />
        <pt on="1" x="1041" y="1553" />
        <pt on="0" x="1017" y="1553" />
        <pt on="1" x="1001" y="1569" />
        <pt on="0" x="984" y="1586" />
      </contour>
    </TTGlyph>
    <TTGlyph name="P" xMax="1618" xMin="-297" yMax="1890" yMin="-332">
      <contour>
        <pt on="1" x="-166" y="-332" />
        <pt on="1" x="-297" y="-254" />
        <pt on="0" x="-143" y="146" />
        <pt on="1" x="-18" y="564" />
        <pt on="0" x="107" y="990" />
        <pt on="1" x="192" y="1379" />
        <pt on="1" x="339" y="1431" />
        <pt on="0" x="321" y="1325" />
        <pt on="1" x="278" y="1166" />
        <pt on="0" x="254" y="1082" />
        <pt on="0" x="166" y="782" />
        <pt on="1" x="102" y="566" />
        <pt on="0" x="320" y="1065" />
        <pt on="1" x="498" y="1275" />
        <pt on="0" x="675" y="1482" />
        <pt on="1" x="873" y="1482" />
        <pt on="0" x="1006" y="1482" />
        <pt on="1" x="1089" y="1398" />
        <pt on="0" x="1171" y="1311" />
        <pt on="1" x="1171" y="1175" />
        <pt on="0" x="1171" y="1007" />
        <pt on="1" x="1064" y="834" />
        <pt on="0" x="956" y="659" />
        <pt on="1" x="769" y="523" />
        <pt on="0" x="651" y="437" />
        <pt on="1" x="524" y="396" />
        <pt on="0" x="393" y="353" />
        <pt on="1" x="253" y="353" />
        <pt on="0" x="241" y="353" />
        <pt on="0" x="223" y="354" />
        <pt on="1" x="218" y="354" />
        <pt on="0" x="212" y="354" />
        <pt on="0" x="201" y="355" />
        <pt on="1" x="196" y="355" />
        <pt on="1" x="251" y="433" />
        <pt on="0" x="275" y="429" />
        <pt on="0" x="320" y="422" />
        <pt on="1" x="340" y="420" />
        <pt on="0" x="381" y="415" />
        <pt on="1" x="403" y="415" />
        <pt on="0" x="516" y="415" />
        <pt on="1" x="618" y="468" />
        <pt on="0" x="717" y="519" />
        <pt on="1" x="808" y="628" />
        <pt on="0" x="914" y="756" />
        <pt on="1" x="973" y="904" />
        <pt on="0" x="1033" y="1052" />
        <pt on="1" x="1033" y="1185" />
        <pt on="0" x="1033" y="1297" />
        <pt on="1" x="975" y="1364" />
        <pt on="0" x="918" y="1431" />
        <pt on="1" x="823" y="1431" />
        <pt on="0" x="588" y="1431" />
        <pt on="1" x="332" y="975" />
        <pt on="0" x="76" y="521" />
        <pt on="1" x="-166" y="-332" />
      </contour>
      <contour>
        <pt on="1" x="1432" y="1214" />
        <pt on="0" x="1511" y="1264" />
        <pt on="1" x="1580" y="1190" />
        <pt on="0" x="1610" y="1153" />
        <pt on="0" x="1618" y="1059" />
        <pt on="1" x="1585" y="1028" />
        <pt on="0" x="1580" y="1022" />
        <pt on="0" x="1544" y="992" />
        <pt on="1" x="1511" y="995" />
        <pt on="0" x="1433" y="999" />
        <pt on="0" x="1269" y="1038" />
        <pt on="1" x="1200" y="1016" />
        <pt on="0" x="1236" y="1076" />
        <pt on="0" x="1223" y="1242" />
        <pt on="1" x="1232" y="1318" />
        <pt on="0" x="1235" y="1350" />
        <pt on="0" x="1265" y="1381" />
        <pt on="1" x="1272" y="1389" />
        <pt on="0" x="1307" y="1417" />
        <pt on="0" x="1398" y="1399" />
        <pt on="1" x="1430" y="1365" />
        <pt on="0" x="1493" y="1285" />
      </contour>
      <contour>
        <pt on="1" x="1107" y="1731" />
        <pt on="0" x="1094" y="1844" />
        <pt on="1" x="1212" y="1877" />
        <pt on="0" x="1266" y="1890" />
        <pt on="0" x="1372" y="1848" />
        <pt on="1" x="1389" y="1797" />
        <pt on="0" x="1392" y="1789" />
        <pt on="0" x="1405" y="1734" />
        <pt on="1" x="1386" y="1700" />
        <pt on="0" x="1338" y="1618" />
        <pt on="0" x="1210" y="1461" />
        <pt on="1" x="1198" y="1374" />
        <pt on="0" x="1151" y="1446" />
        <pt on="0" x="966" y="1520" />
        <pt on="1" x="889" y="1569" />
        <pt on="0" x="856" y="1590" />
        <pt on="0" x="837" y="1638" />
        <pt on="1" x="833" y="1650" />
        <pt on="0" x="821" y="1703" />
        <pt on="0" x="888" y="1792" />
        <pt on="1" x="943" y="1808" />
        <pt on="0" x="1061" y="1834" />
      </contour>
    </TTGlyph>
    <TTGlyph name="Q" xMax="1372" xMin="-26" yMax="1465" yMin="-270">
      <contour>
        <pt on="1" x="307" y="68" />
        <pt on="0" x="272" y="96" />
        <pt on="1" x="255" y="137" />
        <pt on="0" x="237" y="174" />
        <pt on="1" x="237" y="220" />
        <pt on="0" x="237" y="291" />
        <pt on="1" x="298" y="345" />
        <pt on="0" x="359" y="399" />
        <pt on="1" x="445" y="399" />
        <pt on="0" x="531" y="399" />
        <pt on="1" x="612" y="328" />
        <pt on="0" x="691" y="259" />
        <pt on="1" x="762" y="118" />
        <pt on="0" x="967" y="272" />
        <pt on="1" x="1089" y="504" />
        <pt on="0" x="1209" y="735" />
        <pt on="1" x="1209" y="974" />
        <pt on="0" x="1209" y="1197" />
        <pt on="1" x="1116" y="1314" />
        <pt on="0" x="1022" y="1433" />
        <pt on="1" x="848" y="1433" />
        <pt on="0" x="741" y="1433" />
        <pt on="1" x="642" y="1388" />
        <pt on="0" x="543" y="1341" />
        <pt on="1" x="454" y="1254" />
        <pt on="0" x="298" y="1099" />
        <pt on="1" x="213" y="889" />
        <pt on="0" x="126" y="677" />
        <pt on="1" x="126" y="452" />
        <pt on="0" x="126" y="311" />
        <pt on="1" x="170" y="217" />
        <pt on="0" x="211" y="125" />
        <pt on="1" x="307" y="67" />
      </contour>
      <contour>
        <pt on="1" x="659" y="62" />
        <pt on="0" x="609" y="184" />
        <pt on="1" x="543" y="249" />
        <pt on="0" x="473" y="315" />
        <pt on="1" x="402" y="315" />
        <pt on="0" x="348" y="315" />
        <pt on="1" x="316" y="281" />
        <pt on="0" x="282" y="247" />
        <pt on="1" x="282" y="198" />
        <pt on="0" x="282" y="129" />
        <pt on="1" x="345" y="82" />
        <pt on="0" x="409" y="36" />
        <pt on="1" x="506" y="36" />
        <pt on="0" x="529" y="36" />
        <pt on="1" x="575" y="43" />
        <pt on="0" x="606" y="48" />
        <pt on="1" x="659" y="62" />
      </contour>
      <contour>
        <pt on="1" x="680" y="16" />
        <pt on="0" x="634" y="1" />
        <pt on="1" x="594" y="-1" />
        <pt on="0" x="553" y="-8" />
        <pt on="1" x="508" y="-8" />
        <pt on="0" x="267" y="-8" />
        <pt on="1" x="120" y="145" />
        <pt on="0" x="-26" y="296" />
        <pt on="1" x="-26" y="552" />
        <pt on="0" x="-26" y="740" />
        <pt on="1" x="60" y="923" />
        <pt on="0" x="147" y="1108" />
        <pt on="1" x="302" y="1248" />
        <pt on="0" x="419" y="1355" />
        <pt on="1" x="559" y="1409" />
        <pt on="0" x="701" y="1465" />
        <pt on="1" x="848" y="1465" />
        <pt on="0" x="1079" y="1465" />
        <pt on="1" x="1226" y="1314" />
        <pt on="0" x="1372" y="1163" />
        <pt on="1" x="1372" y="923" />
        <pt on="0" x="1372" y="663" />
        <pt on="1" x="1212" y="424" />
        <pt on="0" x="1053" y="183" />
        <pt on="1" x="789" y="52" />
        <pt on="0" x="835" y="-37" />
        <pt on="1" x="897" y="-95" />
        <pt on="0" x="960" y="-153" />
        <pt on="1" x="1048" y="-188" />
        <pt on="1" x="963" y="-270" />
        <pt on="0" x="894" y="-261" />
        <pt on="1" x="830" y="-197" />
        <pt on="0" x="768" y="-136" />
        <pt on="1" x="680" y="15" />
      </contour>
      <contour>
        <pt on="1" x="618" y="841" />
        <pt on="0" x="610" y="907" />
        <pt on="0" x="685" y="1020" />
        <pt on="1" x="762" y="1043" />
        <pt on="0" x="837" y="1061" />
        <pt on="0" x="981" y="1003" />
        <pt on="1" x="1005" y="933" />
        <pt on="0" x="1009" y="922" />
        <pt on="0" x="1027" y="846" />
        <pt on="1" x="1001" y="799" />
        <pt on="0" x="936" y="687" />
        <pt on="0" x="760" y="472" />
        <pt on="1" x="743" y="352" />
        <pt on="0" x="679" y="451" />
        <pt on="0" x="425" y="553" />
        <pt on="1" x="319" y="620" />
        <pt on="0" x="274" y="648" />
        <pt on="0" x="248" y="715" />
        <pt on="1" x="242" y="731" />
        <pt on="0" x="225" y="803" />
        <pt on="0" x="318" y="926" />
        <pt on="1" x="393" y="947" />
        <pt on="0" x="470" y="965" />
        <pt on="0" x="591" y="902" />
      </contour>
    </TTGlyph>
    <TTGlyph name="R" xMax="1465" xMin="-256" yMax="1881" yMin="-211">
      <contour>
        <pt on="1" x="239" y="68" />
        <pt on="0" x="231" y="137" />
        <pt on="1" x="304" y="158" />
        <pt on="0" x="389" y="178" />
        <pt on="1" x="413" y="109" />
        <pt on="0" x="415" y="103" />
        <pt on="0" x="423" y="70" />
        <pt on="1" x="411" y="49" />
        <pt on="0" x="382" y="0" />
        <pt on="0" x="303" y="-97" />
        <pt on="1" x="296" y="-151" />
        <pt on="0" x="267" y="-106" />
        <pt on="0" x="153" y="-61" />
        <pt on="1" x="105" y="-31" />
        <pt on="0" x="84" y="-18" />
        <pt on="0" x="74" y="11" />
        <pt on="1" x="71" y="18" />
        <pt on="0" x="54" y="90" />
        <pt on="1" x="139" y="115" />
        <pt on="0" x="210" y="132" />
      </contour>
      <contour>
        <pt on="1" x="-137" y="-211" />
        <pt on="1" x="-256" y="-143" />
        <pt on="0" x="-186" y="64" />
        <pt on="0" x="17" y="657" />
        <pt on="1" x="65" y="827" />
        <pt on="0" x="111" y="995" />
        <pt on="0" x="182" y="1281" />
        <pt on="1" x="204" y="1396" />
        <pt on="1" x="368" y="1447" />
        <pt on="0" x="339" y="1328" />
        <pt on="0" x="269" y="1069" />
        <pt on="1" x="230" y="929" />
        <pt on="0" x="146" y="640" />
        <pt on="1" x="44" y="325" />
        <pt on="0" x="317" y="935" />
        <pt on="1" x="527" y="1201" />
        <pt on="0" x="735" y="1467" />
        <pt on="1" x="939" y="1467" />
        <pt on="0" x="1050" y="1467" />
        <pt on="1" x="1124" y="1398" />
        <pt on="0" x="1197" y="1328" />
        <pt on="1" x="1197" y="1224" />
        <pt on="0" x="1197" y="1084" />
        <pt on="1" x="1093" y="958" />
        <pt on="0" x="990" y="830" />
        <pt on="1" x="790" y="724" />
        <pt on="0" x="663" y="656" />
        <pt on="1" x="507" y="597" />
        <pt on="0" x="356" y="538" />
        <pt on="1" x="356" y="525" />
        <pt on="0" x="356" y="499" />
        <pt on="1" x="503" y="376" />
        <pt on="0" x="654" y="250" />
        <pt on="1" x="874" y="99" />
        <pt on="1" x="794" y="-2" />
        <pt on="0" x="542" y="162" />
        <pt on="1" x="393" y="297" />
        <pt on="0" x="243" y="430" />
        <pt on="1" x="243" y="486" />
        <pt on="0" x="243" y="524" />
        <pt on="1" x="377" y="586" />
        <pt on="0" x="515" y="648" />
        <pt on="1" x="607" y="703" />
        <pt on="0" x="827" y="834" />
        <pt on="1" x="945" y="982" />
        <pt on="0" x="1064" y="1131" />
        <pt on="1" x="1064" y="1269" />
        <pt on="0" x="1064" y="1340" />
        <pt on="1" x="1024" y="1387" />
        <pt on="0" x="983" y="1433" />
        <pt on="1" x="921" y="1433" />
        <pt on="0" x="713" y="1433" />
        <pt on="1" x="472" y="1073" />
        <pt on="0" x="352" y="895" />
        <pt on="0" x="1" y="143" />
      </contour>
      <contour>
        <pt on="1" x="1194" y="1736" />
        <pt on="0" x="1181" y="1838" />
        <pt on="1" x="1289" y="1869" />
        <pt on="0" x="1339" y="1881" />
        <pt on="0" x="1435" y="1844" />
        <pt on="1" x="1451" y="1797" />
        <pt on="0" x="1453" y="1789" />
        <pt on="0" x="1465" y="1739" />
        <pt on="1" x="1448" y="1708" />
        <pt on="0" x="1405" y="1633" />
        <pt on="0" x="1288" y="1490" />
        <pt on="1" x="1277" y="1411" />
        <pt on="0" x="1235" y="1477" />
        <pt on="0" x="1065" y="1544" />
        <pt on="1" x="995" y="1589" />
        <pt on="0" x="965" y="1607" />
        <pt on="0" x="948" y="1652" />
        <pt on="1" x="945" y="1663" />
        <pt on="0" x="933" y="1711" />
        <pt on="0" x="994" y="1791" />
        <pt on="1" x="1044" y="1806" />
        <pt on="0" x="1151" y="1830" />
      </contour>
    </TTGlyph>
    <TTGlyph name="S" xMax="1316" xMin="-248" yMax="1482" yMin="-4">
      <contour>
        <pt on="1" x="-248" y="87" />
        <pt on="1" x="-153" y="191" />
        <pt on="0" x="-5" y="110" />
        <pt on="1" x="130" y="72" />
        <pt on="0" x="271" y="34" />
        <pt on="1" x="409" y="34" />
        <pt on="0" x="621" y="34" />
        <pt on="1" x="754" y="113" />
        <pt on="0" x="884" y="192" />
        <pt on="1" x="884" y="320" />
        <pt on="0" x="884" y="377" />
        <pt on="1" x="849" y="431" />
        <pt on="0" x="813" y="484" />
        <pt on="1" x="700" y="579" />
        <pt on="1" x="517" y="728" />
        <pt on="0" x="413" y="813" />
        <pt on="1" x="362" y="891" />
        <pt on="0" x="311" y="967" />
        <pt on="1" x="311" y="1039" />
        <pt on="0" x="311" y="1126" />
        <pt on="1" x="385" y="1219" />
        <pt on="0" x="458" y="1308" />
        <pt on="1" x="589" y="1377" />
        <pt on="0" x="684" y="1426" />
        <pt on="1" x="803" y="1454" />
        <pt on="0" x="919" y="1482" />
        <pt on="1" x="1040" y="1482" />
        <pt on="0" x="1165" y="1482" />
        <pt on="1" x="1240" y="1435" />
        <pt on="0" x="1316" y="1387" />
        <pt on="1" x="1316" y="1312" />
        <pt on="0" x="1316" y="1250" />
        <pt on="1" x="1257" y="1174" />
        <pt on="0" x="1201" y="1099" />
        <pt on="1" x="1079" y="996" />
        <pt on="1" x="939" y="1058" />
        <pt on="0" x="1064" y="1133" />
        <pt on="1" x="1141" y="1212" />
        <pt on="0" x="1214" y="1287" />
        <pt on="1" x="1214" y="1340" />
        <pt on="0" x="1214" y="1392" />
        <pt on="1" x="1166" y="1421" />
        <pt on="0" x="1118" y="1449" />
        <pt on="1" x="1027" y="1449" />
        <pt on="0" x="937" y="1449" />
        <pt on="1" x="842" y="1427" />
        <pt on="0" x="750" y="1404" />
        <pt on="1" x="665" y="1361" />
        <pt on="0" x="554" y="1305" />
        <pt on="1" x="495" y="1235" />
        <pt on="0" x="435" y="1166" />
        <pt on="1" x="435" y="1091" />
        <pt on="0" x="435" y="1036" />
        <pt on="1" x="472" y="985" />
        <pt on="0" x="513" y="927" />
        <pt on="1" x="591" y="865" />
        <pt on="1" x="847" y="663" />
        <pt on="0" x="930" y="595" />
        <pt on="1" x="975" y="521" />
        <pt on="0" x="1017" y="447" />
        <pt on="1" x="1017" y="370" />
        <pt on="0" x="1017" y="193" />
        <pt on="1" x="847" y="94" />
        <pt on="0" x="677" y="-4" />
        <pt on="1" x="368" y="-4" />
        <pt on="0" x="219" y="-4" />
        <pt on="1" x="68" y="18" />
        <pt on="0" x="-77" y="39" />
        <pt on="1" x="-248" y="87" />
      </contour>
      <contour>
        <pt on="1" x="749" y="1170" />
        <pt on="0" x="790" y="1237" />
        <pt on="1" x="868" y="1206" />
        <pt on="0" x="904" y="1189" />
        <pt on="0" x="943" y="1122" />
        <pt on="1" x="931" y="1087" />
        <pt on="0" x="929" y="1081" />
        <pt on="0" x="913" y="1045" />
        <pt on="1" x="888" y="1035" />
        <pt on="0" x="828" y="1010" />
        <pt on="0" x="691" y="979" />
        <pt on="1" x="648" y="937" />
        <pt on="0" x="653" y="995" />
        <pt on="0" x="583" y="1114" />
        <pt on="1" x="562" y="1174" />
        <pt on="0" x="552" y="1198" />
        <pt on="0" x="562" y="1232" />
        <pt on="1" x="565" y="1241" />
        <pt on="0" x="599" y="1316" />
        <pt on="1" x="692" y="1281" />
        <pt on="0" x="768" y="1245" />
      </contour>
      <contour>
        <pt on="1" x="322" y="462" />
        <pt on="0" x="309" y="575" />
        <pt on="1" x="428" y="610" />
        <pt on="0" x="484" y="623" />
        <pt on="0" x="589" y="581" />
        <pt on="1" x="607" y="529" />
        <pt on="0" x="610" y="521" />
        <pt on="0" x="623" y="465" />
        <pt on="1" x="604" y="431" />
        <pt on="0" x="556" y="348" />
        <pt on="0" x="427" y="190" />
        <pt on="1" x="415" y="102" />
        <pt on="0" x="367" y="175" />
        <pt on="0" x="181" y="250" />
        <pt on="1" x="103" y="299" />
        <pt on="0" x="70" y="320" />
        <pt on="0" x="51" y="369" />
        <pt on="1" x="46" y="381" />
        <pt on="0" x="34" y="434" />
        <pt on="0" x="102" y="524" />
        <pt on="1" x="157" y="540" />
        <pt on="0" x="276" y="566" />
      </contour>
    </TTGlyph>
    <TTGlyph name="T" xMax="1857" xMin="-176" yMax="1443" yMin="-18">
      <contour>
        <pt on="1" x="-176" y="52" />
        <pt on="1" x="-102" y="153" />
        <pt on="0" x="26" y="85" />
        <pt on="1" x="126" y="52" />
        <pt on="0" x="225" y="21" />
        <pt on="1" x="302" y="21" />
        <pt on="0" x="535" y="21" />
        <pt on="1" x="688" y="241" />
        <pt on="0" x="840" y="465" />
        <pt on="1" x="1021" y="1136" />
        <pt on="1" x="1066" y="1308" />
        <pt on="0" x="1030" y="1311" />
        <pt on="0" x="955" y="1318" />
        <pt on="1" x="916" y="1320" />
        <pt on="0" x="848" y="1324" />
        <pt on="1" x="751" y="1324" />
        <pt on="0" x="409" y="1324" />
        <pt on="1" x="253" y="1288" />
        <pt on="0" x="95" y="1250" />
        <pt on="1" x="95" y="1172" />
        <pt on="0" x="95" y="1107" />
        <pt on="1" x="196" y="1070" />
        <pt on="0" x="298" y="1032" />
        <pt on="1" x="526" y="1013" />
        <pt on="1" x="460" y="916" />
        <pt on="0" x="265" y="949" />
        <pt on="1" x="163" y="1013" />
        <pt on="0" x="59" y="1077" />
        <pt on="1" x="59" y="1168" />
        <pt on="0" x="59" y="1297" />
        <pt on="1" x="265" y="1370" />
        <pt on="0" x="469" y="1443" />
        <pt on="1" x="841" y="1443" />
        <pt on="0" x="951" y="1443" />
        <pt on="1" x="1044" y="1436" />
        <pt on="0" x="1136" y="1430" />
        <pt on="1" x="1238" y="1416" />
        <pt on="0" x="1237" y="1412" />
        <pt on="0" x="1372" y="1387" />
        <pt on="0" x="1551" y="1354" />
        <pt on="0" x="1724" y="1319" />
        <pt on="1" x="1762" y="1307" />
        <pt on="0" x="1857" y="1275" />
        <pt on="0" x="1686" y="1233" />
        <pt on="1" x="1684" y="1224" />
        <pt on="0" x="1543" y="1249" />
        <pt on="0" x="1304" y="1293" />
        <pt on="1" x="1211" y="1290" />
        <pt on="1" x="1167" y="1136" />
        <pt on="0" x="1084" y="812" />
        <pt on="1" x="997" y="586" />
        <pt on="0" x="908" y="360" />
        <pt on="1" x="818" y="243" />
        <pt on="0" x="720" y="116" />
        <pt on="1" x="569" y="50" />
        <pt on="0" x="418" y="-17" />
        <pt on="1" x="233" y="-18" />
        <pt on="0" x="140" y="-18" />
        <pt on="1" x="35" y="-1" />
        <pt on="0" x="-64" y="15" />
        <pt on="1" x="-176" y="52" />
      </contour>
      <contour>
        <pt on="1" x="765" y="1119" />
        <pt on="0" x="805" y="1185" />
        <pt on="1" x="881" y="1154" />
        <pt on="0" x="916" y="1138" />
        <pt on="0" x="955" y="1073" />
        <pt on="1" x="943" y="1039" />
        <pt on="0" x="941" y="1033" />
        <pt on="0" x="925" y="997" />
        <pt on="1" x="901" y="988" />
        <pt on="0" x="842" y="964" />
        <pt on="0" x="709" y="933" />
        <pt on="1" x="667" y="891" />
        <pt on="0" x="672" y="948" />
        <pt on="0" x="603" y="1065" />
        <pt on="1" x="582" y="1123" />
        <pt on="0" x="573" y="1147" />
        <pt on="0" x="583" y="1180" />
        <pt on="1" x="586" y="1189" />
        <pt on="0" x="601" y="1222" />
        <pt on="0" x="673" y="1242" />
        <pt on="1" x="709" y="1228" />
        <pt on="0" x="784" y="1193" />
      </contour>
      <contour>
        <pt on="1" x="412" y="588" />
        <pt on="0" x="399" y="704" />
        <pt on="1" x="521" y="741" />
        <pt on="0" x="578" y="754" />
        <pt on="0" x="688" y="711" />
        <pt on="1" x="706" y="657" />
        <pt on="0" x="709" y="649" />
        <pt on="0" x="722" y="592" />
        <pt on="1" x="702" y="556" />
        <pt on="0" x="653" y="471" />
        <pt on="0" x="519" y="307" />
        <pt on="1" x="507" y="217" />
        <pt on="0" x="459" y="292" />
        <pt on="0" x="266" y="369" />
        <pt on="1" x="186" y="420" />
        <pt on="0" x="151" y="441" />
        <pt on="0" x="132" y="492" />
        <pt on="1" x="128" y="504" />
        <pt on="0" x="115" y="559" />
        <pt on="0" x="185" y="652" />
        <pt on="1" x="242" y="668" />
        <pt on="0" x="364" y="696" />
      </contour>
    </TTGlyph>
    <TTGlyph name="Thorn" xMax="1362" xMin="40" yMax="1427" yMin="0">
      <contour>
        <pt on="1" x="69" y="26" />
        <pt on="1" x="1333" y="26" />
        <pt on="1" x="1333" y="1402" />
        <pt on="1" x="69" y="1402" />
      </contour>
      <contour>
        <pt on="1" x="40" y="0" />
        <pt on="1" x="40" y="1427" />
        <pt on="1" x="1362" y="1427" />
        <pt on="1" x="1362" y="0" />
      </contour>
    </TTGlyph>
</ttFont>
